<svg baseProfile="full" height="600" version="1.1" viewBox="0 0 600 600" width="600" xmlns="http://www.w3.org/2000/svg" xmlns:ev="http://www.w3.org/2001/xml-events" xmlns:xlink="http://www.w3.org/1999/xlink"><defs><style type="text/css"><![CDATA[
    rect { stroke: lightgray; stroke-width: 1; fill: white; }
    polygon { stroke: magenta; stroke-width: 2; fill: white; }
    line { stroke: green; stroke-width: 1; }
    ]]></style></defs><g><rect height="200" width="200" x="200" y="200" /><polygon points="42.4600410724,170.347697337 137.518632783,175.100626923 211.747965994,216.853520108 156.138952906,315.716608319 167.465603473,323.627137405 167.129161761,334.660521038 179.991440759,355.336876835 179.206169198,357.436552169 171.248430855,354.460384614 166.539797239,353.988341144 96.2763831912,273.90860903 62.0827286926,208.108409786 32.3152356832,221.133493232 23.0680507498,200.0" /><line x1="156.498960472" x2="164.856433375" y1="315.968037487" y2="352.069798911" /><line x1="37.757594054" x2="43.6842105264" y1="177.538211561" y2="200.0" /><line x1="167.465603473" x2="166.539797239" y1="323.627137405" y2="353.988341144" /><line x1="65.6348082138" x2="179.991440759" y1="171.506435694" y2="355.336876835" /><line x1="42.4600410724" x2="96.2763831912" y1="170.347697337" y2="273.90860903" /><line x1="23.0680507498" x2="32.3152356832" y1="200.0" y2="221.133493232" /><line x1="167.3000221" x2="135.47893184" y1="196.217388169" y2="318.588043363" /><line x1="42.4600410724" x2="23.0680507498" y1="170.347697337" y2="200.0" /><line x1="96.2763831912" x2="166.539797239" y1="273.90860903" y2="353.988341144" /><line x1="137.518632783" x2="211.747965994" y1="175.100626923" y2="216.853520108" /><line x1="65.6348082138" x2="43.6842105264" y1="171.506435694" y2="200.0" /><line x1="179.991440759" x2="179.206169198" y1="355.336876835" y2="357.436552169" /><line x1="96.2763831912" x2="167.465603473" y1="273.90860903" y2="323.627137405" /><line x1="211.747965994" x2="147.084104126" y1="216.853520108" y2="331.814543959" /><line x1="73.851986704" x2="167.3000221" y1="171.917294619" y2="196.217388169" /><line x1="42.4600410724" x2="137.518632783" y1="170.347697337" y2="175.100626923" /><line x1="73.851986704" x2="37.757594054" y1="171.917294619" y2="177.538211561" /><line x1="137.518632783" x2="32.3152356832" y1="175.100626923" y2="221.133493232" /><line x1="23.0680507498" x2="43.6842105264" y1="200.0" y2="200.0" /><line x1="164.856433375" x2="179.206169198" y1="352.069798911" y2="357.436552169" /><line x1="156.498960472" x2="135.47893184" y1="315.968037487" y2="318.588043363" /><line x1="166.539797239" x2="179.991440759" y1="353.988341144" y2="355.336876835" /><line x1="167.465603473" x2="147.084104126" y1="323.627137405" y2="331.814543959" /></g></svg>
