<svg baseProfile="full" height="600" version="1.1" viewBox="0 0 600 600" width="600" xmlns="http://www.w3.org/2000/svg" xmlns:ev="http://www.w3.org/2001/xml-events" xmlns:xlink="http://www.w3.org/1999/xlink"><defs><style type="text/css"><![CDATA[
    rect { stroke: lightgray; stroke-width: 1; fill: white; }
    polygon { stroke: magenta; stroke-width: 2; fill: white; }
    line { stroke: green; stroke-width: 1; }
    ]]></style></defs><g><rect height="200" width="200" x="200" y="200" /><polygon points="160.0,240.0 220.0,240.0 230.0,250.0 240.0,240.0 240.0,300.0 230.0,310.0 240.0,320.0 180.0,320.0 170.0,310.0 160.0,320.0 160.0,260.0 170.0,250.0" /><line x1="160.0" x2="160.0" y1="260.0" y2="320.0" /><line x1="180.0" x2="180.0" y1="280.0" y2="320.0" /><line x1="200.0" x2="200.0" y1="240.0" y2="320.0" /><line x1="180.0" x2="160.0" y1="240.0" y2="280.0" /><line x1="220.0" x2="220.0" y1="240.0" y2="280.0" /><line x1="240.0" x2="240.0" y1="240.0" y2="300.0" /><line x1="180.0" x2="160.0" y1="260.0" y2="300.0" /><line x1="200.0" x2="180.0" y1="240.0" y2="280.0" /><line x1="220.0" x2="240.0" y1="240.0" y2="260.0" /><line x1="180.0" x2="160.0" y1="240.0" y2="260.0" /><line x1="200.0" x2="180.0" y1="260.0" y2="300.0" /><line x1="200.0" x2="240.0" y1="240.0" y2="280.0" /><line x1="200.0" x2="160.0" y1="240.0" y2="280.0" /><line x1="220.0" x2="200.0" y1="260.0" y2="300.0" /><line x1="220.0" x2="200.0" y1="280.0" y2="320.0" /><line x1="240.0" x2="220.0" y1="260.0" y2="300.0" /><line x1="180.0" x2="220.0" y1="240.0" y2="280.0" /><line x1="200.0" x2="160.0" y1="260.0" y2="300.0" /><line x1="200.0" x2="240.0" y1="240.0" y2="260.0" /><line x1="240.0" x2="220.0" y1="280.0" y2="320.0" /><line x1="160.0" x2="240.0" y1="240.0" y2="320.0" /><line x1="180.0" x2="220.0" y1="240.0" y2="260.0" /><line x1="160.0" x2="220.0" y1="240.0" y2="240.0" /><line x1="240.0" x2="160.0" y1="240.0" y2="320.0" /><line x1="200.0" x2="240.0" y1="260.0" y2="280.0" /><line x1="180.0" x2="220.0" y1="280.0" y2="320.0" /><line x1="240.0" x2="200.0" y1="260.0" y2="300.0" /><line x1="180.0" x2="220.0" y1="260.0" y2="280.0" /><line x1="160.0" x2="200.0" y1="280.0" y2="320.0" /><line x1="160.0" x2="200.0" y1="260.0" y2="260.0" /><line x1="240.0" x2="200.0" y1="280.0" y2="320.0" /><line x1="160.0" x2="180.0" y1="300.0" y2="320.0" /><line x1="240.0" x2="220.0" y1="300.0" y2="320.0" /><line x1="180.0" x2="220.0" y1="280.0" y2="300.0" /><line x1="160.0" x2="200.0" y1="280.0" y2="300.0" /><line x1="160.0" x2="240.0" y1="280.0" y2="280.0" /><line x1="180.0" x2="220.0" y1="300.0" y2="320.0" /><line x1="160.0" x2="200.0" y1="300.0" y2="320.0" /><line x1="200.0" x2="240.0" y1="300.0" y2="300.0" /><line x1="180.0" x2="240.0" y1="320.0" y2="320.0" /></g></svg>
