<svg baseProfile="full" height="600" version="1.1" viewBox="0 0 600 600" width="600" xmlns="http://www.w3.org/2000/svg" xmlns:ev="http://www.w3.org/2001/xml-events" xmlns:xlink="http://www.w3.org/1999/xlink"><defs><style type="text/css"><![CDATA[
    rect { stroke: lightgray; stroke-width: 1; fill: white; }
    polygon { stroke: magenta; stroke-width: 2; fill: white; }
    line { stroke: green; stroke-width: 1; }
    ]]></style></defs><g><rect height="200" width="200" x="200" y="200" /><polygon points="247.5,200.0 254.365079365,200.0 272.482613735,225.08581682 318.293471235,400.0 251.414593832,437.611736288 248.994425765,440.269367082 248.114227531,439.467815692 252.600457628,400.0 200.0,400.0 200.0,252.777777778" /><line x1="254.365079365" x2="272.482613735" y1="200.0" y2="225.08581682" /><line x1="272.482613735" x2="318.293471235" y1="225.08581682" y2="400.0" /><line x1="247.5" x2="252.486187845" y1="200.0" y2="247.237569061" /><line x1="247.5" x2="254.365079365" y1="200.0" y2="200.0" /><line x1="200.0" x2="200.0" y1="252.777777778" y2="400.0" /><line x1="272.482613735" x2="248.114227531" y1="225.08581682" y2="439.467815692" /><line x1="254.365079365" x2="208.577223993" y1="200.0" y2="338.249782672" /><line x1="247.5" x2="200.0" y1="200.0" y2="252.777777778" /><line x1="252.486187845" x2="200.0" y1="247.237569061" y2="252.777777778" /><line x1="248.114227531" x2="248.994425765" y1="439.467815692" y2="440.269367082" /><line x1="208.577223993" x2="311.005636726" y1="338.249782672" y2="372.173722786" /><line x1="311.005636726" x2="248.994425765" y1="372.173722786" y2="440.269367082" /><line x1="200.0" x2="318.293471235" y1="400.0" y2="400.0" /><line x1="318.293471235" x2="248.114227531" y1="400.0" y2="439.467815692" /></g></svg>
