<svg baseProfile="full" height="100%" version="1.1" width="100%" xmlns="http://www.w3.org/2000/svg" xmlns:ev="http://www.w3.org/2001/xml-events" xmlns:xlink="http://www.w3.org/1999/xlink"><defs /><g><polygon fill="white" points="200.0,200.0 400.0,200.0 400.0,400.0 200.0,400.0" stroke="lightgray" stroke-width="1" /><polygon fill="white" points="200.0,300.0 300.0,300.0 400.0,350.0 400.0,400.0 375.0,400.0 368.0,424.0 320.0,410.0 318.181818182,400.0 200.0,400.0" stroke="magenta" stroke-width="2" /><line stroke="green" stroke-width="1" x1="300.0" x2="320.0" y1="300.0" y2="410.0" /><line stroke="green" stroke-width="1" x1="300.0" x2="375.0" y1="300.0" y2="400.0" /><line stroke="green" stroke-width="1" x1="200.0" x2="200.0" y1="300.0" y2="400.0" /><line stroke="green" stroke-width="1" x1="400.0" x2="400.0" y1="350.0" y2="400.0" /><line stroke="green" stroke-width="1" x1="300.0" x2="400.0" y1="300.0" y2="350.0" /><line stroke="green" stroke-width="1" x1="375.0" x2="368.0" y1="400.0" y2="424.0" /><line stroke="green" stroke-width="1" x1="200.0" x2="300.0" y1="300.0" y2="300.0" /><line stroke="green" stroke-width="1" x1="320.0" x2="368.0" y1="410.0" y2="424.0" /><line stroke="green" stroke-width="1" x1="400.0" x2="320.0" y1="350.0" y2="410.0" /><line stroke="green" stroke-width="1" x1="200.0" x2="400.0" y1="400.0" y2="400.0" /></g></svg>
