<svg baseProfile="full" height="600" version="1.1" viewBox="0 0 600 600" width="600" xmlns="http://www.w3.org/2000/svg" xmlns:ev="http://www.w3.org/2001/xml-events" xmlns:xlink="http://www.w3.org/1999/xlink"><defs><style type="text/css"><![CDATA[
    rect { stroke: lightgray; stroke-width: 1; fill: white; }
    polygon { stroke: magenta; stroke-width: 2; fill: white; }
    line { stroke: green; stroke-width: 1; }
    ]]></style></defs><g><rect height="200" width="200" x="200" y="200" /><polygon points="258.002366639,177.185238173 323.96288832,194.738819551 316.936127353,390.484303641 233.844349654,387.890700245 233.78685491,381.746231285 234.286396238,381.741557 234.561966595,377.908201732 206.568026862,370.458383467 245.656444232,223.577109159 247.744251567,194.534409031 253.279467685,194.932321923" /><line x1="258.002366639" x2="323.96288832" y1="177.185238173" y2="194.738819551" /><line x1="296.358024691" x2="314.338251753" y1="200.0" y2="390.378874767" /><line x1="247.744251567" x2="323.774025433" y1="194.534409031" y2="200.0" /><line x1="233.78685491" x2="233.844349654" y1="381.746231285" y2="387.890700245" /><line x1="296.358024691" x2="323.774025433" y1="200.0" y2="200.0" /><line x1="247.744251567" x2="233.844349654" y1="194.534409031" y2="387.890700245" /><line x1="323.96288832" x2="316.936127353" y1="194.738819551" y2="390.484303641" /><line x1="258.002366639" x2="206.568026862" y1="177.185238173" y2="370.458383467" /><line x1="323.96288832" x2="296.358024691" y1="194.738819551" y2="200.0" /><line x1="316.023544432" x2="314.338251753" y1="380.863019279" y2="390.378874767" /><line x1="316.023544432" x2="317.26915815" y1="380.863019279" y2="381.207017168" /><line x1="206.568026862" x2="277.152526142" y1="370.458383467" y2="389.242509494" /><line x1="316.023544432" x2="317.27784619" y1="380.863019279" y2="380.964993196" /><line x1="317.27784619" x2="233.78685491" y1="380.964993196" y2="381.746231285" /><line x1="314.338251753" x2="316.936127353" y1="390.378874767" y2="390.484303641" /><line x1="233.844349654" x2="316.936127353" y1="387.890700245" y2="390.484303641" /><line x1="317.26915815" x2="277.152526142" y1="381.207017168" y2="389.242509494" /></g></svg>
