<svg baseProfile="full" height="600" version="1.1" viewBox="0 0 600 600" width="600" xmlns="http://www.w3.org/2000/svg" xmlns:ev="http://www.w3.org/2001/xml-events" xmlns:xlink="http://www.w3.org/1999/xlink"><defs><style type="text/css"><![CDATA[
    rect { stroke: lightgray; stroke-width: 1; fill: white; }
    polygon { stroke: magenta; stroke-width: 2; fill: white; }
    line { stroke: green; stroke-width: 1; }
    ]]></style></defs><g><rect height="200" width="200" x="200" y="200" /><polygon points="320.588235294,203.125 396.875,255.384615385 341.538461538,311.504424779 275.362318841,332.307692308 203.125,235.443037975" /><line x1="392.404510238" x2="393.200280384" y1="252.322143455" y2="254.465434162" /><line x1="320.588235294" x2="396.875" y1="203.125" y2="255.384615385" /><line x1="317.559739769" x2="346.358460323" y1="203.958239721" y2="278.304049613" /><line x1="292.157546923" x2="319.564304443" y1="232.409504459" y2="266.833044197" /><line x1="317.559739769" x2="318.267077409" y1="203.958239721" y2="208.143721017" /><line x1="252.229978629" x2="252.903247693" y1="254.292422599" y2="302.19181594" /><line x1="249.694169219" x2="288.230018093" y1="266.217285562" y2="313.247279771" /><line x1="206.515027975" x2="206.005691567" y1="234.510328667" y2="236.92846121" /><line x1="393.200280384" x2="396.875" y1="254.465434162" y2="255.384615385" /><line x1="249.694169219" x2="246.745766242" y1="266.217285562" y2="293.935109824" /><line x1="203.125" x2="275.362318841" y1="235.443037975" y2="332.307692308" /><line x1="206.515027975" x2="229.441419356" y1="234.510328667" y2="259.389240975" /><line x1="208.817924206" x2="206.005691567" y1="233.876725415" y2="236.92846121" /><line x1="203.125" x2="206.005691567" y1="235.443037975" y2="236.92846121" /><line x1="208.817924206" x2="319.564304443" y1="233.876725415" y2="266.833044197" /><line x1="320.588235294" x2="203.125" y1="203.125" y2="235.443037975" /><line x1="320.588235294" x2="318.267077409" y1="203.125" y2="208.143721017" /><line x1="229.441419356" x2="224.428216566" y1="259.389240975" y2="264.009002797" /><line x1="392.404510238" x2="252.229978629" y1="252.322143455" y2="254.292422599" /><line x1="318.267077409" x2="224.428216566" y1="208.143721017" y2="264.009002797" /><line x1="292.157546923" x2="249.694169219" y1="232.409504459" y2="266.217285562" /><line x1="394.21748432" x2="391.528321118" y1="253.564106311" y2="260.806974789" /><line x1="319.564304443" x2="275.362318841" y1="266.833044197" y2="332.307692308" /><line x1="252.903247693" x2="288.230018093" y1="302.19181594" y2="313.247279771" /><line x1="246.745766242" x2="341.538461538" y1="293.935109824" y2="311.504424779" /><line x1="391.528321118" x2="346.358460323" y1="260.806974789" y2="278.304049613" /><line x1="396.875" x2="341.538461538" y1="255.384615385" y2="311.504424779" /><line x1="394.21748432" x2="393.200280384" y1="253.564106311" y2="254.465434162" /><line x1="341.538461538" x2="275.362318841" y1="311.504424779" y2="332.307692308" /></g></svg>
