<svg baseProfile="full" height="100%" version="1.1" width="100%" xmlns="http://www.w3.org/2000/svg" xmlns:ev="http://www.w3.org/2001/xml-events" xmlns:xlink="http://www.w3.org/1999/xlink"><defs /><g><polygon fill="white" points="200.0,200.0 400.0,200.0 400.0,400.0 200.0,400.0" stroke="lightgray" stroke-width="1" /><polygon fill="white" points="247.5,200.0 254.365079365,200.0 272.482613735,225.08581682 318.293471235,400.0 251.414593832,437.611736288 248.994425765,440.269367082 248.114227531,439.467815692 252.600457628,400.0 200.0,400.0 200.0,252.777777778" stroke="magenta" stroke-width="2" /><line stroke="green" stroke-width="1" x1="254.365079365" x2="272.482613735" y1="200.0" y2="225.08581682" /><line stroke="green" stroke-width="1" x1="272.482613735" x2="318.293471235" y1="225.08581682" y2="400.0" /><line stroke="green" stroke-width="1" x1="247.5" x2="252.486187845" y1="200.0" y2="247.237569061" /><line stroke="green" stroke-width="1" x1="247.5" x2="254.365079365" y1="200.0" y2="200.0" /><line stroke="green" stroke-width="1" x1="200.0" x2="200.0" y1="252.777777778" y2="400.0" /><line stroke="green" stroke-width="1" x1="272.482613735" x2="248.114227531" y1="225.08581682" y2="439.467815692" /><line stroke="green" stroke-width="1" x1="254.365079365" x2="208.577223993" y1="200.0" y2="338.249782672" /><line stroke="green" stroke-width="1" x1="247.5" x2="200.0" y1="200.0" y2="252.777777778" /><line stroke="green" stroke-width="1" x1="252.486187845" x2="200.0" y1="247.237569061" y2="252.777777778" /><line stroke="green" stroke-width="1" x1="248.114227531" x2="248.994425765" y1="439.467815692" y2="440.269367082" /><line stroke="green" stroke-width="1" x1="208.577223993" x2="311.005636726" y1="338.249782672" y2="372.173722786" /><line stroke="green" stroke-width="1" x1="311.005636726" x2="248.994425765" y1="372.173722786" y2="440.269367082" /><line stroke="green" stroke-width="1" x1="200.0" x2="318.293471235" y1="400.0" y2="400.0" /><line stroke="green" stroke-width="1" x1="318.293471235" x2="248.114227531" y1="400.0" y2="439.467815692" /></g></svg>
