<svg baseProfile="full" height="600" version="1.1" viewBox="0 0 600 600" width="600" xmlns="http://www.w3.org/2000/svg" xmlns:ev="http://www.w3.org/2001/xml-events" xmlns:xlink="http://www.w3.org/1999/xlink"><defs><style type="text/css"><![CDATA[
    rect { stroke: lightgray; stroke-width: 1; fill: white; }
    polygon { stroke: magenta; stroke-width: 2; fill: white; }
    line { stroke: green; stroke-width: 1; }
    ]]></style></defs><g><rect height="200" width="200" x="200" y="200" /><polygon points="451.96452129,-2.213882936 475.039832922,0.3076010084 524.283994214,153.042048239 512.957084888,173.946754024 412.409099258,168.968322917 376.106069134,149.298056582 416.421442924,53.044266433 432.033333642,38.9988609312" /><line x1="451.96452129" x2="475.039832922" y1="-2.213882936" y2="0.3076010084" /><line x1="404.82080564" x2="524.283994214" y1="95.26760749" y2="153.042048239" /><line x1="392.419347553" x2="405.161665966" y1="110.349766389" y2="116.357331588" /><line x1="392.419347553" x2="419.441649888" y1="110.349766389" y2="120.297363944" /><line x1="382.185276702" x2="390.344788074" y1="134.783822568" y2="141.577987942" /><line x1="496.104112254" x2="512.957084888" y1="133.818383889" y2="173.946754024" /><line x1="376.106069134" x2="412.409099258" y1="149.298056582" y2="168.968322917" /><line x1="475.039832922" x2="524.283994214" y1="0.3076010084" y2="153.042048239" /><line x1="376.106069134" x2="378.703342873" y1="149.298056582" y2="150.092212593" /><line x1="382.185276702" x2="403.126120956" y1="134.783822568" y2="136.86260628" /><line x1="384.921361818" x2="390.344788074" y1="128.251362671" y2="141.577987942" /><line x1="451.96452129" x2="473.12174106" y1="-2.213882936" y2="87.0296694332" /><line x1="500.878840918" x2="473.12174106" y1="80.4492157618" y2="87.0296694332" /><line x1="412.409099258" x2="512.957084888" y1="168.968322917" y2="173.946754024" /><line x1="416.421442924" x2="419.441649888" y1="53.044266433" y2="120.297363944" /><line x1="378.783214589" x2="378.703342873" y1="142.906316344" y2="150.092212593" /><line x1="500.878840918" x2="384.921361818" y1="80.4492157618" y2="128.251362671" /><line x1="405.161665966" x2="403.126120956" y1="116.357331588" y2="136.86260628" /><line x1="475.039832922" x2="416.421442924" y1="0.3076010084" y2="53.044266433" /><line x1="496.104112254" x2="412.409099258" y1="133.818383889" y2="168.968322917" /><line x1="419.441649888" x2="378.703342873" y1="120.297363944" y2="150.092212593" /><line x1="416.421442924" x2="376.106069134" y1="53.044266433" y2="149.298056582" /><line x1="451.96452129" x2="404.82080564" y1="-2.213882936" y2="95.26760749" /><line x1="405.161665966" x2="378.783214589" y1="116.357331588" y2="142.906316344" /><line x1="524.283994214" x2="512.957084888" y1="153.042048239" y2="173.946754024" /></g></svg>
