<svg baseProfile="full" height="600" version="1.1" viewBox="0 0 600 600" width="600" xmlns="http://www.w3.org/2000/svg" xmlns:ev="http://www.w3.org/2001/xml-events" xmlns:xlink="http://www.w3.org/1999/xlink"><defs><style type="text/css"><![CDATA[
    rect { stroke: lightgray; stroke-width: 1; fill: white; }
    polygon { stroke: magenta; stroke-width: 2; fill: white; }
    line { stroke: green; stroke-width: 1; }
    ]]></style></defs><g><rect height="200" width="200" x="200" y="200" /><polygon points="200.0,200.0 225.0,200.0 225.0,225.0 237.5,225.0 262.5,250.0 262.5,262.5 237.5,287.5 200.0,287.5" /><polygon points="225.0,250.0 225.0,262.5 237.5,262.5 237.5,250.0" /><line x1="237.5" x2="262.5" y1="225.0" y2="250.0" /><line x1="200.0" x2="225.0" y1="200.0" y2="200.0" /><line x1="200.0" x2="200.0" y1="200.0" y2="287.5" /><line x1="225.0" x2="225.0" y1="200.0" y2="287.5" /><line x1="237.5" x2="237.5" y1="225.0" y2="287.5" /><line x1="262.5" x2="262.5" y1="250.0" y2="262.5" /><line x1="225.0" x2="237.5" y1="225.0" y2="225.0" /><line x1="225.0" x2="200.0" y1="262.5" y2="287.5" /><line x1="225.0" x2="262.5" y1="250.0" y2="250.0" /><line x1="225.0" x2="262.5" y1="262.5" y2="262.5" /><line x1="262.5" x2="237.5" y1="262.5" y2="287.5" /><line x1="200.0" x2="237.5" y1="287.5" y2="287.5" /></g></svg>
