<svg baseProfile="full" height="100%" version="1.1" width="100%" xmlns="http://www.w3.org/2000/svg" xmlns:ev="http://www.w3.org/2001/xml-events" xmlns:xlink="http://www.w3.org/1999/xlink"><defs /><g><polygon fill="white" points="200.0,200.0 400.0,200.0 400.0,400.0 200.0,400.0" stroke="lightgray" stroke-width="1" /><polygon fill="white" points="288.0,224.0 300.0,240.0 312.0,224.0 328.0,236.0 312.5,256.666666667 330.0,280.0 320.0,300.0 280.0,300.0 270.0,280.0 287.5,256.666666667 272.0,236.0" stroke="magenta" stroke-width="2" /><polygon fill="white" points="300.0,273.333333333 295.0,280.0 305.0,280.0" stroke="magenta" stroke-width="2" /><line stroke="green" stroke-width="1" x1="312.0" x2="328.0" y1="224.0" y2="236.0" /><line stroke="green" stroke-width="1" x1="288.0" x2="330.0" y1="224.0" y2="280.0" /><line stroke="green" stroke-width="1" x1="272.0" x2="320.0" y1="236.0" y2="300.0" /><line stroke="green" stroke-width="1" x1="270.0" x2="280.0" y1="280.0" y2="300.0" /><line stroke="green" stroke-width="1" x1="288.0" x2="272.0" y1="224.0" y2="236.0" /><line stroke="green" stroke-width="1" x1="312.0" x2="270.0" y1="224.0" y2="280.0" /><line stroke="green" stroke-width="1" x1="330.0" x2="320.0" y1="280.0" y2="300.0" /><line stroke="green" stroke-width="1" x1="328.0" x2="280.0" y1="236.0" y2="300.0" /><line stroke="green" stroke-width="1" x1="270.0" x2="330.0" y1="280.0" y2="280.0" /><line stroke="green" stroke-width="1" x1="280.0" x2="320.0" y1="300.0" y2="300.0" /></g></svg>
