<svg baseProfile="full" height="600" version="1.1" viewBox="0 0 600 600" width="600" xmlns="http://www.w3.org/2000/svg" xmlns:ev="http://www.w3.org/2001/xml-events" xmlns:xlink="http://www.w3.org/1999/xlink"><defs><style type="text/css"><![CDATA[
    rect { stroke: lightgray; stroke-width: 1; fill: white; }
    polygon { stroke: magenta; stroke-width: 2; fill: white; }
    line { stroke: green; stroke-width: 1; }
    ]]></style></defs><g><rect height="200" width="200" x="200" y="200" /><polygon points="232.501408556,263.030725537 294.09884353,283.628785707 305.176114281,282.62980841 309.335166389,276.268905187 412.22724248,321.119297329 413.258809766,323.475642243 422.17739758,326.458000331 418.88055367,336.317041752 375.820666626,338.254736669 315.173015411,394.603082291 287.404209632,364.715552694 293.041698872,341.979790217 265.561814185,343.216385028 223.483931988,289.997023427" /><line x1="412.22724248" x2="418.88055367" y1="321.119297329" y2="336.317041752" /><line x1="320.713337721" x2="365.974049395" y1="281.228620896" y2="339.69981022" /><line x1="397.99326316" x2="400.0" y1="314.914742241" y2="337.166666667" /><line x1="400.0" x2="400.0" y1="315.789473684" y2="337.166666667" /><line x1="232.501408556" x2="223.483931988" y1="263.030725537" y2="289.997023427" /><line x1="223.483931988" x2="265.561814185" y1="289.997023427" y2="343.216385028" /><line x1="309.335166389" x2="412.22724248" y1="276.268905187" y2="321.119297329" /><line x1="309.335166389" x2="287.404209632" y1="276.268905187" y2="364.715552694" /><line x1="287.404209632" x2="315.173015411" y1="364.715552694" y2="394.603082291" /><line x1="232.501408556" x2="422.17739758" y1="263.030725537" y2="326.458000331" /><line x1="309.335166389" x2="265.561814185" y1="276.268905187" y2="343.216385028" /><line x1="422.17739758" x2="418.88055367" y1="326.458000331" y2="336.317041752" /><line x1="320.713337721" x2="223.483931988" y1="281.228620896" y2="289.997023427" /><line x1="418.88055367" x2="265.561814185" y1="336.317041752" y2="343.216385028" /><line x1="400.0" x2="315.173015411" y1="315.789473684" y2="394.603082291" /><line x1="397.99326316" x2="365.974049395" y1="314.914742241" y2="339.69981022" /><line x1="412.22724248" x2="287.404209632" y1="321.119297329" y2="364.715552694" /></g></svg>
