<svg baseProfile="full" height="600" version="1.1" viewBox="0 0 600 600" width="600" xmlns="http://www.w3.org/2000/svg" xmlns:ev="http://www.w3.org/2001/xml-events" xmlns:xlink="http://www.w3.org/1999/xlink"><defs><style type="text/css"><![CDATA[
    rect { stroke: lightgray; stroke-width: 1; fill: white; }
    polygon { stroke: magenta; stroke-width: 2; fill: white; }
    line { stroke: green; stroke-width: 1; }
    ]]></style></defs><g><rect height="200" width="200" x="200" y="200" /><polygon points="279.411764706,236.61971831 320.588235294,236.61971831 354.054054054,260.759493671 366.153846154,300.0 354.054054054,339.240506329 320.588235294,363.38028169 279.411764706,363.38028169 245.945945946,339.240506329 233.846153846,300.0 245.945945946,260.759493671" /><line x1="354.054054054" x2="366.153846154" y1="260.759493671" y2="300.0" /><line x1="345.736908672" x2="354.054054054" y1="316.291996013" y2="339.240506329" /><line x1="320.588235294" x2="354.054054054" y1="236.61971831" y2="260.759493671" /><line x1="347.619828554" x2="354.636237132" y1="316.250743807" y2="337.352444239" /><line x1="304.657302953" x2="311.134846098" y1="236.61971831" y2="257.274790526" /><line x1="282.001941604" x2="352.635068661" y1="236.61971831" y2="340.264057818" /><line x1="297.751363308" x2="301.640105401" y1="236.61971831" y2="250.287502816" /><line x1="329.758899755" x2="352.635068661" y1="310.271255048" y2="340.264057818" /><line x1="281.997251178" x2="290.486901874" y1="236.61971831" y2="262.152163261" /><line x1="283.508950998" x2="311.134846098" y1="236.61971831" y2="257.274790526" /><line x1="279.411764706" x2="300.0" y1="236.61971831" y2="251.470553983" /><line x1="281.869560158" x2="301.640105401" y1="236.813969763" y2="250.287502816" /><line x1="245.945945946" x2="254.263091328" y1="260.759493671" y2="283.708003987" /><line x1="271.201205351" x2="279.411764706" y1="338.687198047" y2="363.38028169" /><line x1="247.364931339" x2="317.998058396" y1="259.735942182" y2="363.38028169" /><line x1="247.364931339" x2="292.449283829" y1="259.735942182" y2="318.84575632" /><line x1="233.846153846" x2="245.945945946" y1="300.0" y2="339.240506329" /><line x1="341.131377151" x2="361.234913717" y1="301.597216953" y2="315.952455864" /><line x1="346.785167488" x2="357.902238729" y1="319.184331922" y2="326.76056338" /><line x1="245.945945946" x2="233.846153846" y1="260.759493671" y2="300.0" /><line x1="281.997251178" x2="281.497096484" y1="236.61971831" y2="238.123922974" /><line x1="297.751363308" x2="290.486901874" y1="236.61971831" y2="262.152163261" /><line x1="264.681107907" x2="258.1242231" y1="326.76056338" y2="348.025017979" /><line x1="304.657302953" x2="300.0" y1="236.61971831" y2="251.470553983" /><line x1="279.411764706" x2="320.588235294" y1="236.61971831" y2="236.61971831" /><line x1="238.765086283" x2="290.055023511" y1="284.047544136" y2="320.67191121" /><line x1="311.134846098" x2="290.055023511" y1="257.274790526" y2="320.67191121" /><line x1="347.619828554" x2="346.785167488" y1="316.250743807" y2="319.184331922" /><line x1="282.001941604" x2="281.869560158" y1="236.61971831" y2="236.813969763" /><line x1="341.131377151" x2="320.588235294" y1="301.597216953" y2="363.38028169" /><line x1="366.153846154" x2="354.054054054" y1="300.0" y2="339.240506329" /><line x1="264.681107907" x2="318.130439842" y1="326.76056338" y2="363.186030237" /><line x1="279.411764706" x2="245.945945946" y1="236.61971831" y2="260.759493671" /><line x1="283.508950998" x2="281.497096484" y1="236.61971831" y2="238.123922974" /><line x1="354.054054054" x2="290.486901874" y1="260.759493671" y2="262.152163261" /><line x1="245.945945946" x2="279.411764706" y1="339.240506329" y2="363.38028169" /><line x1="254.263091328" x2="233.846153846" y1="283.708003987" y2="300.0" /><line x1="320.588235294" x2="300.0" y1="236.61971831" y2="251.470553983" /><line x1="254.263091328" x2="238.765086283" y1="283.708003987" y2="284.047544136" /><line x1="318.130439842" x2="317.998058396" y1="363.186030237" y2="363.38028169" /><line x1="361.234913717" x2="345.736908672" y1="315.952455864" y2="316.291996013" /><line x1="292.449283829" x2="290.055023511" y1="318.84575632" y2="320.67191121" /><line x1="271.201205351" x2="258.1242231" y1="338.687198047" y2="348.025017979" /><line x1="264.681107907" x2="357.902238729" y1="326.76056338" y2="326.76056338" /><line x1="341.131377151" x2="329.758899755" y1="301.597216953" y2="310.271255048" /><line x1="271.201205351" x2="245.945945946" y1="338.687198047" y2="339.240506329" /><line x1="366.153846154" x2="345.736908672" y1="300.0" y2="316.291996013" /><line x1="354.636237132" x2="351.967083338" y1="337.352444239" y2="339.388266416" /><line x1="279.411764706" x2="320.588235294" y1="363.38028169" y2="363.38028169" /><line x1="354.054054054" x2="320.588235294" y1="339.240506329" y2="363.38028169" /></g></svg>
