<svg baseProfile="full" height="600" version="1.1" viewBox="0 0 600 600" width="600" xmlns="http://www.w3.org/2000/svg" xmlns:ev="http://www.w3.org/2001/xml-events" xmlns:xlink="http://www.w3.org/1999/xlink"><defs><style type="text/css"><![CDATA[
    rect { stroke: lightgray; stroke-width: 1; fill: white; }
    polygon { stroke: magenta; stroke-width: 2; fill: white; }
    line { stroke: green; stroke-width: 1; }
    ]]></style></defs><g><rect height="200" width="200" x="200" y="200" /><polygon points="200.0,200.0 400.0,200.0 400.0,207.851133043 420.315631068,207.187150484 465.416380666,262.937107177 400.0,315.857826384 200.0,220.40328093" /><line x1="420.315631068" x2="465.416380666" y1="207.187150484" y2="262.937107177" /><line x1="200.0" x2="400.0" y1="200.0" y2="200.0" /><line x1="200.0" x2="200.0" y1="200.0" y2="220.40328093" /><line x1="400.0" x2="400.0" y1="200.0" y2="315.857826384" /><line x1="207.748919346" x2="251.29402442" y1="214.134539359" y2="244.884519857" /><line x1="207.748919346" x2="200.0" y1="214.134539359" y2="220.40328093" /><line x1="420.315631068" x2="207.748919346" y1="207.187150484" y2="214.134539359" /><line x1="200.0" x2="400.0" y1="220.40328093" y2="315.857826384" /><line x1="251.29402442" x2="363.221179043" y1="244.884519857" y2="276.555410808" /><line x1="363.221179043" x2="357.799332214" y1="276.555410808" y2="295.716598577" /><line x1="420.315631068" x2="357.799332214" y1="207.187150484" y2="295.716598577" /><line x1="465.416380666" x2="400.0" y1="262.937107177" y2="315.857826384" /></g></svg>
