<svg baseProfile="full" height="100%" version="1.1" width="100%" xmlns="http://www.w3.org/2000/svg" xmlns:ev="http://www.w3.org/2001/xml-events" xmlns:xlink="http://www.w3.org/1999/xlink"><defs /><g><polygon fill="white" points="200.0,200.0 400.0,200.0 400.0,400.0 200.0,400.0" stroke="lightgray" stroke-width="1" /><polygon fill="white" points="200.0,200.0 212.5,200.0 212.5,212.5 225.0,212.5 237.5,225.0 237.5,237.5 250.0,237.5 262.5,250.0 262.5,262.5 275.0,262.5 287.5,275.0 287.5,287.5 300.0,287.5 312.5,300.0 287.5,300.0 275.0,287.5 275.0,275.0 262.5,275.0 250.0,262.5 250.0,250.0 237.5,250.0 225.0,237.5 225.0,225.0 212.5,225.0 200.0,212.5" stroke="magenta" stroke-width="2" /><line stroke="green" stroke-width="1" x1="225.0" x2="237.5" y1="212.5" y2="225.0" /><line stroke="green" stroke-width="1" x1="250.0" x2="262.5" y1="237.5" y2="250.0" /><line stroke="green" stroke-width="1" x1="275.0" x2="287.5" y1="262.5" y2="275.0" /><line stroke="green" stroke-width="1" x1="300.0" x2="312.5" y1="287.5" y2="300.0" /><line stroke="green" stroke-width="1" x1="200.0" x2="212.5" y1="200.0" y2="200.0" /><line stroke="green" stroke-width="1" x1="200.0" x2="200.0" y1="200.0" y2="212.5" /><line stroke="green" stroke-width="1" x1="212.5" x2="212.5" y1="200.0" y2="225.0" /><line stroke="green" stroke-width="1" x1="225.0" x2="225.0" y1="212.5" y2="237.5" /><line stroke="green" stroke-width="1" x1="237.5" x2="237.5" y1="225.0" y2="250.0" /><line stroke="green" stroke-width="1" x1="250.0" x2="250.0" y1="237.5" y2="262.5" /><line stroke="green" stroke-width="1" x1="262.5" x2="262.5" y1="250.0" y2="275.0" /><line stroke="green" stroke-width="1" x1="275.0" x2="275.0" y1="262.5" y2="287.5" /><line stroke="green" stroke-width="1" x1="287.5" x2="287.5" y1="275.0" y2="300.0" /><line stroke="green" stroke-width="1" x1="300.0" x2="300.0" y1="287.5" y2="300.0" /><line stroke="green" stroke-width="1" x1="200.0" x2="212.5" y1="212.5" y2="225.0" /><line stroke="green" stroke-width="1" x1="225.0" x2="237.5" y1="237.5" y2="250.0" /><line stroke="green" stroke-width="1" x1="250.0" x2="262.5" y1="262.5" y2="275.0" /><line stroke="green" stroke-width="1" x1="275.0" x2="287.5" y1="287.5" y2="300.0" /><line stroke="green" stroke-width="1" x1="200.0" x2="225.0" y1="212.5" y2="212.5" /><line stroke="green" stroke-width="1" x1="212.5" x2="237.5" y1="225.0" y2="225.0" /><line stroke="green" stroke-width="1" x1="225.0" x2="250.0" y1="237.5" y2="237.5" /><line stroke="green" stroke-width="1" x1="237.5" x2="262.5" y1="250.0" y2="250.0" /><line stroke="green" stroke-width="1" x1="250.0" x2="275.0" y1="262.5" y2="262.5" /><line stroke="green" stroke-width="1" x1="262.5" x2="287.5" y1="275.0" y2="275.0" /><line stroke="green" stroke-width="1" x1="275.0" x2="300.0" y1="287.5" y2="287.5" /><line stroke="green" stroke-width="1" x1="287.5" x2="312.5" y1="300.0" y2="300.0" /></g></svg>
