<svg baseProfile="full" height="100%" version="1.1" width="100%" xmlns="http://www.w3.org/2000/svg" xmlns:ev="http://www.w3.org/2001/xml-events" xmlns:xlink="http://www.w3.org/1999/xlink"><defs /><g><polygon fill="white" points="200.0,200.0 400.0,200.0 400.0,400.0 200.0,400.0" stroke="lightgray" stroke-width="1" /><polygon fill="white" points="304.444444444,152.222222222 340.277777778,200.0 281.894878106,316.765799343 231.582416924,333.274575669 185.903050552,241.128267642 200.0,230.555555556 200.0,200.0 240.740740741,200.0" stroke="magenta" stroke-width="2" /><line stroke="green" stroke-width="1" x1="304.444444444" x2="340.277777778" y1="152.222222222" y2="200.0" /><line stroke="green" stroke-width="1" x1="235.751596826" x2="260.33886709" y1="226.958847537" y2="313.45777766" /><line stroke="green" stroke-width="1" x1="243.033193426" x2="258.952077793" y1="260.345767723" y2="314.413449282" /><line stroke="green" stroke-width="1" x1="200.0" x2="340.277777778" y1="200.0" y2="200.0" /><line stroke="green" stroke-width="1" x1="200.0" x2="200.0" y1="200.0" y2="269.565217391" /><line stroke="green" stroke-width="1" x1="204.395300588" x2="203.512162285" y1="271.721734484" y2="276.650096484" /><line stroke="green" stroke-width="1" x1="185.903050552" x2="231.582416924" y1="241.128267642" y2="333.274575669" /><line stroke="green" stroke-width="1" x1="304.444444444" x2="185.903050552" y1="152.222222222" y2="241.128267642" /><line stroke="green" stroke-width="1" x1="235.751596826" x2="185.903050552" y1="226.958847537" y2="241.128267642" /><line stroke="green" stroke-width="1" x1="204.395300588" x2="260.33886709" y1="271.721734484" y2="313.45777766" /><line stroke="green" stroke-width="1" x1="200.0" x2="258.952077793" y1="269.565217391" y2="314.413449282" /><line stroke="green" stroke-width="1" x1="340.277777778" x2="281.894878106" y1="200.0" y2="316.765799343" /><line stroke="green" stroke-width="1" x1="203.512162285" x2="281.894878106" y1="276.650096484" y2="316.765799343" /><line stroke="green" stroke-width="1" x1="243.033193426" x2="204.395300588" y1="260.345767723" y2="271.721734484" /><line stroke="green" stroke-width="1" x1="260.33886709" x2="231.582416924" y1="313.45777766" y2="333.274575669" /><line stroke="green" stroke-width="1" x1="281.894878106" x2="231.582416924" y1="316.765799343" y2="333.274575669" /></g></svg>
