<svg baseProfile="full" height="100%" version="1.1" width="100%" xmlns="http://www.w3.org/2000/svg" xmlns:ev="http://www.w3.org/2001/xml-events" xmlns:xlink="http://www.w3.org/1999/xlink"><defs /><g><polygon fill="white" points="200.0,200.0 400.0,200.0 400.0,400.0 200.0,400.0" stroke="lightgray" stroke-width="1" /><polygon fill="white" points="342.857142857,314.285714286 371.428571429,314.285714286 409.523809524,371.428571429 428.571428572,371.428571429 428.571428572,400.0 371.428571429,438.095238096 371.428571429,457.142857142 342.857142857,457.142857142 304.761904762,400.0 285.714285714,400.0 285.714285714,371.428571429 342.857142857,333.333333333" stroke="magenta" stroke-width="2" /><line stroke="green" stroke-width="1" x1="371.428571429" x2="428.571428572" y1="314.285714286" y2="400.0" /><line stroke="green" stroke-width="1" x1="285.714285714" x2="285.714285714" y1="371.428571429" y2="400.0" /><line stroke="green" stroke-width="1" x1="342.857142857" x2="342.857142857" y1="314.285714286" y2="457.142857142" /><line stroke="green" stroke-width="1" x1="371.428571429" x2="371.428571429" y1="314.285714286" y2="457.142857142" /><line stroke="green" stroke-width="1" x1="428.571428572" x2="428.571428572" y1="371.428571429" y2="400.0" /><line stroke="green" stroke-width="1" x1="285.714285714" x2="342.857142857" y1="371.428571429" y2="457.142857142" /><line stroke="green" stroke-width="1" x1="342.857142857" x2="371.428571429" y1="314.285714286" y2="314.285714286" /><line stroke="green" stroke-width="1" x1="371.428571429" x2="285.714285714" y1="314.285714286" y2="371.428571429" /><line stroke="green" stroke-width="1" x1="285.714285714" x2="428.571428572" y1="371.428571429" y2="371.428571429" /><line stroke="green" stroke-width="1" x1="285.714285714" x2="428.571428572" y1="400.0" y2="400.0" /><line stroke="green" stroke-width="1" x1="428.571428572" x2="342.857142857" y1="400.0" y2="457.142857142" /><line stroke="green" stroke-width="1" x1="342.857142857" x2="371.428571429" y1="457.142857142" y2="457.142857142" /></g></svg>
