<svg baseProfile="full" height="600" version="1.1" viewBox="0 0 600 600" width="600" xmlns="http://www.w3.org/2000/svg" xmlns:ev="http://www.w3.org/2001/xml-events" xmlns:xlink="http://www.w3.org/1999/xlink"><defs><style type="text/css"><![CDATA[
    rect { stroke: lightgray; stroke-width: 1; fill: white; }
    polygon { stroke: magenta; stroke-width: 2; fill: white; }
    line { stroke: green; stroke-width: 1; }
    ]]></style></defs><g><rect height="200" width="200" x="200" y="200" /><polygon points="185.359158675,195.542517075 256.100478469,338.364851523 234.765234765,400.0 200.0,400.0 200.0,395.339947696 118.619982716,396.598940413 117.242532896,307.561975673 104.891145842,297.846935099 116.856884965,282.634083009 115.526245154,196.622869874" /><line x1="185.359158675" x2="104.891145842" y1="195.542517075" y2="297.846935099" /><line x1="185.359158675" x2="115.526245154" y1="195.542517075" y2="196.622869874" /><line x1="200.0" x2="200.0" y1="365.079365079" y2="400.0" /><line x1="115.526245154" x2="118.619982716" y1="196.622869874" y2="396.598940413" /><line x1="185.359158675" x2="256.100478469" y1="195.542517075" y2="338.364851523" /><line x1="256.100478469" x2="234.765234765" y1="338.364851523" y2="400.0" /><line x1="200.0" x2="236.57419141" y1="365.079365079" y2="394.774125248" /><line x1="104.891145842" x2="234.765234765" y1="297.846935099" y2="400.0" /><line x1="256.100478469" x2="200.0" y1="338.364851523" y2="365.079365079" /><line x1="236.57419141" x2="118.619982716" y1="394.774125248" y2="396.598940413" /><line x1="200.0" x2="234.765234765" y1="400.0" y2="400.0" /></g></svg>
