<svg baseProfile="full" height="100%" version="1.1" width="100%" xmlns="http://www.w3.org/2000/svg" xmlns:ev="http://www.w3.org/2001/xml-events" xmlns:xlink="http://www.w3.org/1999/xlink"><defs /><g><polygon fill="white" points="200.0,200.0 400.0,200.0 400.0,400.0 200.0,400.0" stroke="lightgray" stroke-width="1" /><polygon fill="white" points="232.501408556,263.030725537 294.09884353,283.628785707 305.176114281,282.62980841 309.335166389,276.268905187 412.22724248,321.119297329 413.258809766,323.475642243 422.17739758,326.458000331 418.88055367,336.317041752 375.820666626,338.254736669 315.173015411,394.603082291 287.404209632,364.715552694 293.041698872,341.979790217 265.561814185,343.216385028 223.483931988,289.997023427" stroke="magenta" stroke-width="2" /><line stroke="green" stroke-width="1" x1="412.22724248" x2="418.88055367" y1="321.119297329" y2="336.317041752" /><line stroke="green" stroke-width="1" x1="320.713337721" x2="365.974049395" y1="281.228620896" y2="339.69981022" /><line stroke="green" stroke-width="1" x1="397.99326316" x2="400.0" y1="314.914742241" y2="337.166666667" /><line stroke="green" stroke-width="1" x1="400.0" x2="400.0" y1="315.789473684" y2="337.166666667" /><line stroke="green" stroke-width="1" x1="232.501408556" x2="223.483931988" y1="263.030725537" y2="289.997023427" /><line stroke="green" stroke-width="1" x1="223.483931988" x2="265.561814185" y1="289.997023427" y2="343.216385028" /><line stroke="green" stroke-width="1" x1="309.335166389" x2="412.22724248" y1="276.268905187" y2="321.119297329" /><line stroke="green" stroke-width="1" x1="309.335166389" x2="287.404209632" y1="276.268905187" y2="364.715552694" /><line stroke="green" stroke-width="1" x1="287.404209632" x2="315.173015411" y1="364.715552694" y2="394.603082291" /><line stroke="green" stroke-width="1" x1="232.501408556" x2="422.17739758" y1="263.030725537" y2="326.458000331" /><line stroke="green" stroke-width="1" x1="309.335166389" x2="265.561814185" y1="276.268905187" y2="343.216385028" /><line stroke="green" stroke-width="1" x1="422.17739758" x2="418.88055367" y1="326.458000331" y2="336.317041752" /><line stroke="green" stroke-width="1" x1="320.713337721" x2="223.483931988" y1="281.228620896" y2="289.997023427" /><line stroke="green" stroke-width="1" x1="418.88055367" x2="265.561814185" y1="336.317041752" y2="343.216385028" /><line stroke="green" stroke-width="1" x1="400.0" x2="315.173015411" y1="315.789473684" y2="394.603082291" /><line stroke="green" stroke-width="1" x1="397.99326316" x2="365.974049395" y1="314.914742241" y2="339.69981022" /><line stroke="green" stroke-width="1" x1="412.22724248" x2="287.404209632" y1="321.119297329" y2="364.715552694" /></g></svg>
