<svg baseProfile="full" height="600" version="1.1" viewBox="0 0 600 600" width="600" xmlns="http://www.w3.org/2000/svg" xmlns:ev="http://www.w3.org/2001/xml-events" xmlns:xlink="http://www.w3.org/1999/xlink"><defs><style type="text/css"><![CDATA[
    rect { stroke: lightgray; stroke-width: 1; fill: white; }
    polygon { stroke: magenta; stroke-width: 2; fill: white; }
    line { stroke: green; stroke-width: 1; }
    ]]></style></defs><g><rect height="200" width="200" x="200" y="200" /><polygon points="381.538461538,210.95890411 306.493506494,396.875 220.289855072,252.777777778" /><line x1="367.365411541" x2="371.752477021" y1="214.634600913" y2="217.584607373" /><line x1="363.39188187" x2="374.601557469" y1="222.431812546" y2="228.144364762" /><line x1="370.921025241" x2="375.01197129" y1="213.712473501" y2="227.127607071" /><line x1="370.921025241" x2="371.752477021" y1="213.712473501" y2="217.584607373" /><line x1="347.334900658" x2="374.601557469" y1="219.8293956" y2="228.144364762" /><line x1="284.133421281" x2="308.405286322" y1="306.027564471" y2="392.138763678" /><line x1="305.937224495" x2="306.493506494" y1="393.551249438" y2="396.875" /><line x1="255.687097709" x2="265.876937189" y1="270.357057709" y2="286.229085527" /><line x1="220.289855072" x2="306.493506494" y1="252.777777778" y2="396.875" /><line x1="249.217647326" x2="346.592277726" y1="245.27552572" y2="297.534451485" /><line x1="220.289855072" x2="255.687097709" y1="252.777777778" y2="270.357057709" /><line x1="249.217647326" x2="231.920089187" y1="245.27552572" y2="272.218768989" /><line x1="332.376909149" x2="304.286571658" y1="293.52761485" y2="393.185908248" /><line x1="332.376909149" x2="346.592277726" y1="293.52761485" y2="297.534451485" /><line x1="381.538461538" x2="220.289855072" y1="210.95890411" y2="252.777777778" /><line x1="381.538461538" x2="306.493506494" y1="210.95890411" y2="396.875" /><line x1="367.365411541" x2="363.39188187" y1="214.634600913" y2="222.431812546" /><line x1="255.687097709" x2="231.920089187" y1="270.357057709" y2="272.218768989" /><line x1="347.334900658" x2="256.76116861" y1="219.8293956" y2="313.74288639" /><line x1="265.876937189" x2="247.398458005" y1="286.229085527" y2="298.092266393" /><line x1="381.538461538" x2="371.752477021" y1="210.95890411" y2="217.584607373" /><line x1="375.01197129" x2="247.398458005" y1="227.127607071" y2="298.092266393" /><line x1="284.133421281" x2="256.76116861" y1="306.027564471" y2="313.74288639" /><line x1="304.286571658" x2="305.937224495" y1="393.185908248" y2="393.551249438" /><line x1="305.937224495" x2="304.889107702" y1="393.551249438" y2="394.193101898" /><line x1="308.405286322" x2="304.889107702" y1="392.138763678" y2="394.193101898" /></g></svg>
