<svg baseProfile="full" height="600" version="1.1" viewBox="0 0 600 600" width="600" xmlns="http://www.w3.org/2000/svg" xmlns:ev="http://www.w3.org/2001/xml-events" xmlns:xlink="http://www.w3.org/1999/xlink"><defs><style type="text/css"><![CDATA[
    rect { stroke: lightgray; stroke-width: 1; fill: white; }
    polygon { stroke: magenta; stroke-width: 2; fill: white; }
    line { stroke: green; stroke-width: 1; }
    ]]></style></defs><g><rect height="200" width="200" x="200" y="200" /><polygon points="330.424127993,101.331497109 395.846168291,290.422361666 225.029921189,355.27064562 166.083333333,200.0 200.0,150.845410628 319.804704581,105.363030389 319.603002688,104.718640317" /><line x1="330.424127993" x2="395.846168291" y1="101.331497109" y2="290.422361666" /><line x1="319.603002688" x2="379.347043183" y1="104.718640317" y2="295.586787543" /><line x1="166.083333333" x2="225.029921189" y1="200.0" y2="355.27064562" /><line x1="200.0" x2="200.0" y1="150.845410628" y2="200.0" /><line x1="200.0" x2="166.083333333" y1="150.845410628" y2="200.0" /><line x1="330.424127993" x2="319.603002688" y1="101.331497109" y2="104.718640317" /><line x1="330.424127993" x2="200.0" y1="101.331497109" y2="150.845410628" /><line x1="166.083333333" x2="200.0" y1="200.0" y2="200.0" /><line x1="395.846168291" x2="379.347043183" y1="290.422361666" y2="295.586787543" /><line x1="395.846168291" x2="225.029921189" y1="290.422361666" y2="355.27064562" /></g></svg>
