<svg baseProfile="full" height="600" version="1.1" viewBox="0 0 600 600" width="600" xmlns="http://www.w3.org/2000/svg" xmlns:ev="http://www.w3.org/2001/xml-events" xmlns:xlink="http://www.w3.org/1999/xlink"><defs><style type="text/css"><![CDATA[
    rect { stroke: lightgray; stroke-width: 1; fill: white; }
    polygon { stroke: magenta; stroke-width: 2; fill: white; }
    line { stroke: green; stroke-width: 1; }
    ]]></style></defs><g><rect height="200" width="200" x="200" y="200" /><polygon points="372.413793103,368.965517241 333.004926108,410.344827586 345.517241379,426.206896552 320.689655172,423.275862068 303.448275862,441.379310344 285.344827586,424.137931034 260.689655172,428.275862068 272.413793103,411.822660098 231.034482759,372.413793103" /><line x1="301.724137931" x2="320.689655172" y1="370.689655172" y2="423.275862068" /><line x1="301.724137931" x2="303.448275862" y1="370.689655172" y2="441.379310344" /><line x1="301.724137931" x2="345.517241379" y1="370.689655172" y2="426.206896552" /><line x1="337.068965517" x2="355.172413793" y1="369.827586207" y2="387.068965517" /><line x1="301.724137931" x2="285.344827586" y1="370.689655172" y2="424.137931034" /><line x1="266.379310345" x2="302.586206897" y1="371.551724138" y2="406.034482758" /><line x1="231.034482759" x2="303.448275862" y1="372.413793103" y2="441.379310344" /><line x1="301.724137931" x2="260.689655172" y1="370.689655172" y2="428.275862068" /><line x1="266.379310345" x2="249.137931034" y1="371.551724138" y2="389.655172414" /><line x1="337.068965517" x2="302.586206897" y1="369.827586207" y2="406.034482758" /><line x1="372.413793103" x2="303.448275862" y1="368.965517241" y2="441.379310344" /><line x1="372.413793103" x2="231.034482759" y1="368.965517241" y2="372.413793103" /><line x1="355.172413793" x2="249.137931034" y1="387.068965517" y2="389.655172414" /><line x1="320.689655172" x2="345.517241379" y1="423.275862068" y2="426.206896552" /><line x1="285.344827586" x2="260.689655172" y1="424.137931034" y2="428.275862068" /></g></svg>
