<svg baseProfile="full" height="100%" version="1.1" width="100%" xmlns="http://www.w3.org/2000/svg" xmlns:ev="http://www.w3.org/2001/xml-events" xmlns:xlink="http://www.w3.org/1999/xlink"><defs /><g><polygon fill="white" points="200.0,200.0 400.0,200.0 400.0,400.0 200.0,400.0" stroke="lightgray" stroke-width="1" /><polygon fill="white" points="275.0,175.0 300.0,200.0 308.333333333,200.0 312.5,187.5 325.0,175.0 425.0,175.0 400.0,200.0 400.0,208.333333333 412.5,212.5 425.0,225.0 425.0,325.0 400.0,300.0 391.666666667,300.0 387.5,312.5 375.0,325.0 275.0,325.0 300.0,300.0 300.0,291.666666667 287.5,287.5 275.0,275.0" stroke="magenta" stroke-width="2" /><line stroke="green" stroke-width="1" x1="412.5" x2="425.0" y1="212.5" y2="225.0" /><line stroke="green" stroke-width="1" x1="375.0" x2="400.0" y1="200.0" y2="225.0" /><line stroke="green" stroke-width="1" x1="350.0" x2="400.0" y1="200.0" y2="250.0" /><line stroke="green" stroke-width="1" x1="312.5" x2="362.5" y1="187.5" y2="237.5" /><line stroke="green" stroke-width="1" x1="400.0" x2="425.0" y1="275.0" y2="300.0" /><line stroke="green" stroke-width="1" x1="375.0" x2="412.5" y1="200.0" y2="212.5" /><line stroke="green" stroke-width="1" x1="275.0" x2="337.5" y1="175.0" y2="237.5" /><line stroke="green" stroke-width="1" x1="362.5" x2="425.0" y1="262.5" y2="325.0" /><line stroke="green" stroke-width="1" x1="312.5" x2="350.0" y1="187.5" y2="200.0" /><line stroke="green" stroke-width="1" x1="275.0" x2="300.0" y1="200.0" y2="225.0" /><line stroke="green" stroke-width="1" x1="337.5" x2="387.5" y1="262.5" y2="312.5" /><line stroke="green" stroke-width="1" x1="325.0" x2="425.0" y1="175.0" y2="175.0" /><line stroke="green" stroke-width="1" x1="300.0" x2="350.0" y1="250.0" y2="300.0" /><line stroke="green" stroke-width="1" x1="362.5" x2="400.0" y1="237.5" y2="250.0" /><line stroke="green" stroke-width="1" x1="300.0" x2="325.0" y1="275.0" y2="300.0" /><line stroke="green" stroke-width="1" x1="300.0" x2="337.5" y1="225.0" y2="237.5" /><line stroke="green" stroke-width="1" x1="275.0" x2="325.0" y1="200.0" y2="200.0" /><line stroke="green" stroke-width="1" x1="275.0" x2="287.5" y1="275.0" y2="287.5" /><line stroke="green" stroke-width="1" x1="275.0" x2="275.0" y1="175.0" y2="275.0" /><line stroke="green" stroke-width="1" x1="300.0" x2="300.0" y1="275.0" y2="325.0" /><line stroke="green" stroke-width="1" x1="325.0" x2="325.0" y1="175.0" y2="200.0" /><line stroke="green" stroke-width="1" x1="375.0" x2="375.0" y1="300.0" y2="325.0" /><line stroke="green" stroke-width="1" x1="400.0" x2="400.0" y1="175.0" y2="225.0" /><line stroke="green" stroke-width="1" x1="425.0" x2="425.0" y1="225.0" y2="325.0" /><line stroke="green" stroke-width="1" x1="362.5" x2="400.0" y1="262.5" y2="275.0" /><line stroke="green" stroke-width="1" x1="300.0" x2="337.5" y1="250.0" y2="262.5" /><line stroke="green" stroke-width="1" x1="400.0" x2="425.0" y1="225.0" y2="225.0" /><line stroke="green" stroke-width="1" x1="312.5" x2="300.0" y1="187.5" y2="225.0" /><line stroke="green" stroke-width="1" x1="300.0" x2="287.5" y1="250.0" y2="287.5" /><line stroke="green" stroke-width="1" x1="350.0" x2="387.5" y1="300.0" y2="312.5" /><line stroke="green" stroke-width="1" x1="350.0" x2="337.5" y1="200.0" y2="237.5" /><line stroke="green" stroke-width="1" x1="337.5" x2="325.0" y1="262.5" y2="300.0" /><line stroke="green" stroke-width="1" x1="325.0" x2="312.5" y1="175.0" y2="187.5" /><line stroke="green" stroke-width="1" x1="287.5" x2="325.0" y1="287.5" y2="300.0" /><line stroke="green" stroke-width="1" x1="375.0" x2="362.5" y1="200.0" y2="237.5" /><line stroke="green" stroke-width="1" x1="362.5" x2="350.0" y1="262.5" y2="300.0" /><line stroke="green" stroke-width="1" x1="325.0" x2="300.0" y1="200.0" y2="225.0" /><line stroke="green" stroke-width="1" x1="412.5" x2="400.0" y1="212.5" y2="250.0" /><line stroke="green" stroke-width="1" x1="400.0" x2="387.5" y1="275.0" y2="312.5" /><line stroke="green" stroke-width="1" x1="275.0" x2="300.0" y1="275.0" y2="275.0" /><line stroke="green" stroke-width="1" x1="350.0" x2="300.0" y1="200.0" y2="250.0" /><line stroke="green" stroke-width="1" x1="400.0" x2="375.0" y1="175.0" y2="200.0" /><line stroke="green" stroke-width="1" x1="337.5" x2="287.5" y1="237.5" y2="287.5" /><line stroke="green" stroke-width="1" x1="375.0" x2="425.0" y1="300.0" y2="300.0" /><line stroke="green" stroke-width="1" x1="425.0" x2="362.5" y1="175.0" y2="237.5" /><line stroke="green" stroke-width="1" x1="337.5" x2="275.0" y1="262.5" y2="325.0" /><line stroke="green" stroke-width="1" x1="412.5" x2="362.5" y1="212.5" y2="262.5" /><line stroke="green" stroke-width="1" x1="325.0" x2="300.0" y1="300.0" y2="325.0" /><line stroke="green" stroke-width="1" x1="275.0" x2="375.0" y1="325.0" y2="325.0" /><line stroke="green" stroke-width="1" x1="400.0" x2="350.0" y1="250.0" y2="300.0" /><line stroke="green" stroke-width="1" x1="400.0" x2="375.0" y1="275.0" y2="300.0" /><line stroke="green" stroke-width="1" x1="387.5" x2="375.0" y1="312.5" y2="325.0" /></g></svg>
