<svg baseProfile="full" height="600" version="1.1" viewBox="0 0 600 600" width="600" xmlns="http://www.w3.org/2000/svg" xmlns:ev="http://www.w3.org/2001/xml-events" xmlns:xlink="http://www.w3.org/1999/xlink"><defs><style type="text/css"><![CDATA[
    rect { stroke: lightgray; stroke-width: 1; fill: white; }
    polygon { stroke: magenta; stroke-width: 2; fill: white; }
    line { stroke: green; stroke-width: 1; }
    ]]></style></defs><g><rect height="200" width="200" x="200" y="200" /><polygon points="225.714285714,200.0 257.142857143,205.714285714 271.428571429,234.285714286 257.142857143,262.857142857 225.714285714,268.571428571 207.873583135,252.036143254 205.6,253.485714286 205.189255189,249.548229548 202.285714286,246.857142857 204.809520992,245.908018968 202.285714286,221.714285714" /><polygon points="240.0,210.714285714 219.428571429,216.714285714 211.885714286,236.771428571 215.21581907,241.994539349 215.657142857,241.828571429 216.443987667,243.920863309 217.645714286,245.805714286 217.248145677,246.059192564 219.428571429,251.857142857 240.0,257.857142857 257.142857143,245.0 257.142857143,223.571428571" /><line x1="257.142857143" x2="271.428571429" y1="205.714285714" y2="234.285714286" /><line x1="225.714285714" x2="271.428571429" y1="200.0" y2="234.285714286" /><line x1="225.714285714" x2="257.142857143" y1="200.0" y2="205.714285714" /><line x1="202.285714286" x2="205.6" y1="221.714285714" y2="253.485714286" /><line x1="257.142857143" x2="257.142857143" y1="205.714285714" y2="262.857142857" /><line x1="215.657142857" x2="225.714285714" y1="241.828571429" y2="268.571428571" /><line x1="202.285714286" x2="217.645714286" y1="221.714285714" y2="245.805714286" /><line x1="225.714285714" x2="205.6" y1="200.0" y2="253.485714286" /><line x1="225.714285714" x2="202.285714286" y1="200.0" y2="221.714285714" /><line x1="257.142857143" x2="202.285714286" y1="205.714285714" y2="221.714285714" /><line x1="202.285714286" x2="225.714285714" y1="246.857142857" y2="268.571428571" /><line x1="271.428571429" x2="257.142857143" y1="234.285714286" y2="262.857142857" /><line x1="217.645714286" x2="205.6" y1="245.805714286" y2="253.485714286" /><line x1="215.657142857" x2="202.285714286" y1="241.828571429" y2="246.857142857" /><line x1="202.285714286" x2="257.142857143" y1="246.857142857" y2="262.857142857" /><line x1="271.428571429" x2="225.714285714" y1="234.285714286" y2="268.571428571" /><line x1="257.142857143" x2="225.714285714" y1="262.857142857" y2="268.571428571" /></g></svg>
