<svg baseProfile="full" height="600" version="1.1" viewBox="0 0 600 600" width="600" xmlns="http://www.w3.org/2000/svg" xmlns:ev="http://www.w3.org/2001/xml-events" xmlns:xlink="http://www.w3.org/1999/xlink"><defs><style type="text/css"><![CDATA[
    rect { stroke: lightgray; stroke-width: 1; fill: white; }
    polygon { stroke: magenta; stroke-width: 2; fill: white; }
    line { stroke: green; stroke-width: 1; }
    ]]></style></defs><g><rect height="200" width="200" x="200" y="200" /><polygon points="258.771987807,93.2596516896 279.963928717,110.577336494 319.929273331,112.242037622 318.680747486,142.216046083 372.884293762,186.510239507 316.073671668,256.030349155 313.356439301,270.039478095 250.194993404,262.640904236 246.564270214,254.55457543 217.089823937,126.340734126" /><line x1="242.134974964" x2="255.889353358" y1="106.463630137" y2="110.10759893" /><line x1="258.771987807" x2="372.884293762" y1="93.2596516896" y2="186.510239507" /><line x1="239.096569319" x2="319.929273331" y1="108.875063188" y2="112.242037622" /><line x1="217.089823937" x2="264.025836187" y1="126.340734126" y2="149.305919038" /><line x1="258.771987807" x2="281.951417201" y1="93.2596516896" y2="140.51274328" /><line x1="258.771987807" x2="217.089823937" y1="93.2596516896" y2="126.340734126" /><line x1="282.098130255" x2="305.388379972" y1="221.126866608" y2="269.106119547" /><line x1="281.951417201" x2="264.025836187" y1="140.51274328" y2="149.305919038" /><line x1="255.889353358" x2="264.025836187" y1="110.10759893" y2="149.305919038" /><line x1="255.889353358" x2="234.196113796" y1="110.10759893" y2="134.710620934" /><line x1="246.564270214" x2="250.194993404" y1="254.55457543" y2="262.640904236" /><line x1="217.089823937" x2="246.564270214" y1="126.340734126" y2="254.55457543" /><line x1="242.134974964" x2="246.564270214" y1="106.463630137" y2="254.55457543" /><line x1="239.096569319" x2="234.196113796" y1="108.875063188" y2="134.710620934" /><line x1="319.929273331" x2="313.356439301" y1="112.242037622" y2="270.039478095" /><line x1="282.098130255" x2="321.366294391" y1="221.126866608" y2="228.7433806" /><line x1="321.366294391" x2="313.356439301" y1="228.7433806" y2="270.039478095" /><line x1="282.098130255" x2="250.194993404" y1="221.126866608" y2="262.640904236" /><line x1="250.194993404" x2="313.356439301" y1="262.640904236" y2="270.039478095" /><line x1="372.884293762" x2="305.388379972" y1="186.510239507" y2="269.106119547" /></g></svg>
