<svg baseProfile="full" height="100%" version="1.1" width="100%" xmlns="http://www.w3.org/2000/svg" xmlns:ev="http://www.w3.org/2001/xml-events" xmlns:xlink="http://www.w3.org/1999/xlink"><defs /><g><polygon fill="white" points="200.0,200.0 400.0,200.0 400.0,400.0 200.0,400.0" stroke="lightgray" stroke-width="1" /><polygon fill="white" points="325.0,200.0 375.0,200.0 375.0,225.0 400.0,225.0 400.0,275.0 375.0,275.0 350.0,300.0 325.0,275.0 300.0,275.0 300.0,225.0 325.0,225.0" stroke="magenta" stroke-width="2" /><line stroke="green" stroke-width="1" x1="350.0" x2="400.0" y1="200.0" y2="250.0" /><line stroke="green" stroke-width="1" x1="325.0" x2="375.0" y1="225.0" y2="275.0" /><line stroke="green" stroke-width="1" x1="300.0" x2="350.0" y1="250.0" y2="300.0" /><line stroke="green" stroke-width="1" x1="325.0" x2="375.0" y1="200.0" y2="200.0" /><line stroke="green" stroke-width="1" x1="300.0" x2="300.0" y1="225.0" y2="275.0" /><line stroke="green" stroke-width="1" x1="325.0" x2="325.0" y1="200.0" y2="275.0" /><line stroke="green" stroke-width="1" x1="350.0" x2="350.0" y1="200.0" y2="300.0" /><line stroke="green" stroke-width="1" x1="375.0" x2="375.0" y1="200.0" y2="275.0" /><line stroke="green" stroke-width="1" x1="400.0" x2="400.0" y1="225.0" y2="275.0" /><line stroke="green" stroke-width="1" x1="300.0" x2="400.0" y1="225.0" y2="225.0" /><line stroke="green" stroke-width="1" x1="300.0" x2="400.0" y1="250.0" y2="250.0" /><line stroke="green" stroke-width="1" x1="300.0" x2="325.0" y1="275.0" y2="275.0" /><line stroke="green" stroke-width="1" x1="375.0" x2="400.0" y1="275.0" y2="275.0" /><line stroke="green" stroke-width="1" x1="350.0" x2="300.0" y1="200.0" y2="250.0" /><line stroke="green" stroke-width="1" x1="375.0" x2="325.0" y1="225.0" y2="275.0" /><line stroke="green" stroke-width="1" x1="400.0" x2="350.0" y1="250.0" y2="300.0" /></g></svg>
