<svg baseProfile="full" height="100%" version="1.1" width="100%" xmlns="http://www.w3.org/2000/svg" xmlns:ev="http://www.w3.org/2001/xml-events" xmlns:xlink="http://www.w3.org/1999/xlink"><defs /><g><polygon fill="white" points="200.0,200.0 400.0,200.0 400.0,400.0 200.0,400.0" stroke="lightgray" stroke-width="1" /><polygon fill="white" points="342.222426289,338.928055419 364.226079602,377.169869271 418.452866762,400.0 405.984890388,461.746168708 189.843787021,475.12434145 168.869792497,438.67204951 216.801831238,411.09281472 233.816621879,370.67879162 305.511584769,360.05081473" stroke="magenta" stroke-width="2" /><line stroke="green" stroke-width="1" x1="342.222426289" x2="168.869792497" y1="338.928055419" y2="438.67204951" /><line stroke="green" stroke-width="1" x1="318.863264277" x2="262.315702573" y1="358.071577479" y2="405.011239798" /><line stroke="green" stroke-width="1" x1="233.816621879" x2="189.843787021" y1="370.67879162" y2="475.12434145" /><line stroke="green" stroke-width="1" x1="318.863264277" x2="233.816621879" y1="358.071577479" y2="370.67879162" /><line stroke="green" stroke-width="1" x1="318.863264277" x2="418.452866762" y1="358.071577479" y2="400.0" /><line stroke="green" stroke-width="1" x1="400.0" x2="418.452866762" y1="400.0" y2="400.0" /><line stroke="green" stroke-width="1" x1="400.0" x2="400.0" y1="400.0" y2="462.116606798" /><line stroke="green" stroke-width="1" x1="396.390583747" x2="400.0" y1="433.070994536" y2="462.116606798" /><line stroke="green" stroke-width="1" x1="418.452866762" x2="405.984890388" y1="400.0" y2="461.746168708" /><line stroke="green" stroke-width="1" x1="396.390583747" x2="405.984890388" y1="433.070994536" y2="461.746168708" /><line stroke="green" stroke-width="1" x1="342.222426289" x2="396.390583747" y1="338.928055419" y2="433.070994536" /><line stroke="green" stroke-width="1" x1="405.984890388" x2="189.843787021" y1="461.746168708" y2="475.12434145" /><line stroke="green" stroke-width="1" x1="233.816621879" x2="262.315702573" y1="370.67879162" y2="405.011239798" /><line stroke="green" stroke-width="1" x1="168.869792497" x2="189.843787021" y1="438.67204951" y2="475.12434145" /></g></svg>
