<svg baseProfile="full" height="600" version="1.1" viewBox="0 0 600 600" width="600" xmlns="http://www.w3.org/2000/svg" xmlns:ev="http://www.w3.org/2001/xml-events" xmlns:xlink="http://www.w3.org/1999/xlink"><defs><style type="text/css"><![CDATA[
    rect { stroke: lightgray; stroke-width: 1; fill: white; }
    polygon { stroke: magenta; stroke-width: 2; fill: white; }
    line { stroke: green; stroke-width: 1; }
    ]]></style></defs><g><rect height="200" width="200" x="200" y="200" /><polygon points="342.857142857,314.285714286 371.428571429,314.285714286 409.523809524,371.428571429 428.571428572,371.428571429 428.571428572,400.0 371.428571429,438.095238096 371.428571429,457.142857142 342.857142857,457.142857142 304.761904762,400.0 285.714285714,400.0 285.714285714,371.428571429 342.857142857,333.333333333" /><line x1="371.428571429" x2="428.571428572" y1="314.285714286" y2="400.0" /><line x1="285.714285714" x2="285.714285714" y1="371.428571429" y2="400.0" /><line x1="342.857142857" x2="342.857142857" y1="314.285714286" y2="457.142857142" /><line x1="371.428571429" x2="371.428571429" y1="314.285714286" y2="457.142857142" /><line x1="428.571428572" x2="428.571428572" y1="371.428571429" y2="400.0" /><line x1="285.714285714" x2="342.857142857" y1="371.428571429" y2="457.142857142" /><line x1="342.857142857" x2="371.428571429" y1="314.285714286" y2="314.285714286" /><line x1="371.428571429" x2="285.714285714" y1="314.285714286" y2="371.428571429" /><line x1="285.714285714" x2="428.571428572" y1="371.428571429" y2="371.428571429" /><line x1="285.714285714" x2="428.571428572" y1="400.0" y2="400.0" /><line x1="428.571428572" x2="342.857142857" y1="400.0" y2="457.142857142" /><line x1="342.857142857" x2="371.428571429" y1="457.142857142" y2="457.142857142" /></g></svg>
