<svg baseProfile="full" height="100%" version="1.1" width="100%" xmlns="http://www.w3.org/2000/svg" xmlns:ev="http://www.w3.org/2001/xml-events" xmlns:xlink="http://www.w3.org/1999/xlink"><defs /><g><polygon fill="white" points="200.0,200.0 400.0,200.0 400.0,400.0 200.0,400.0" stroke="lightgray" stroke-width="1" /><polygon fill="white" points="400.0,272.99408284 418.936737748,278.019601704 408.172294552,482.08596101 396.845970037,483.844174528 396.074660241,478.875434982 375.589948464,473.439107624 289.247954547,358.187963958 367.94308907,297.653245094 366.166910893,286.211193146 387.027462488,282.97295785" stroke="magenta" stroke-width="2" /><line stroke="green" stroke-width="1" x1="366.166910893" x2="396.845970037" y1="286.211193146" y2="483.844174528" /><line stroke="green" stroke-width="1" x1="400.0" x2="400.0" y1="272.99408284" y2="400.0" /><line stroke="green" stroke-width="1" x1="379.531392397" x2="375.589948464" y1="318.661458944" y2="473.439107624" /><line stroke="green" stroke-width="1" x1="418.936737748" x2="408.172294552" y1="278.019601704" y2="482.08596101" /><line stroke="green" stroke-width="1" x1="289.247954547" x2="375.589948464" y1="358.187963958" y2="473.439107624" /><line stroke="green" stroke-width="1" x1="400.0" x2="418.936737748" y1="272.99408284" y2="278.019601704" /><line stroke="green" stroke-width="1" x1="344.650392625" x2="320.572021681" y1="317.773207274" y2="400.0" /><line stroke="green" stroke-width="1" x1="418.936737748" x2="366.166910893" y1="278.019601704" y2="286.211193146" /><line stroke="green" stroke-width="1" x1="344.650392625" x2="379.531392397" y1="317.773207274" y2="318.661458944" /><line stroke="green" stroke-width="1" x1="400.0" x2="289.247954547" y1="272.99408284" y2="358.187963958" /><line stroke="green" stroke-width="1" x1="344.650392625" x2="289.247954547" y1="317.773207274" y2="358.187963958" /><line stroke="green" stroke-width="1" x1="320.572021681" x2="400.0" y1="400.0" y2="400.0" /><line stroke="green" stroke-width="1" x1="375.589948464" x2="408.172294552" y1="473.439107624" y2="482.08596101" /><line stroke="green" stroke-width="1" x1="408.172294552" x2="396.845970037" y1="482.08596101" y2="483.844174528" /></g></svg>
