<svg baseProfile="full" height="600" version="1.1" viewBox="0 0 600 600" width="600" xmlns="http://www.w3.org/2000/svg" xmlns:ev="http://www.w3.org/2001/xml-events" xmlns:xlink="http://www.w3.org/1999/xlink"><defs><style type="text/css"><![CDATA[
    rect { stroke: lightgray; stroke-width: 1; fill: white; }
    polygon { stroke: magenta; stroke-width: 2; fill: white; }
    line { stroke: green; stroke-width: 1; }
    ]]></style></defs><g><rect height="200" width="200" x="200" y="200" /><polygon points="311.111111111,200.0 333.333333333,200.0 333.333333333,222.222222222 322.222222222,233.333333333 333.333333333,244.444444444 333.333333333,288.888888889 322.222222222,300.0 333.333333333,311.111111111 333.333333333,355.555555556 322.222222222,366.666666667 333.333333333,377.777777778 333.333333333,400.0 311.111111111,400.0 300.0,388.888888889 300.0,344.444444444 311.111111111,333.333333333 300.0,322.222222222 300.0,277.777777778 311.111111111,266.666666667 300.0,255.555555556 300.0,211.111111111" /><line x1="300.0" x2="333.333333333" y1="211.111111111" y2="244.444444444" /><line x1="300.0" x2="333.333333333" y1="255.555555556" y2="288.888888889" /><line x1="300.0" x2="333.333333333" y1="277.777777778" y2="311.111111111" /><line x1="311.111111111" x2="333.333333333" y1="200.0" y2="200.0" /><line x1="300.0" x2="300.0" y1="211.111111111" y2="255.555555556" /><line x1="300.0" x2="300.0" y1="277.777777778" y2="322.222222222" /><line x1="300.0" x2="300.0" y1="344.444444444" y2="388.888888889" /><line x1="311.111111111" x2="311.111111111" y1="200.0" y2="400.0" /><line x1="333.333333333" x2="333.333333333" y1="200.0" y2="222.222222222" /><line x1="333.333333333" x2="333.333333333" y1="244.444444444" y2="288.888888889" /><line x1="333.333333333" x2="333.333333333" y1="311.111111111" y2="355.555555556" /><line x1="333.333333333" x2="333.333333333" y1="377.777777778" y2="400.0" /><line x1="300.0" x2="333.333333333" y1="322.222222222" y2="355.555555556" /><line x1="300.0" x2="333.333333333" y1="344.444444444" y2="377.777777778" /><line x1="300.0" x2="333.333333333" y1="222.222222222" y2="222.222222222" /><line x1="300.0" x2="311.111111111" y1="388.888888889" y2="400.0" /><line x1="300.0" x2="333.333333333" y1="244.444444444" y2="244.444444444" /><line x1="311.111111111" x2="300.0" y1="200.0" y2="211.111111111" /><line x1="311.111111111" x2="333.333333333" y1="266.666666667" y2="266.666666667" /><line x1="333.333333333" x2="300.0" y1="222.222222222" y2="255.555555556" /><line x1="300.0" x2="333.333333333" y1="288.888888889" y2="288.888888889" /><line x1="333.333333333" x2="300.0" y1="244.444444444" y2="277.777777778" /><line x1="300.0" x2="333.333333333" y1="311.111111111" y2="311.111111111" /><line x1="333.333333333" x2="300.0" y1="288.888888889" y2="322.222222222" /><line x1="333.333333333" x2="300.0" y1="311.111111111" y2="344.444444444" /><line x1="311.111111111" x2="333.333333333" y1="333.333333333" y2="333.333333333" /><line x1="333.333333333" x2="300.0" y1="355.555555556" y2="388.888888889" /><line x1="300.0" x2="333.333333333" y1="355.555555556" y2="355.555555556" /><line x1="300.0" x2="333.333333333" y1="377.777777778" y2="377.777777778" /><line x1="311.111111111" x2="333.333333333" y1="400.0" y2="400.0" /></g></svg>
