<svg baseProfile="full" height="100%" version="1.1" width="100%" xmlns="http://www.w3.org/2000/svg" xmlns:ev="http://www.w3.org/2001/xml-events" xmlns:xlink="http://www.w3.org/1999/xlink"><defs /><g><polygon fill="white" points="200.0,200.0 400.0,200.0 400.0,400.0 200.0,400.0" stroke="lightgray" stroke-width="1" /><polygon fill="white" points="283.533634662,197.763424037 284.569280249,200.0 297.492784993,200.0 300.588802207,218.337948115 318.535639534,226.939918076 307.604378478,249.746503644 369.714363798,383.878973168 356.353893882,394.186782603 351.413331626,387.783071533 329.968771831,392.357768197 331.259018759,400.0 327.946674914,401.15126951 326.057451593,416.26792263 295.457203684,412.443616976 273.049357674,200.0" stroke="magenta" stroke-width="2" /><line stroke="green" stroke-width="1" x1="283.533634662" x2="369.714363798" y1="197.763424037" y2="383.878973168" /><line stroke="green" stroke-width="1" x1="273.620177374" x2="318.535639534" y1="205.411809851" y2="226.939918076" /><line stroke="green" stroke-width="1" x1="276.218120731" x2="303.388107258" y1="230.04231129" y2="256.999194563" /><line stroke="green" stroke-width="1" x1="297.492784993" x2="331.259018759" y1="200.0" y2="400.0" /><line stroke="green" stroke-width="1" x1="273.049357674" x2="295.457203684" y1="200.0" y2="412.443616976" /><line stroke="green" stroke-width="1" x1="283.582723539" x2="356.353893882" y1="299.864410992" y2="394.186782603" /><line stroke="green" stroke-width="1" x1="273.913775226" x2="289.251742206" y1="208.195343325" y2="210.112225633" /><line stroke="green" stroke-width="1" x1="273.049357674" x2="297.492784993" y1="200.0" y2="200.0" /><line stroke="green" stroke-width="1" x1="283.533634662" x2="273.049357674" y1="197.763424037" y2="200.0" /><line stroke="green" stroke-width="1" x1="281.399104978" x2="338.523628803" y1="279.162027321" y2="316.519589817" /><line stroke="green" stroke-width="1" x1="338.523628803" x2="326.057451593" y1="316.519589817" y2="416.26792263" /><line stroke="green" stroke-width="1" x1="297.492784993" x2="273.913775226" y1="200.0" y2="208.195343325" /><line stroke="green" stroke-width="1" x1="283.533634662" x2="273.620177374" y1="197.763424037" y2="205.411809851" /><line stroke="green" stroke-width="1" x1="289.251742206" x2="276.218120731" y1="210.112225633" y2="230.04231129" /><line stroke="green" stroke-width="1" x1="318.535639534" x2="283.582723539" y1="226.939918076" y2="299.864410992" /><line stroke="green" stroke-width="1" x1="303.388107258" x2="281.399104978" y1="256.999194563" y2="279.162027321" /><line stroke="green" stroke-width="1" x1="369.714363798" x2="356.353893882" y1="383.878973168" y2="394.186782603" /><line stroke="green" stroke-width="1" x1="295.457203684" x2="326.057451593" y1="412.443616976" y2="416.26792263" /><line stroke="green" stroke-width="1" x1="294.14469236" x2="331.259018759" y1="400.0" y2="400.0" /><line stroke="green" stroke-width="1" x1="369.714363798" x2="294.14469236" y1="383.878973168" y2="400.0" /><line stroke="green" stroke-width="1" x1="331.259018759" x2="295.457203684" y1="400.0" y2="412.443616976" /></g></svg>
