<svg baseProfile="full" height="600" version="1.1" viewBox="0 0 600 600" width="600" xmlns="http://www.w3.org/2000/svg" xmlns:ev="http://www.w3.org/2001/xml-events" xmlns:xlink="http://www.w3.org/1999/xlink"><defs><style type="text/css"><![CDATA[
    rect { stroke: lightgray; stroke-width: 1; fill: white; }
    polygon { stroke: magenta; stroke-width: 2; fill: white; }
    line { stroke: green; stroke-width: 1; }
    ]]></style></defs><g><rect height="200" width="200" x="200" y="200" /><polygon points="409.483151182,311.721419089 411.811492932,313.846837664 410.514713822,319.157634661 413.681340962,341.984868924 404.63436267,343.239878912 392.80726073,391.676298839 416.370578528,414.688327346 410.274147846,420.9308076 334.021772587,425.377252188 328.670132078,354.245030428" /><line x1="409.483151182" x2="411.811492932" y1="311.721419089" y2="313.846837664" /><line x1="409.483151182" x2="413.681340962" y1="311.721419089" y2="341.984868924" /><line x1="355.809755104" x2="361.652688055" y1="363.668510646" y2="395.544614231" /><line x1="332.456854934" x2="332.689577618" y1="404.576888388" y2="405.803753938" /><line x1="328.670132078" x2="334.021772587" y1="354.245030428" y2="425.377252188" /><line x1="375.786002671" x2="403.021812034" y1="329.789059529" y2="349.843878794" /><line x1="391.222258738" x2="416.370578528" y1="390.128379683" y2="414.688327346" /><line x1="334.447171398" x2="332.456854934" y1="351.205166587" y2="404.576888388" /><line x1="349.693169264" x2="356.376933694" y1="361.544696118" y2="366.762751779" /><line x1="331.368514576" x2="364.805569901" y1="390.111031127" y2="423.582180908" /><line x1="328.717850285" x2="410.274147846" y1="354.87928493" y2="420.9308076" /><line x1="334.447171398" x2="393.54629391" y1="351.205166587" y2="388.649680682" /><line x1="411.811492932" x2="385.742648281" y1="313.846837664" y2="420.60853743" /><line x1="332.689577618" x2="346.086365812" y1="405.803753938" y2="415.999040002" /><line x1="330.306293296" x2="361.652688055" y1="375.992339946" y2="395.544614231" /><line x1="331.018652884" x2="385.742648281" y1="385.460786132" y2="420.60853743" /><line x1="328.670132078" x2="355.809755104" y1="354.245030428" y2="363.668510646" /><line x1="356.376933694" x2="332.689577618" y1="366.762751779" y2="405.803753938" /><line x1="375.786002671" x2="331.368514576" y1="329.789059529" y2="390.111031127" /><line x1="329.876098026" x2="328.717850285" y1="353.610454121" y2="354.87928493" /><line x1="361.652688055" x2="346.086365812" y1="395.544614231" y2="415.999040002" /><line x1="411.811492932" x2="398.886287011" y1="313.846837664" y2="317.29746288" /><line x1="329.210800003" x2="349.693169264" y1="361.431408262" y2="361.544696118" /><line x1="398.886287011" x2="330.306293296" y1="317.29746288" y2="375.992339946" /><line x1="391.222258738" x2="364.805569901" y1="390.128379683" y2="423.582180908" /><line x1="413.681340962" x2="329.876098026" y1="341.984868924" y2="353.610454121" /><line x1="355.809755104" x2="331.018652884" y1="363.668510646" y2="385.460786132" /><line x1="409.483151182" x2="328.670132078" y1="311.721419089" y2="354.245030428" /><line x1="403.021812034" x2="329.210800003" y1="349.843878794" y2="361.431408262" /><line x1="391.222258738" x2="331.658897869" y1="390.128379683" y2="393.970709065" /><line x1="393.54629391" x2="331.658897869" y1="388.649680682" y2="393.970709065" /><line x1="416.370578528" x2="410.274147846" y1="414.688327346" y2="420.9308076" /><line x1="410.274147846" x2="334.021772587" y1="420.9308076" y2="425.377252188" /><line x1="385.742648281" x2="334.021772587" y1="420.60853743" y2="425.377252188" /></g></svg>
