<svg baseProfile="full" height="100%" version="1.1" width="100%" xmlns="http://www.w3.org/2000/svg" xmlns:ev="http://www.w3.org/2001/xml-events" xmlns:xlink="http://www.w3.org/1999/xlink"><defs /><g><polygon fill="white" points="200.0,200.0 400.0,200.0 400.0,400.0 200.0,400.0" stroke="lightgray" stroke-width="1" /><polygon fill="white" points="200.0,200.0 250.0,250.0 300.0,200.0 300.0,250.0 275.0,275.0 275.0,300.0 225.0,300.0 225.0,275.0 200.0,250.0" stroke="magenta" stroke-width="2" /><line stroke="green" stroke-width="1" x1="200.0" x2="275.0" y1="200.0" y2="275.0" /><line stroke="green" stroke-width="1" x1="200.0" x2="200.0" y1="200.0" y2="250.0" /><line stroke="green" stroke-width="1" x1="225.0" x2="225.0" y1="275.0" y2="300.0" /><line stroke="green" stroke-width="1" x1="250.0" x2="250.0" y1="250.0" y2="300.0" /><line stroke="green" stroke-width="1" x1="275.0" x2="275.0" y1="275.0" y2="300.0" /><line stroke="green" stroke-width="1" x1="300.0" x2="300.0" y1="200.0" y2="250.0" /><line stroke="green" stroke-width="1" x1="200.0" x2="250.0" y1="250.0" y2="300.0" /><line stroke="green" stroke-width="1" x1="200.0" x2="300.0" y1="250.0" y2="250.0" /><line stroke="green" stroke-width="1" x1="300.0" x2="225.0" y1="200.0" y2="275.0" /><line stroke="green" stroke-width="1" x1="225.0" x2="275.0" y1="275.0" y2="275.0" /><line stroke="green" stroke-width="1" x1="300.0" x2="250.0" y1="250.0" y2="300.0" /><line stroke="green" stroke-width="1" x1="225.0" x2="275.0" y1="300.0" y2="300.0" /></g></svg>
