<svg baseProfile="full" height="100%" version="1.1" width="100%" xmlns="http://www.w3.org/2000/svg" xmlns:ev="http://www.w3.org/2001/xml-events" xmlns:xlink="http://www.w3.org/1999/xlink"><defs /><g><polygon fill="white" points="200.0,200.0 400.0,200.0 400.0,400.0 200.0,400.0" stroke="lightgray" stroke-width="1" /><polygon fill="white" points="394.805208288,197.22227531 396.325539863,197.791591918 395.505771415,199.980742624 395.510662177,200.0 395.487323492,200.030006881 390.126523729,214.345754973 387.566170097,237.614142407 373.455392834,244.774351965 415.542622006,340.960399859 232.315235683,421.133493232 223.06805075,400.0 300.308914228,281.890954787" stroke="magenta" stroke-width="2" /><line stroke="green" stroke-width="1" x1="394.805208288" x2="396.325539863" y1="197.22227531" y2="197.791591918" /><line stroke="green" stroke-width="1" x1="364.521381255" x2="415.542622006" y1="224.356584331" y2="340.960399859" /><line stroke="green" stroke-width="1" x1="364.521381255" x2="387.566170097" y1="224.356584331" y2="237.614142407" /><line stroke="green" stroke-width="1" x1="394.805208288" x2="395.510662177" y1="197.22227531" y2="200.0" /><line stroke="green" stroke-width="1" x1="353.65655973" x2="374.202534745" y1="234.091464417" y2="358.43854343" /><line stroke="green" stroke-width="1" x1="353.65655973" x2="379.969810164" y1="234.091464417" y2="241.468751405" /><line stroke="green" stroke-width="1" x1="391.705069124" x2="395.510662177" y1="200.0" y2="200.0" /><line stroke="green" stroke-width="1" x1="235.231511779" x2="239.955106622" y1="381.400845305" y2="400.0" /><line stroke="green" stroke-width="1" x1="391.705069124" x2="387.566170097" y1="200.0" y2="237.614142407" /><line stroke="green" stroke-width="1" x1="223.06805075" x2="232.315235683" y1="400.0" y2="421.133493232" /><line stroke="green" stroke-width="1" x1="396.325539863" x2="379.969810164" y1="197.791591918" y2="241.468751405" /><line stroke="green" stroke-width="1" x1="300.308914228" x2="223.06805075" y1="281.890954787" y2="400.0" /><line stroke="green" stroke-width="1" x1="395.510662177" x2="239.955106622" y1="200.0" y2="400.0" /><line stroke="green" stroke-width="1" x1="394.805208288" x2="300.308914228" y1="197.22227531" y2="281.890954787" /><line stroke="green" stroke-width="1" x1="387.566170097" x2="300.308914228" y1="237.614142407" y2="281.890954787" /><line stroke="green" stroke-width="1" x1="374.202534745" x2="235.231511779" y1="358.43854343" y2="381.400845305" /><line stroke="green" stroke-width="1" x1="415.542622006" x2="232.315235683" y1="340.960399859" y2="421.133493232" /><line stroke="green" stroke-width="1" x1="223.06805075" x2="239.955106622" y1="400.0" y2="400.0" /></g></svg>
