<svg baseProfile="full" height="100%" version="1.1" width="100%" xmlns="http://www.w3.org/2000/svg" xmlns:ev="http://www.w3.org/2001/xml-events" xmlns:xlink="http://www.w3.org/1999/xlink"><defs /><g><polygon fill="white" points="200.0,200.0 400.0,200.0 400.0,400.0 200.0,400.0" stroke="lightgray" stroke-width="1" /><polygon fill="white" points="314.617901619,317.899514239 339.624919094,328.29086272 336.343068693,347.972604827 348.020607248,364.137252657 343.15883585,374.761498531 331.964868771,374.229317118 322.309563162,432.13361249 237.713066818,473.892423138 220.3798086,466.034110358 244.03786546,413.850999304 241.611621671,410.142896038 251.22688344,397.994019761 251.389055079,397.636314111 251.505919147,397.641458348 253.91413537,394.598678895 256.513421638,392.897943584 257.033503772,390.65735918" stroke="magenta" stroke-width="2" /><line stroke="green" stroke-width="1" x1="323.609531862" x2="310.374371332" y1="321.635871977" y2="323.261211681" /><line stroke="green" stroke-width="1" x1="314.617901619" x2="257.033503772" y1="317.899514239" y2="390.65735918" /><line stroke="green" stroke-width="1" x1="253.91413537" x2="241.611621671" y1="394.598678895" y2="410.142896038" /><line stroke="green" stroke-width="1" x1="337.710859111" x2="253.91413537" y1="339.769763451" y2="394.598678895" /><line stroke="green" stroke-width="1" x1="338.154490913" x2="257.033503772" y1="350.480068375" y2="390.65735918" /><line stroke="green" stroke-width="1" x1="251.389055079" x2="220.3798086" y1="397.636314111" y2="466.034110358" /><line stroke="green" stroke-width="1" x1="338.154490913" x2="334.643383709" y1="350.480068375" y2="354.033280714" /><line stroke="green" stroke-width="1" x1="339.624919094" x2="330.22294064" y1="328.29086272" y2="341.393104265" /><line stroke="green" stroke-width="1" x1="253.91413537" x2="247.507916313" y1="394.598678895" y2="412.279300308" /><line stroke="green" stroke-width="1" x1="348.020607248" x2="315.268450257" y1="364.137252657" y2="367.74095263" /><line stroke="green" stroke-width="1" x1="314.617901619" x2="339.624919094" y1="317.899514239" y2="328.29086272" /><line stroke="green" stroke-width="1" x1="257.033503772" x2="237.713066818" y1="390.65735918" y2="473.892423138" /><line stroke="green" stroke-width="1" x1="348.020607248" x2="343.15883585" y1="364.137252657" y2="374.761498531" /><line stroke="green" stroke-width="1" x1="272.281244502" x2="343.15883585" y1="371.39184982" y2="374.761498531" /><line stroke="green" stroke-width="1" x1="339.624919094" x2="322.309563162" y1="328.29086272" y2="432.13361249" /><line stroke="green" stroke-width="1" x1="307.358519259" x2="330.22294064" y1="327.071738589" y2="341.393104265" /><line stroke="green" stroke-width="1" x1="322.309563162" x2="237.713066818" y1="432.13361249" y2="473.892423138" /><line stroke="green" stroke-width="1" x1="309.458020711" x2="331.559754508" y1="324.419020026" y2="341.351295987" /><line stroke="green" stroke-width="1" x1="309.458020711" x2="330.22294064" y1="324.419020026" y2="341.393104265" /><line stroke="green" stroke-width="1" x1="251.389055079" x2="257.942919456" y1="397.636314111" y2="397.924808572" /><line stroke="green" stroke-width="1" x1="323.609531862" x2="337.710859111" y1="321.635871977" y2="339.769763451" /><line stroke="green" stroke-width="1" x1="310.374371332" x2="315.268450257" y1="323.261211681" y2="367.74095263" /><line stroke="green" stroke-width="1" x1="307.358519259" x2="334.643383709" y1="327.071738589" y2="354.033280714" /><line stroke="green" stroke-width="1" x1="314.617901619" x2="348.020607248" y1="317.899514239" y2="364.137252657" /><line stroke="green" stroke-width="1" x1="331.559754508" x2="343.15883585" y1="341.351295987" y2="374.761498531" /><line stroke="green" stroke-width="1" x1="272.281244502" x2="293.744677874" y1="371.39184982" y2="446.233908452" /><line stroke="green" stroke-width="1" x1="251.389055079" x2="272.188529409" y1="397.636314111" y2="456.874527874" /><line stroke="green" stroke-width="1" x1="257.942919456" x2="322.309563162" y1="397.924808572" y2="432.13361249" /><line stroke="green" stroke-width="1" x1="241.611621671" x2="247.507916313" y1="410.142896038" y2="412.279300308" /><line stroke="green" stroke-width="1" x1="257.942919456" x2="293.744677874" y1="397.924808572" y2="446.233908452" /><line stroke="green" stroke-width="1" x1="241.611621671" x2="272.188529409" y1="410.142896038" y2="456.874527874" /><line stroke="green" stroke-width="1" x1="220.3798086" x2="237.713066818" y1="466.034110358" y2="473.892423138" /></g></svg>
