<svg baseProfile="full" height="100%" version="1.1" width="100%" xmlns="http://www.w3.org/2000/svg" xmlns:ev="http://www.w3.org/2001/xml-events" xmlns:xlink="http://www.w3.org/1999/xlink"><defs /><g><polygon fill="white" points="200.0,200.0 400.0,200.0 400.0,400.0 200.0,400.0" stroke="lightgray" stroke-width="1" /><polygon fill="white" points="316.666666667,316.666666667 333.333333333,333.333333333 333.333333333,366.666666667 366.666666667,400.0 333.333333333,400.0 366.666666667,433.333333334 300.0,433.333333334 300.0,333.333333333" stroke="magenta" stroke-width="2" /><line stroke="green" stroke-width="1" x1="316.666666667" x2="333.333333333" y1="316.666666667" y2="333.333333333" /><line stroke="green" stroke-width="1" x1="300.0" x2="300.0" y1="333.333333333" y2="433.333333334" /><line stroke="green" stroke-width="1" x1="316.666666667" x2="316.666666667" y1="350.0" y2="400.0" /><line stroke="green" stroke-width="1" x1="333.333333333" x2="333.333333333" y1="333.333333333" y2="433.333333334" /><line stroke="green" stroke-width="1" x1="300.0" x2="366.666666667" y1="333.333333333" y2="400.0" /><line stroke="green" stroke-width="1" x1="300.0" x2="366.666666667" y1="366.666666667" y2="433.333333334" /><line stroke="green" stroke-width="1" x1="316.666666667" x2="300.0" y1="316.666666667" y2="333.333333333" /><line stroke="green" stroke-width="1" x1="333.333333333" x2="300.0" y1="333.333333333" y2="366.666666667" /><line stroke="green" stroke-width="1" x1="333.333333333" x2="300.0" y1="366.666666667" y2="400.0" /><line stroke="green" stroke-width="1" x1="300.0" x2="366.666666667" y1="400.0" y2="400.0" /><line stroke="green" stroke-width="1" x1="300.0" x2="366.666666667" y1="433.333333334" y2="433.333333334" /></g></svg>
