<svg baseProfile="full" height="600" version="1.1" viewBox="0 0 600 600" width="600" xmlns="http://www.w3.org/2000/svg" xmlns:ev="http://www.w3.org/2001/xml-events" xmlns:xlink="http://www.w3.org/1999/xlink"><defs><style type="text/css"><![CDATA[
    rect { stroke: lightgray; stroke-width: 1; fill: white; }
    polygon { stroke: magenta; stroke-width: 2; fill: white; }
    line { stroke: green; stroke-width: 1; }
    ]]></style></defs><g><rect height="200" width="200" x="200" y="200" /><polygon points="276.363636364,225.454545455 315.151515152,254.545454545 345.454545455,254.545454545 374.545454545,276.363636364 345.454545455,315.151515152 345.454545455,345.454545455 323.636363636,374.545454545 284.848484848,345.454545455 254.545454545,345.454545455 225.454545455,323.636363636 254.545454545,284.848484848 254.545454545,254.545454545" /><line x1="345.454545455" x2="374.545454545" y1="254.545454545" y2="276.363636364" /><line x1="276.363636364" x2="363.636363636" y1="225.454545455" y2="290.909090909" /><line x1="254.545454545" x2="254.545454545" y1="254.545454545" y2="345.454545455" /><line x1="345.454545455" x2="345.454545455" y1="254.545454545" y2="345.454545455" /><line x1="254.545454545" x2="341.818181818" y1="254.545454545" y2="320.0" /><line x1="258.181818182" x2="345.454545455" y1="280.0" y2="345.454545455" /><line x1="276.363636364" x2="254.545454545" y1="225.454545455" y2="254.545454545" /><line x1="236.363636364" x2="323.636363636" y1="309.090909091" y2="374.545454545" /><line x1="254.545454545" x2="345.454545455" y1="254.545454545" y2="254.545454545" /><line x1="290.909090909" x2="225.454545455" y1="236.363636364" y2="323.636363636" /><line x1="225.454545455" x2="254.545454545" y1="323.636363636" y2="345.454545455" /><line x1="320.0" x2="254.545454545" y1="258.181818182" y2="345.454545455" /><line x1="345.454545455" x2="280.0" y1="254.545454545" y2="341.818181818" /><line x1="374.545454545" x2="309.090909091" y1="276.363636364" y2="363.636363636" /><line x1="345.454545455" x2="323.636363636" y1="345.454545455" y2="374.545454545" /><line x1="254.545454545" x2="345.454545455" y1="345.454545455" y2="345.454545455" /></g></svg>
