<svg baseProfile="full" height="100%" version="1.1" width="100%" xmlns="http://www.w3.org/2000/svg" xmlns:ev="http://www.w3.org/2001/xml-events" xmlns:xlink="http://www.w3.org/1999/xlink"><defs /><g><polygon fill="white" points="200.0,200.0 400.0,200.0 400.0,400.0 200.0,400.0" stroke="lightgray" stroke-width="1" /><polygon fill="white" points="366.964803313,200.0 400.0,200.0 400.0,331.60088568 407.616020036,361.940495628 400.0,363.852311939 400.0,400.0 256.000016918,400.0 246.474523637,402.391143058 247.1195339,403.6976429 242.352389914,413.571915022 228.525907699,406.896705878 231.987759053,373.047492641" stroke="magenta" stroke-width="2" /><line stroke="green" stroke-width="1" x1="366.964803313" x2="407.616020036" y1="200.0" y2="361.940495628" /><line stroke="green" stroke-width="1" x1="366.964803313" x2="400.0" y1="200.0" y2="200.0" /><line stroke="green" stroke-width="1" x1="400.0" x2="400.0" y1="200.0" y2="400.0" /><line stroke="green" stroke-width="1" x1="231.987759053" x2="228.525907699" y1="373.047492641" y2="406.896705878" /><line stroke="green" stroke-width="1" x1="231.987759053" x2="247.1195339" y1="373.047492641" y2="403.6976429" /><line stroke="green" stroke-width="1" x1="247.1195339" x2="242.352389914" y1="403.6976429" y2="413.571915022" /><line stroke="green" stroke-width="1" x1="366.964803313" x2="231.987759053" y1="200.0" y2="373.047492641" /><line stroke="green" stroke-width="1" x1="228.525907699" x2="242.352389914" y1="406.896705878" y2="413.571915022" /><line stroke="green" stroke-width="1" x1="229.231252618" x2="247.1195339" y1="400.0" y2="403.6976429" /><line stroke="green" stroke-width="1" x1="229.231252618" x2="400.0" y1="400.0" y2="400.0" /><line stroke="green" stroke-width="1" x1="407.616020036" x2="228.525907699" y1="361.940495628" y2="406.896705878" /></g></svg>
