<svg baseProfile="full" height="600" version="1.1" viewBox="0 0 600 600" width="600" xmlns="http://www.w3.org/2000/svg" xmlns:ev="http://www.w3.org/2001/xml-events" xmlns:xlink="http://www.w3.org/1999/xlink"><defs><style type="text/css"><![CDATA[
    rect { stroke: lightgray; stroke-width: 1; fill: white; }
    polygon { stroke: magenta; stroke-width: 2; fill: white; }
    line { stroke: green; stroke-width: 1; }
    ]]></style></defs><g><rect height="200" width="200" x="200" y="200" /><polygon points="269.114528085,369.053801943 375.208046241,463.651118442 376.801474393,493.902352732 316.730137618,512.303817088 294.013989375,468.67666935 192.060578981,474.98713189 168.752343019,431.209976026 219.077793465,404.415236836 229.881638092,376.19442267" /><line x1="275.238114736" x2="168.752343019" y1="374.513842053" y2="431.209976026" /><line x1="287.094016298" x2="259.493568879" y1="385.0850484" y2="409.571782562" /><line x1="229.881638092" x2="192.060578981" y1="376.19442267" y2="474.98713189" /><line x1="287.094016298" x2="266.092902014" y1="385.0850484" y2="415.053256162" /><line x1="269.114528085" x2="229.881638092" y1="369.053801943" y2="376.19442267" /><line x1="275.238114736" x2="246.184101897" y1="374.513842053" y2="448.365697538" /><line x1="269.114528085" x2="266.092902014" y1="369.053801943" y2="415.053256162" /><line x1="375.208046241" x2="376.801474393" y1="463.651118442" y2="493.902352732" /><line x1="314.804318246" x2="316.730137618" y1="495.549323634" y2="512.303817088" /><line x1="269.114528085" x2="375.208046241" y1="369.053801943" y2="463.651118442" /><line x1="266.092902014" x2="316.730137618" y1="415.053256162" y2="512.303817088" /><line x1="375.208046241" x2="192.060578981" y1="463.651118442" y2="474.98713189" /><line x1="229.881638092" x2="259.493568879" y1="376.19442267" y2="409.571782562" /><line x1="376.801474393" x2="316.730137618" y1="493.902352732" y2="512.303817088" /><line x1="376.514604627" x2="314.804318246" y1="488.45613008" y2="495.549323634" /><line x1="347.409148277" x2="376.514604627" y1="488.188580494" y2="488.45613008" /><line x1="246.184101897" x2="347.409148277" y1="448.365697538" y2="488.188580494" /><line x1="347.409148277" x2="376.801474393" y1="488.188580494" y2="493.902352732" /><line x1="168.752343019" x2="192.060578981" y1="431.209976026" y2="474.98713189" /></g></svg>
