<svg baseProfile="full" height="600" version="1.1" viewBox="0 0 600 600" width="600" xmlns="http://www.w3.org/2000/svg" xmlns:ev="http://www.w3.org/2001/xml-events" xmlns:xlink="http://www.w3.org/1999/xlink"><defs><style type="text/css"><![CDATA[
    rect { stroke: lightgray; stroke-width: 1; fill: white; }
    polygon { stroke: magenta; stroke-width: 2; fill: white; }
    line { stroke: green; stroke-width: 1; }
    ]]></style></defs><g><rect height="200" width="200" x="200" y="200" /><polygon points="339.655172414,124.137931034 374.137931034,160.344827586 372.413793103,231.034482759 336.206896552,265.517241379 300.574712644,276.436781609 286.896551724,257.24137931 300.985221675,259.60591133 301.724137931,229.310344828 337.931034483,194.827586207" /><line x1="339.655172414" x2="374.137931034" y1="124.137931034" y2="160.344827586" /><line x1="337.931034483" x2="372.413793103" y1="194.827586207" y2="231.034482759" /><line x1="286.896551724" x2="300.574712644" y1="257.24137931" y2="276.436781609" /><line x1="301.724137931" x2="300.574712644" y1="229.310344828" y2="276.436781609" /><line x1="339.655172414" x2="337.931034483" y1="124.137931034" y2="194.827586207" /><line x1="374.137931034" x2="372.413793103" y1="160.344827586" y2="231.034482759" /><line x1="301.724137931" x2="372.413793103" y1="229.310344828" y2="231.034482759" /><line x1="286.896551724" x2="336.206896552" y1="257.24137931" y2="265.517241379" /><line x1="374.137931034" x2="301.724137931" y1="160.344827586" y2="229.310344828" /><line x1="336.206896552" x2="300.574712644" y1="265.517241379" y2="276.436781609" /><line x1="372.413793103" x2="336.206896552" y1="231.034482759" y2="265.517241379" /></g></svg>
