<svg baseProfile="full" height="600" version="1.1" viewBox="0 0 600 600" width="600" xmlns="http://www.w3.org/2000/svg" xmlns:ev="http://www.w3.org/2001/xml-events" xmlns:xlink="http://www.w3.org/1999/xlink"><defs><style type="text/css"><![CDATA[
    rect { stroke: lightgray; stroke-width: 1; fill: white; }
    polygon { stroke: magenta; stroke-width: 2; fill: white; }
    line { stroke: green; stroke-width: 1; }
    ]]></style></defs><g><rect height="200" width="200" x="200" y="200" /><polygon points="255.359678592,353.1781824 273.909303529,355.033764875 308.474003291,412.762469424 331.457823697,398.589605847 338.512981281,401.114403726 355.824866697,469.336055882 360.786105521,470.987718698 357.711412781,480.223432464 273.560619197,473.67837074 243.826714713,427.781961022 249.19558589,414.798514156" /><line x1="273.909303529" x2="243.826714713" y1="355.033764875" y2="427.781961022" /><line x1="255.359678592" x2="273.909303529" y1="353.1781824" y2="355.033764875" /><line x1="331.457823697" x2="270.434438354" y1="398.589605847" y2="436.219386286" /><line x1="338.512981281" x2="273.560619197" y1="401.114403726" y2="473.67837074" /><line x1="283.934297133" x2="271.025850488" y1="429.452762946" y2="436.454939224" /><line x1="255.359678592" x2="247.352409191" y1="353.1781824" y2="433.224122794" /><line x1="339.871990201" x2="268.168238705" y1="406.469905544" y2="427.706234576" /><line x1="309.825209751" x2="305.80051638" y1="428.67632743" y2="476.1859183" /><line x1="332.276629287" x2="325.395811997" y1="408.081578218" y2="477.709996848" /><line x1="308.764659769" x2="305.80051638" y1="434.348856664" y2="476.1859183" /><line x1="339.871990201" x2="332.276629287" y1="406.469905544" y2="408.081578218" /><line x1="360.786105521" x2="357.711412781" y1="470.987718698" y2="480.223432464" /><line x1="328.093111924" x2="325.395811997" y1="430.22386138" y2="477.709996848" /><line x1="356.077064146" x2="348.433782207" y1="470.329900646" y2="479.501838974" /><line x1="345.249182788" x2="292.336908666" y1="427.660027444" y2="444.94289892" /><line x1="356.004699627" x2="357.711412781" y1="470.044730838" y2="480.223432464" /><line x1="338.512981281" x2="356.077064146" y1="401.114403726" y2="470.329900646" /><line x1="345.249182788" x2="308.764659769" y1="427.660027444" y2="434.348856664" /><line x1="331.457823697" x2="338.512981281" y1="398.589605847" y2="401.114403726" /><line x1="331.457823697" x2="356.004699627" y1="398.589605847" y2="470.044730838" /><line x1="243.826714713" x2="328.093111924" y1="427.781961022" y2="430.22386138" /><line x1="268.168238705" x2="270.434438354" y1="427.706234576" y2="436.219386286" /><line x1="309.825209751" x2="328.093111924" y1="428.67632743" y2="430.22386138" /><line x1="268.168238705" x2="271.025850488" y1="427.706234576" y2="436.454939224" /><line x1="273.909303529" x2="348.433782207" y1="355.033764875" y2="479.501838974" /><line x1="283.934297133" x2="292.336908666" y1="429.452762946" y2="444.94289892" /><line x1="247.352409191" x2="360.786105521" y1="433.224122794" y2="470.987718698" /><line x1="270.434438354" x2="356.077064146" y1="436.219386286" y2="470.329900646" /><line x1="243.826714713" x2="273.560619197" y1="427.781961022" y2="473.67837074" /><line x1="273.560619197" x2="357.711412781" y1="473.67837074" y2="480.223432464" /></g></svg>
