<svg baseProfile="full" height="100%" version="1.1" width="100%" xmlns="http://www.w3.org/2000/svg" xmlns:ev="http://www.w3.org/2001/xml-events" xmlns:xlink="http://www.w3.org/1999/xlink"><defs /><g><polygon fill="white" points="200.0,200.0 400.0,200.0 400.0,400.0 200.0,400.0" stroke="lightgray" stroke-width="1" /><polygon fill="white" points="300.0,200.0 300.0,220.0 310.0,230.0 310.0,290.0 320.0,300.0 320.0,400.0 270.0,350.0 280.0,340.0 280.0,260.0 290.0,250.0 290.0,210.0" stroke="magenta" stroke-width="2" /><line stroke="green" stroke-width="1" x1="290.0" x2="310.0" y1="210.0" y2="230.0" /><line stroke="green" stroke-width="1" x1="280.0" x2="320.0" y1="260.0" y2="300.0" /><line stroke="green" stroke-width="1" x1="280.0" x2="280.0" y1="260.0" y2="360.0" /><line stroke="green" stroke-width="1" x1="290.0" x2="290.0" y1="210.0" y2="370.0" /><line stroke="green" stroke-width="1" x1="300.0" x2="300.0" y1="200.0" y2="380.0" /><line stroke="green" stroke-width="1" x1="310.0" x2="310.0" y1="230.0" y2="390.0" /><line stroke="green" stroke-width="1" x1="320.0" x2="320.0" y1="300.0" y2="400.0" /><line stroke="green" stroke-width="1" x1="270.0" x2="320.0" y1="350.0" y2="400.0" /><line stroke="green" stroke-width="1" x1="300.0" x2="290.0" y1="200.0" y2="210.0" /><line stroke="green" stroke-width="1" x1="310.0" x2="280.0" y1="230.0" y2="260.0" /><line stroke="green" stroke-width="1" x1="320.0" x2="270.0" y1="300.0" y2="350.0" /><line stroke="green" stroke-width="1" x1="270.0" x2="320.0" y1="350.0" y2="350.0" /><line stroke="green" stroke-width="1" x1="280.0" x2="320.0" y1="360.0" y2="360.0" /><line stroke="green" stroke-width="1" x1="290.0" x2="320.0" y1="370.0" y2="370.0" /><line stroke="green" stroke-width="1" x1="300.0" x2="320.0" y1="380.0" y2="380.0" /><line stroke="green" stroke-width="1" x1="310.0" x2="320.0" y1="390.0" y2="390.0" /></g></svg>
