<svg baseProfile="full" height="600" version="1.1" viewBox="0 0 600 600" width="600" xmlns="http://www.w3.org/2000/svg" xmlns:ev="http://www.w3.org/2001/xml-events" xmlns:xlink="http://www.w3.org/1999/xlink"><defs><style type="text/css"><![CDATA[
    rect { stroke: lightgray; stroke-width: 1; fill: white; }
    polygon { stroke: magenta; stroke-width: 2; fill: white; }
    line { stroke: green; stroke-width: 1; }
    ]]></style></defs><g><rect height="200" width="200" x="200" y="200" /><polygon points="359.280418135,174.352740975 368.359436448,199.89922009 386.304358997,210.197323632 387.399488386,209.365953955 469.393668858,224.245430197 463.865690068,254.707664428 445.390836578,263.295975749 329.68016358,267.863502315 327.638933235,255.876175459 331.6862461,245.573696537 337.39615759,182.130235531" /><line x1="337.39615759" x2="463.865690068" y1="182.130235531" y2="254.707664428" /><line x1="360.737043225" x2="386.485214995" y1="231.794909731" y2="265.621197654" /><line x1="403.718045134" x2="447.920126942" y1="238.83691368" y2="262.120197383" /><line x1="359.280418135" x2="372.866693292" y1="174.352740975" y2="212.581708312" /><line x1="335.548682641" x2="352.776783335" y1="237.102891569" y2="258.11374256" /><line x1="331.098233996" x2="341.058201058" y1="252.107164359" y2="262.972582973" /><line x1="328.065633042" x2="335.478978649" y1="258.38201223" y2="267.63460172" /><line x1="327.638933235" x2="337.703789736" y1="255.876175459" y2="267.54678023" /><line x1="377.33974357" x2="382.158623557" y1="237.973047047" y2="265.791984158" /><line x1="340.114007015" x2="445.390836578" y1="224.120739451" y2="263.295975749" /><line x1="387.399488386" x2="469.393668858" y1="209.365953955" y2="224.245430197" /><line x1="327.638933235" x2="329.68016358" y1="255.876175459" y2="267.863502315" /><line x1="334.530669229" x2="452.7929126" y1="213.968995104" y2="239.879809231" /><line x1="330.561243229" x2="341.058201058" y1="258.073728437" y2="262.972582973" /><line x1="337.39615759" x2="329.68016358" y1="182.130235531" y2="267.863502315" /><line x1="387.399488386" x2="382.158623557" y1="209.365953955" y2="265.791984158" /><line x1="372.866693292" x2="334.530669229" y1="212.581708312" y2="213.968995104" /><line x1="359.280418135" x2="337.39615759" y1="174.352740975" y2="182.130235531" /><line x1="340.114007015" x2="328.065633042" y1="224.120739451" y2="258.38201223" /><line x1="469.393668858" x2="463.865690068" y1="224.245430197" y2="254.707664428" /><line x1="340.114007015" x2="327.638933235" y1="224.120739451" y2="255.876175459" /><line x1="452.7929126" x2="447.920126942" y1="239.879809231" y2="262.120197383" /><line x1="360.737043225" x2="335.548682641" y1="231.794909731" y2="237.102891569" /><line x1="445.390836578" x2="329.68016358" y1="263.295975749" y2="267.863502315" /><line x1="372.866693292" x2="335.478978649" y1="212.581708312" y2="267.63460172" /><line x1="403.718045134" x2="330.561243229" y1="238.83691368" y2="258.073728437" /><line x1="341.058201058" x2="337.703789736" y1="262.972582973" y2="267.54678023" /><line x1="387.399488386" x2="331.098233996" y1="209.365953955" y2="252.107164359" /><line x1="403.718045134" x2="386.485214995" y1="238.83691368" y2="265.621197654" /><line x1="377.33974357" x2="352.776783335" y1="237.973047047" y2="258.11374256" /><line x1="463.865690068" x2="445.390836578" y1="254.707664428" y2="263.295975749" /></g></svg>
