<svg baseProfile="full" height="600" version="1.1" viewBox="0 0 600 600" width="600" xmlns="http://www.w3.org/2000/svg" xmlns:ev="http://www.w3.org/2001/xml-events" xmlns:xlink="http://www.w3.org/1999/xlink"><defs><style type="text/css"><![CDATA[
    rect { stroke: lightgray; stroke-width: 1; fill: white; }
    polygon { stroke: magenta; stroke-width: 2; fill: white; }
    line { stroke: green; stroke-width: 1; }
    ]]></style></defs><g><rect height="200" width="200" x="200" y="200" /><polygon points="438.034523966,229.089835483 465.416380666,262.937107177 400.0,315.857826384 305.4528132,270.733032684 205.372659875,282.473916182 203.989637321,273.349092876 204.578979304,272.949591756 204.444704797,271.338271022 207.307975671,271.099669063 248.175845157,243.396297936" /><line x1="438.034523966" x2="465.416380666" y1="229.089835483" y2="262.937107177" /><line x1="415.663531974" x2="430.547371718" y1="230.775561724" y2="241.875035413" /><line x1="400.0" x2="404.122883486" y1="231.955859267" y2="259.157572801" /><line x1="403.753879186" x2="404.122883486" y1="254.729447933" y2="259.157572801" /><line x1="252.985054505" x2="258.183907799" y1="243.033908535" y2="248.172873288" /><line x1="400.0" x2="400.0" y1="231.955859267" y2="315.857826384" /><line x1="204.444704797" x2="205.372659875" y1="271.338271022" y2="282.473916182" /><line x1="203.989637321" x2="205.372659875" y1="273.349092876" y2="282.473916182" /><line x1="248.175845157" x2="400.0" y1="243.396297936" y2="315.857826384" /><line x1="357.337792642" x2="353.499255424" y1="259.224080268" y2="293.6642892" /><line x1="221.518018032" x2="225.318011437" y1="276.956234435" y2="280.134031187" /><line x1="252.985054505" x2="225.318011437" y1="243.033908535" y2="280.134031187" /><line x1="258.183907799" x2="357.337792642" y1="248.172873288" y2="259.224080268" /><line x1="438.034523966" x2="248.175845157" y1="229.089835483" y2="243.396297936" /><line x1="221.518018032" x2="217.201663113" y1="276.956234435" y2="281.086198994" /><line x1="248.175845157" x2="203.989637321" y1="243.396297936" y2="273.349092876" /><line x1="203.989637321" x2="217.201663113" y1="273.349092876" y2="281.086198994" /><line x1="403.753879186" x2="204.444704797" y1="254.729447933" y2="271.338271022" /><line x1="264.723969487" x2="221.518018032" y1="275.511128971" y2="276.956234435" /><line x1="404.122883486" x2="205.372659875" y1="259.157572801" y2="282.473916182" /><line x1="430.547371718" x2="264.723969487" y1="241.875035413" y2="275.511128971" /><line x1="438.034523966" x2="430.547371718" y1="229.089835483" y2="241.875035413" /><line x1="415.663531974" x2="353.499255424" y1="230.775561724" y2="293.6642892" /><line x1="465.416380666" x2="400.0" y1="262.937107177" y2="315.857826384" /></g></svg>
