<svg baseProfile="full" height="600" version="1.1" viewBox="0 0 600 600" width="600" xmlns="http://www.w3.org/2000/svg" xmlns:ev="http://www.w3.org/2001/xml-events" xmlns:xlink="http://www.w3.org/1999/xlink"><defs><style type="text/css"><![CDATA[
    rect { stroke: lightgray; stroke-width: 1; fill: white; }
    polygon { stroke: magenta; stroke-width: 2; fill: white; }
    line { stroke: green; stroke-width: 1; }
    ]]></style></defs><g><rect height="200" width="200" x="200" y="200" /><polygon points="196.048251573,324.657633639 400.0,395.166666667 400.0,400.0 396.20445829,400.0 384.301864768,415.157046454 382.180050293,428.689354568 374.607551938,427.50201561 350.512124991,458.185706934 282.910598971,413.124281936 230.361084626,404.884717834 190.594880715,359.437627649 191.709062858,352.331701927 183.590489593,346.920071424" /><line x1="229.323764798" x2="230.361084626" y1="358.570205382" y2="404.884717834" /><line x1="200.0" x2="200.0" y1="326.023809524" y2="370.186335404" /><line x1="400.0" x2="400.0" y1="395.166666667" y2="400.0" /><line x1="196.048251573" x2="190.594880715" y1="324.657633639" y2="359.437627649" /><line x1="229.549826856" x2="226.086956522" y1="374.143901501" y2="400.0" /><line x1="196.048251573" x2="183.590489593" y1="324.657633639" y2="346.920071424" /><line x1="388.082299386" x2="382.180050293" y1="391.046547312" y2="428.689354568" /><line x1="200.0" x2="183.590489593" y1="326.023809524" y2="346.920071424" /><line x1="190.594880715" x2="230.361084626" y1="359.437627649" y2="404.884717834" /><line x1="183.590489593" x2="350.512124991" y1="346.920071424" y2="458.185706934" /><line x1="196.048251573" x2="400.0" y1="324.657633639" y2="395.166666667" /><line x1="388.082299386" x2="350.512124991" y1="391.046547312" y2="458.185706934" /><line x1="229.323764798" x2="190.594880715" y1="358.570205382" y2="359.437627649" /><line x1="200.0" x2="229.549826856" y1="370.186335404" y2="374.143901501" /><line x1="400.0" x2="350.512124991" y1="395.166666667" y2="458.185706934" /><line x1="230.361084626" x2="382.180050293" y1="404.884717834" y2="428.689354568" /><line x1="226.086956522" x2="400.0" y1="400.0" y2="400.0" /></g></svg>
