<svg baseProfile="full" height="600" version="1.1" viewBox="0 0 600 600" width="600" xmlns="http://www.w3.org/2000/svg" xmlns:ev="http://www.w3.org/2001/xml-events" xmlns:xlink="http://www.w3.org/1999/xlink"><defs><style type="text/css"><![CDATA[
    rect { stroke: lightgray; stroke-width: 1; fill: white; }
    polygon { stroke: magenta; stroke-width: 2; fill: white; }
    line { stroke: green; stroke-width: 1; }
    ]]></style></defs><g><rect height="200" width="200" x="200" y="200" /><polygon points="200.0,300.0 300.0,300.0 400.0,350.0 400.0,400.0 375.0,400.0 368.0,424.0 320.0,410.0 318.181818182,400.0 200.0,400.0" /><line x1="300.0" x2="320.0" y1="300.0" y2="410.0" /><line x1="300.0" x2="375.0" y1="300.0" y2="400.0" /><line x1="200.0" x2="200.0" y1="300.0" y2="400.0" /><line x1="400.0" x2="400.0" y1="350.0" y2="400.0" /><line x1="300.0" x2="400.0" y1="300.0" y2="350.0" /><line x1="375.0" x2="368.0" y1="400.0" y2="424.0" /><line x1="200.0" x2="300.0" y1="300.0" y2="300.0" /><line x1="320.0" x2="368.0" y1="410.0" y2="424.0" /><line x1="400.0" x2="320.0" y1="350.0" y2="410.0" /><line x1="200.0" x2="400.0" y1="400.0" y2="400.0" /></g></svg>
