<svg baseProfile="full" height="600" version="1.1" viewBox="0 0 600 600" width="600" xmlns="http://www.w3.org/2000/svg" xmlns:ev="http://www.w3.org/2001/xml-events" xmlns:xlink="http://www.w3.org/1999/xlink"><defs><style type="text/css"><![CDATA[
    rect { stroke: lightgray; stroke-width: 1; fill: white; }
    polygon { stroke: magenta; stroke-width: 2; fill: white; }
    line { stroke: green; stroke-width: 1; }
    ]]></style></defs><g><rect height="200" width="200" x="200" y="200" /><polygon points="203.125,209.803921569 396.875,235.616438356 326.02739726,368.292682927" /><line x1="392.189555353" x2="395.299627005" y1="234.992215808" y2="238.566638006" /><line x1="386.367658616" x2="387.125969398" y1="253.195716522" y2="253.87343956" /><line x1="371.138683016" x2="379.662221279" y1="260.434542519" y2="267.850794227" /><line x1="313.66859253" x2="326.02739726" y1="334.539395987" y2="368.292682927" /><line x1="300.375237843" x2="341.932442518" y1="292.008565122" y2="338.507318386" /><line x1="212.947187882" x2="213.100841674" y1="211.112491321" y2="222.668266168" /><line x1="206.262222142" x2="206.362137756" y1="210.22188079" y2="213.978371903" /><line x1="206.240066789" x2="206.237825474" y1="210.218929124" y2="210.303195044" /><line x1="206.240066789" x2="205.573790351" y1="210.218929124" y2="212.961758666" /><line x1="203.125" x2="326.02739726" y1="209.803921569" y2="368.292682927" /><line x1="206.262222142" x2="206.237825474" y1="210.22188079" y2="210.303195044" /><line x1="212.947187882" x2="211.693838826" y1="211.112491321" y2="215.501070356" /><line x1="229.184347457" x2="387.125969398" y1="213.275701407" y2="253.87343956" /><line x1="203.125" x2="206.237825474" y1="209.803921569" y2="210.303195044" /><line x1="203.125" x2="396.875" y1="209.803921569" y2="235.616438356" /><line x1="206.362137756" x2="211.693838826" y1="213.978371903" y2="215.501070356" /><line x1="205.573790351" x2="229.184347457" y1="212.961758666" y2="213.275701407" /><line x1="390.67607122" x2="395.299627005" y1="237.980116417" y2="238.566638006" /><line x1="213.100841674" x2="379.662221279" y1="222.668266168" y2="267.850794227" /><line x1="396.875" x2="326.02739726" y1="235.616438356" y2="368.292682927" /><line x1="396.875" x2="390.67607122" y1="235.616438356" y2="237.980116417" /><line x1="300.375237843" x2="280.586461992" y1="292.008565122" y2="309.694334106" /><line x1="390.67607122" x2="371.138683016" y1="237.980116417" y2="260.434542519" /><line x1="392.189555353" x2="280.586461992" y1="234.992215808" y2="309.694334106" /><line x1="386.367658616" x2="313.66859253" y1="253.195716522" y2="334.539395987" /><line x1="313.66859253" x2="341.932442518" y1="334.539395987" y2="338.507318386" /></g></svg>
