<svg baseProfile="full" height="100%" version="1.1" width="100%" xmlns="http://www.w3.org/2000/svg" xmlns:ev="http://www.w3.org/2001/xml-events" xmlns:xlink="http://www.w3.org/1999/xlink"><defs /><g><polygon fill="white" points="200.0,200.0 400.0,200.0 400.0,400.0 200.0,400.0" stroke="lightgray" stroke-width="1" /><polygon fill="white" points="364.750957854,222.988505747 396.168582375,223.754789272 442.14559387,272.030651341 363.601532567,270.114942529 362.835249042,301.53256705 441.379310344,303.448275862 393.103448276,349.425287356 361.685823755,348.659003831 315.708812261,300.383141762 316.475095785,268.965517241" stroke="magenta" stroke-width="2" /><line stroke="green" stroke-width="1" x1="396.168582375" x2="442.14559387" y1="223.754789272" y2="272.030651341" /><line stroke="green" stroke-width="1" x1="332.567049808" x2="363.218390805" y1="253.639846743" y2="285.823754789" /><line stroke="green" stroke-width="1" x1="347.126436782" x2="393.103448276" y1="301.149425287" y2="349.425287356" /><line stroke="green" stroke-width="1" x1="315.708812261" x2="361.685823755" y1="300.383141762" y2="348.659003831" /><line stroke="green" stroke-width="1" x1="316.475095785" x2="315.708812261" y1="268.965517241" y2="300.383141762" /><line stroke="green" stroke-width="1" x1="364.750957854" x2="361.685823755" y1="222.988505747" y2="348.659003831" /><line stroke="green" stroke-width="1" x1="364.750957854" x2="396.168582375" y1="222.988505747" y2="223.754789272" /><line stroke="green" stroke-width="1" x1="316.475095785" x2="442.14559387" y1="268.965517241" y2="272.030651341" /><line stroke="green" stroke-width="1" x1="364.750957854" x2="316.475095785" y1="222.988505747" y2="268.965517241" /><line stroke="green" stroke-width="1" x1="315.708812261" x2="441.379310344" y1="300.383141762" y2="303.448275862" /><line stroke="green" stroke-width="1" x1="396.168582375" x2="347.892720307" y1="223.754789272" y2="269.731800766" /><line stroke="green" stroke-width="1" x1="363.218390805" x2="331.034482759" y1="285.823754789" y2="316.475095785" /><line stroke="green" stroke-width="1" x1="361.685823755" x2="393.103448276" y1="348.659003831" y2="349.425287356" /><line stroke="green" stroke-width="1" x1="441.379310344" x2="393.103448276" y1="303.448275862" y2="349.425287356" /></g></svg>
