<svg baseProfile="full" height="600" version="1.1" viewBox="0 0 600 600" width="600" xmlns="http://www.w3.org/2000/svg" xmlns:ev="http://www.w3.org/2001/xml-events" xmlns:xlink="http://www.w3.org/1999/xlink"><defs><style type="text/css"><![CDATA[
    rect { stroke: lightgray; stroke-width: 1; fill: white; }
    polygon { stroke: magenta; stroke-width: 2; fill: white; }
    line { stroke: green; stroke-width: 1; }
    ]]></style></defs><g><rect height="200" width="200" x="200" y="200" /><polygon points="409.307639126,293.699023986 444.079573976,346.062493647 394.20960287,379.178622075 394.107099295,379.758960088 191.710984255,375.797805926 189.215536536,357.519555577 195.08086074,356.718789113 197.915749303,340.668679625 228.686868687,331.382395382 261.659212737,324.503291259 280.568390207,298.312584572 304.472674333,315.571009716" /><line x1="409.307639126" x2="444.079573976" y1="293.699023986" y2="346.062493647" /><line x1="387.377272949" x2="394.107099295" y1="330.465420551" y2="379.758960088" /><line x1="200.0" x2="200.0" y1="340.03968254" y2="342.857142857" /><line x1="197.915749303" x2="191.710984255" y1="340.668679625" y2="375.797805926" /><line x1="189.215536536" x2="191.710984255" y1="357.519555577" y2="375.797805926" /><line x1="280.568390207" x2="393.357750262" y1="298.312584572" y2="379.744294357" /><line x1="409.307639126" x2="394.107099295" y1="293.699023986" y2="379.758960088" /><line x1="200.0" x2="224.166971297" y1="340.03968254" y2="376.433011637" /><line x1="197.915749303" x2="200.0" y1="340.668679625" y2="342.857142857" /><line x1="280.568390207" x2="224.166971297" y1="298.312584572" y2="376.433011637" /><line x1="228.686868687" x2="200.0" y1="331.382395382" y2="342.857142857" /><line x1="228.686868687" x2="197.915749303" y1="331.382395382" y2="340.668679625" /><line x1="409.307639126" x2="228.686868687" y1="293.699023986" y2="331.382395382" /><line x1="387.377272949" x2="189.215536536" y1="330.465420551" y2="357.519555577" /><line x1="191.710984255" x2="394.107099295" y1="375.797805926" y2="379.758960088" /><line x1="444.079573976" x2="393.357750262" y1="346.062493647" y2="379.744294357" /></g></svg>
