<svg baseProfile="full" height="600" version="1.1" viewBox="0 0 600 600" width="600" xmlns="http://www.w3.org/2000/svg" xmlns:ev="http://www.w3.org/2001/xml-events" xmlns:xlink="http://www.w3.org/1999/xlink"><defs><style type="text/css"><![CDATA[
    rect { stroke: lightgray; stroke-width: 1; fill: white; }
    polygon { stroke: magenta; stroke-width: 2; fill: white; }
    line { stroke: green; stroke-width: 1; }
    ]]></style></defs><g><rect height="200" width="200" x="200" y="200" /><polygon points="331.764705882,257.971014493 396.875,329.230769231 376.811594203,339.473684211 251.351351351,355.140186916 203.125,330.303030303 246.376811594,293.827160494" /><line x1="386.456582626" x2="392.440774483" y1="317.828365404" y2="327.888878777" /><line x1="331.764705882" x2="396.875" y1="257.971014493" y2="329.230769231" /><line x1="288.477746626" x2="297.007698677" y1="322.311271062" y2="341.211162743" /><line x1="341.388230858" x2="386.456582626" y1="285.193647403" y2="317.828365404" /><line x1="291.880750947" x2="294.124235276" y1="334.709023994" y2="349.799040697" /><line x1="291.106914182" x2="294.124235276" y1="319.986436673" y2="349.799040697" /><line x1="258.951237746" x2="259.222129214" y1="288.546898417" y2="290.074604103" /><line x1="331.764705882" x2="336.064695235" y1="257.971014493" y2="336.378871243" /><line x1="258.951237746" x2="291.880750947" y1="288.546898417" y2="334.709023994" /><line x1="206.468641468" x2="206.045655547" y1="329.21864256" y2="331.807203378" /><line x1="275.525727375" x2="286.484743427" y1="333.764059488" y2="350.753001227" /><line x1="271.26141305" x2="267.887470837" y1="283.377600748" y2="320.711692905" /><line x1="271.26141305" x2="336.064695235" y1="283.377600748" y2="336.378871243" /><line x1="210.765282669" x2="219.355075119" y1="323.859694274" y2="336.252316204" /><line x1="291.880750947" x2="286.484743427" y1="334.709023994" y2="350.753001227" /><line x1="275.525727375" x2="294.654362161" y1="333.764059488" y2="349.732842561" /><line x1="246.376811594" x2="219.355075119" y1="293.827160494" y2="336.252316204" /><line x1="288.477746626" x2="326.919314583" y1="322.311271062" y2="345.703845383" /><line x1="210.765282669" x2="233.049028595" y1="323.859694274" y2="345.714268431" /><line x1="206.468641468" x2="212.346896792" y1="329.21864256" y2="335.052419143" /><line x1="392.440774483" x2="396.875" y1="327.888878777" y2="329.230769231" /><line x1="232.654500073" x2="206.045655547" y1="305.399698847" y2="331.807203378" /><line x1="246.376811594" x2="203.125" y1="293.827160494" y2="330.303030303" /><line x1="252.456061699" x2="232.654500073" y1="291.274357416" y2="305.399698847" /><line x1="291.106914182" x2="376.811594203" y1="319.986436673" y2="339.473684211" /><line x1="331.764705882" x2="246.376811594" y1="257.971014493" y2="293.827160494" /><line x1="341.388230858" x2="294.654362161" y1="285.193647403" y2="349.732842561" /><line x1="259.222129214" x2="252.456061699" y1="290.074604103" y2="291.274357416" /><line x1="203.125" x2="251.351351351" y1="330.303030303" y2="355.140186916" /><line x1="291.106914182" x2="251.351351351" y1="319.986436673" y2="355.140186916" /><line x1="267.887470837" x2="391.653264162" y1="320.711692905" y2="331.896607562" /><line x1="394.67267065" x2="391.653264162" y1="326.820436864" y2="331.896607562" /><line x1="206.468641468" x2="203.125" y1="329.21864256" y2="330.303030303" /><line x1="212.346896792" x2="219.355075119" y1="335.052419143" y2="336.252316204" /><line x1="336.064695235" x2="326.919314583" y1="336.378871243" y2="345.703845383" /><line x1="233.049028595" x2="271.803840545" y1="345.714268431" y2="352.586238589" /><line x1="297.007698677" x2="271.803840545" y1="341.211162743" y2="352.586238589" /><line x1="376.811594203" x2="251.351351351" y1="339.473684211" y2="355.140186916" /><line x1="394.67267065" x2="392.440774483" y1="326.820436864" y2="327.888878777" /><line x1="396.875" x2="376.811594203" y1="329.230769231" y2="339.473684211" /></g></svg>
