<svg baseProfile="full" height="100%" version="1.1" width="100%" xmlns="http://www.w3.org/2000/svg" xmlns:ev="http://www.w3.org/2001/xml-events" xmlns:xlink="http://www.w3.org/1999/xlink"><defs /><g><polygon fill="white" points="200.0,200.0 400.0,200.0 400.0,400.0 200.0,400.0" stroke="lightgray" stroke-width="1" /><polygon fill="white" points="206.87845605,296.622104747 310.375141274,304.499174443 316.182492961,336.439608723 282.179680869,346.744935908 220.92451174,374.118142816 181.064113652,351.736351498 204.693512936,309.654051262 197.191473888,309.730390399 197.133329555,304.016400509" stroke="magenta" stroke-width="2" /><line stroke="green" stroke-width="1" x1="310.375141274" x2="316.182492961" y1="304.499174443" y2="336.439608723" /><line stroke="green" stroke-width="1" x1="278.462070257" x2="298.303141622" y1="302.070290039" y2="339.539816184" /><line stroke="green" stroke-width="1" x1="237.625474552" x2="241.640364568" y1="298.962241604" y2="359.031299671" /><line stroke="green" stroke-width="1" x1="197.133329555" x2="197.191473888" y1="304.016400509" y2="309.730390399" /><line stroke="green" stroke-width="1" x1="221.099191864" x2="235.796011396" y1="297.704436291" y2="360.802564103" /><line stroke="green" stroke-width="1" x1="211.800655102" x2="235.796011396" y1="296.99673032" y2="360.802564103" /><line stroke="green" stroke-width="1" x1="237.625474552" x2="220.92451174" y1="298.962241604" y2="374.118142816" /><line stroke="green" stroke-width="1" x1="303.147890656" x2="308.964756848" y1="303.949112799" y2="308.5930095" /><line stroke="green" stroke-width="1" x1="221.099191864" x2="219.513963276" y1="297.704436291" y2="301.664527673" /><line stroke="green" stroke-width="1" x1="233.120149816" x2="241.640364568" y1="344.212644567" y2="359.031299671" /><line stroke="green" stroke-width="1" x1="211.800655102" x2="181.064113652" y1="296.99673032" y2="351.736351498" /><line stroke="green" stroke-width="1" x1="206.87845605" x2="249.694104561" y1="296.622104747" y2="340.796397707" /><line stroke="green" stroke-width="1" x1="310.375141274" x2="298.303141622" y1="304.499174443" y2="339.539816184" /><line stroke="green" stroke-width="1" x1="206.87845605" x2="197.133329555" y1="296.622104747" y2="304.016400509" /><line stroke="green" stroke-width="1" x1="278.462070257" x2="249.694104561" y1="302.070290039" y2="340.796397707" /><line stroke="green" stroke-width="1" x1="219.513963276" x2="300.221403254" y1="301.664527673" y2="333.971797584" /><line stroke="green" stroke-width="1" x1="206.87845605" x2="310.375141274" y1="296.622104747" y2="304.499174443" /><line stroke="green" stroke-width="1" x1="197.133329555" x2="300.221403254" y1="304.016400509" y2="333.971797584" /><line stroke="green" stroke-width="1" x1="308.964756848" x2="197.191473888" y1="308.5930095" y2="309.730390399" /><line stroke="green" stroke-width="1" x1="303.147890656" x2="233.120149816" y1="303.949112799" y2="344.212644567" /><line stroke="green" stroke-width="1" x1="181.064113652" x2="220.92451174" y1="351.736351498" y2="374.118142816" /><line stroke="green" stroke-width="1" x1="316.182492961" x2="249.694104561" y1="336.439608723" y2="340.796397707" /><line stroke="green" stroke-width="1" x1="298.303141622" x2="220.92451174" y1="339.539816184" y2="374.118142816" /><line stroke="green" stroke-width="1" x1="316.182492961" x2="235.796011396" y1="336.439608723" y2="360.802564103" /></g></svg>
