<svg baseProfile="full" height="100%" version="1.1" width="100%" xmlns="http://www.w3.org/2000/svg" xmlns:ev="http://www.w3.org/2001/xml-events" xmlns:xlink="http://www.w3.org/1999/xlink"><defs /><g><polygon fill="white" points="200.0,200.0 400.0,200.0 400.0,400.0 200.0,400.0" stroke="lightgray" stroke-width="1" /><polygon fill="white" points="373.816017853,193.80114059 382.514001851,227.49719963 400.0,224.0 409.23076923,246.153846154 400.0,250.0 400.0,295.238095238 200.0,320.634920635 180.163649888,243.788742871" stroke="magenta" stroke-width="2" /><line stroke="green" stroke-width="1" x1="400.0" x2="409.23076923" y1="224.0" y2="246.153846154" /><line stroke="green" stroke-width="1" x1="373.816017853" x2="400.0" y1="193.80114059" y2="295.238095238" /><line stroke="green" stroke-width="1" x1="200.0" x2="200.0" y1="264.0" y2="320.634920635" /><line stroke="green" stroke-width="1" x1="400.0" x2="400.0" y1="224.0" y2="295.238095238" /><line stroke="green" stroke-width="1" x1="223.223788361" x2="222.412060302" y1="312.118102577" y2="317.788944724" /><line stroke="green" stroke-width="1" x1="180.163649888" x2="200.0" y1="243.788742871" y2="320.634920635" /><line stroke="green" stroke-width="1" x1="200.0" x2="222.412060302" y1="264.0" y2="317.788944724" /><line stroke="green" stroke-width="1" x1="373.816017853" x2="180.163649888" y1="193.80114059" y2="243.788742871" /><line stroke="green" stroke-width="1" x1="400.0" x2="200.0" y1="224.0" y2="264.0" /><line stroke="green" stroke-width="1" x1="223.223788361" x2="243.835616438" y1="312.118102577" y2="315.068493151" /><line stroke="green" stroke-width="1" x1="409.23076923" x2="243.835616438" y1="246.153846154" y2="315.068493151" /><line stroke="green" stroke-width="1" x1="400.0" x2="200.0" y1="295.238095238" y2="320.634920635" /></g></svg>
