<svg baseProfile="full" height="600" version="1.1" viewBox="0 0 600 600" width="600" xmlns="http://www.w3.org/2000/svg" xmlns:ev="http://www.w3.org/2001/xml-events" xmlns:xlink="http://www.w3.org/1999/xlink"><defs><style type="text/css"><![CDATA[
    rect { stroke: lightgray; stroke-width: 1; fill: white; }
    polygon { stroke: magenta; stroke-width: 2; fill: white; }
    line { stroke: green; stroke-width: 1; }
    ]]></style></defs><g><rect height="200" width="200" x="200" y="200" /><polygon points="287.5,237.5 312.5,237.5 350.0,275.0 350.0,300.0 325.0,325.0 312.5,312.5 312.5,337.5 287.5,362.5 262.5,362.5 250.0,350.0 262.5,337.5 275.0,337.5 275.0,250.0" /><line x1="312.5" x2="350.0" y1="237.5" y2="275.0" /><line x1="312.5" x2="325.0" y1="312.5" y2="325.0" /><line x1="275.0" x2="275.0" y1="250.0" y2="362.5" /><line x1="287.5" x2="287.5" y1="237.5" y2="250.0" /><line x1="300.0" x2="300.0" y1="237.5" y2="350.0" /><line x1="312.5" x2="312.5" y1="237.5" y2="337.5" /><line x1="325.0" x2="325.0" y1="250.0" y2="325.0" /><line x1="350.0" x2="350.0" y1="275.0" y2="300.0" /><line x1="262.5" x2="287.5" y1="337.5" y2="362.5" /><line x1="287.5" x2="312.5" y1="237.5" y2="237.5" /><line x1="250.0" x2="262.5" y1="350.0" y2="362.5" /><line x1="275.0" x2="325.0" y1="250.0" y2="250.0" /><line x1="287.5" x2="275.0" y1="237.5" y2="250.0" /><line x1="275.0" x2="350.0" y1="275.0" y2="275.0" /><line x1="325.0" x2="350.0" y1="300.0" y2="300.0" /><line x1="262.5" x2="250.0" y1="337.5" y2="350.0" /><line x1="350.0" x2="262.5" y1="275.0" y2="362.5" /><line x1="350.0" x2="325.0" y1="300.0" y2="325.0" /><line x1="312.5" x2="287.5" y1="337.5" y2="362.5" /><line x1="262.5" x2="312.5" y1="337.5" y2="337.5" /><line x1="250.0" x2="300.0" y1="350.0" y2="350.0" /><line x1="262.5" x2="287.5" y1="362.5" y2="362.5" /></g></svg>
