<svg baseProfile="full" height="600" version="1.1" viewBox="0 0 600 600" width="600" xmlns="http://www.w3.org/2000/svg" xmlns:ev="http://www.w3.org/2001/xml-events" xmlns:xlink="http://www.w3.org/1999/xlink"><defs><style type="text/css"><![CDATA[
    rect { stroke: lightgray; stroke-width: 1; fill: white; }
    polygon { stroke: magenta; stroke-width: 2; fill: white; }
    line { stroke: green; stroke-width: 1; }
    ]]></style></defs><g><rect height="200" width="200" x="200" y="200" /><polygon points="288.0,224.0 300.0,240.0 312.0,224.0 328.0,236.0 312.5,256.666666667 330.0,280.0 320.0,300.0 280.0,300.0 270.0,280.0 287.5,256.666666667 272.0,236.0" /><polygon points="300.0,273.333333333 295.0,280.0 305.0,280.0" /><line x1="312.0" x2="328.0" y1="224.0" y2="236.0" /><line x1="288.0" x2="330.0" y1="224.0" y2="280.0" /><line x1="272.0" x2="320.0" y1="236.0" y2="300.0" /><line x1="270.0" x2="280.0" y1="280.0" y2="300.0" /><line x1="288.0" x2="272.0" y1="224.0" y2="236.0" /><line x1="312.0" x2="270.0" y1="224.0" y2="280.0" /><line x1="330.0" x2="320.0" y1="280.0" y2="300.0" /><line x1="328.0" x2="280.0" y1="236.0" y2="300.0" /><line x1="270.0" x2="330.0" y1="280.0" y2="280.0" /><line x1="280.0" x2="320.0" y1="300.0" y2="300.0" /></g></svg>
