<svg baseProfile="full" height="100%" version="1.1" width="100%" xmlns="http://www.w3.org/2000/svg" xmlns:ev="http://www.w3.org/2001/xml-events" xmlns:xlink="http://www.w3.org/1999/xlink"><defs /><g><polygon fill="white" points="200.0,200.0 400.0,200.0 400.0,400.0 200.0,400.0" stroke="lightgray" stroke-width="1" /><polygon fill="white" points="259.279655859,233.479057633 400.952214508,266.965298769 399.632471378,278.872755577 395.014301782,283.04112406 359.905804565,378.091033612 333.849513759,384.889403684 295.986693893,314.041948525 310.092573098,306.503380453 303.135191832,296.504780035 275.652691847,303.906295082 257.017224221,234.711105238" stroke="magenta" stroke-width="2" /><line stroke="green" stroke-width="1" x1="389.250211942" x2="399.632471378" y1="264.19937089" y2="278.872755577" /><line stroke="green" stroke-width="1" x1="350.775451508" x2="375.280464614" y1="267.266570726" y2="332.784585101" /><line stroke="green" stroke-width="1" x1="359.74433628" x2="365.81876909" y1="257.225254824" y2="279.623002888" /><line stroke="green" stroke-width="1" x1="339.719374406" x2="343.584053915" y1="344.790552603" y2="354.634699018" /><line stroke="green" stroke-width="1" x1="259.279655859" x2="359.905804565" y1="233.479057633" y2="378.091033612" /><line stroke="green" stroke-width="1" x1="295.986693893" x2="333.849513759" y1="314.041948525" y2="384.889403684" /><line stroke="green" stroke-width="1" x1="257.017224221" x2="343.008556403" y1="234.711105238" y2="329.981606744" /><line stroke="green" stroke-width="1" x1="257.017224221" x2="275.652691847" y1="234.711105238" y2="303.906295082" /><line stroke="green" stroke-width="1" x1="376.421293613" x2="380.003154933" y1="261.167081103" y2="323.681090545" /><line stroke="green" stroke-width="1" x1="333.597032756" x2="333.849513759" y1="372.031326455" y2="384.889403684" /><line stroke="green" stroke-width="1" x1="343.584053915" x2="362.371499411" y1="354.634699018" y2="371.415610548" /><line stroke="green" stroke-width="1" x1="259.279655859" x2="400.952214508" y1="233.479057633" y2="266.965298769" /><line stroke="green" stroke-width="1" x1="400.952214508" x2="399.632471378" y1="266.965298769" y2="278.872755577" /><line stroke="green" stroke-width="1" x1="350.775451508" x2="336.330922493" y1="267.266570726" y2="344.211069768" /><line stroke="green" stroke-width="1" x1="259.279655859" x2="257.017224221" y1="233.479057633" y2="234.711105238" /><line stroke="green" stroke-width="1" x1="400.952214508" x2="359.905804565" y1="266.965298769" y2="378.091033612" /><line stroke="green" stroke-width="1" x1="376.421293613" x2="365.81876909" y1="261.167081103" y2="279.623002888" /><line stroke="green" stroke-width="1" x1="359.74433628" x2="350.775451508" y1="257.225254824" y2="267.266570726" /><line stroke="green" stroke-width="1" x1="365.81876909" x2="275.652691847" y1="279.623002888" y2="303.906295082" /><line stroke="green" stroke-width="1" x1="336.330922493" x2="339.719374406" y1="344.211069768" y2="344.790552603" /><line stroke="green" stroke-width="1" x1="389.250211942" x2="295.986693893" y1="264.19937089" y2="314.041948525" /><line stroke="green" stroke-width="1" x1="339.719374406" x2="338.065410853" y1="344.790552603" y2="346.703739838" /><line stroke="green" stroke-width="1" x1="399.632471378" x2="343.008556403" y1="278.872755577" y2="329.981606744" /><line stroke="green" stroke-width="1" x1="380.003154933" x2="333.597032756" y1="323.681090545" y2="372.031326455" /><line stroke="green" stroke-width="1" x1="375.280464614" x2="338.065410853" y1="332.784585101" y2="346.703739838" /><line stroke="green" stroke-width="1" x1="362.371499411" x2="333.597032756" y1="371.415610548" y2="372.031326455" /><line stroke="green" stroke-width="1" x1="359.905804565" x2="333.849513759" y1="378.091033612" y2="384.889403684" /></g></svg>
