<svg baseProfile="full" height="100%" version="1.1" width="100%" xmlns="http://www.w3.org/2000/svg" xmlns:ev="http://www.w3.org/2001/xml-events" xmlns:xlink="http://www.w3.org/1999/xlink"><defs /><g><polygon fill="white" points="200.0,200.0 400.0,200.0 400.0,400.0 200.0,400.0" stroke="lightgray" stroke-width="1" /><polygon fill="white" points="160.0,240.0 220.0,240.0 230.0,250.0 240.0,240.0 240.0,300.0 230.0,310.0 240.0,320.0 180.0,320.0 170.0,310.0 160.0,320.0 160.0,260.0 170.0,250.0" stroke="magenta" stroke-width="2" /><line stroke="green" stroke-width="1" x1="160.0" x2="160.0" y1="260.0" y2="320.0" /><line stroke="green" stroke-width="1" x1="180.0" x2="180.0" y1="280.0" y2="320.0" /><line stroke="green" stroke-width="1" x1="200.0" x2="200.0" y1="240.0" y2="320.0" /><line stroke="green" stroke-width="1" x1="180.0" x2="160.0" y1="240.0" y2="280.0" /><line stroke="green" stroke-width="1" x1="220.0" x2="220.0" y1="240.0" y2="280.0" /><line stroke="green" stroke-width="1" x1="240.0" x2="240.0" y1="240.0" y2="300.0" /><line stroke="green" stroke-width="1" x1="180.0" x2="160.0" y1="260.0" y2="300.0" /><line stroke="green" stroke-width="1" x1="200.0" x2="180.0" y1="240.0" y2="280.0" /><line stroke="green" stroke-width="1" x1="220.0" x2="240.0" y1="240.0" y2="260.0" /><line stroke="green" stroke-width="1" x1="180.0" x2="160.0" y1="240.0" y2="260.0" /><line stroke="green" stroke-width="1" x1="200.0" x2="180.0" y1="260.0" y2="300.0" /><line stroke="green" stroke-width="1" x1="200.0" x2="240.0" y1="240.0" y2="280.0" /><line stroke="green" stroke-width="1" x1="200.0" x2="160.0" y1="240.0" y2="280.0" /><line stroke="green" stroke-width="1" x1="220.0" x2="200.0" y1="260.0" y2="300.0" /><line stroke="green" stroke-width="1" x1="220.0" x2="200.0" y1="280.0" y2="320.0" /><line stroke="green" stroke-width="1" x1="240.0" x2="220.0" y1="260.0" y2="300.0" /><line stroke="green" stroke-width="1" x1="180.0" x2="220.0" y1="240.0" y2="280.0" /><line stroke="green" stroke-width="1" x1="200.0" x2="160.0" y1="260.0" y2="300.0" /><line stroke="green" stroke-width="1" x1="200.0" x2="240.0" y1="240.0" y2="260.0" /><line stroke="green" stroke-width="1" x1="240.0" x2="220.0" y1="280.0" y2="320.0" /><line stroke="green" stroke-width="1" x1="160.0" x2="240.0" y1="240.0" y2="320.0" /><line stroke="green" stroke-width="1" x1="180.0" x2="220.0" y1="240.0" y2="260.0" /><line stroke="green" stroke-width="1" x1="160.0" x2="220.0" y1="240.0" y2="240.0" /><line stroke="green" stroke-width="1" x1="240.0" x2="160.0" y1="240.0" y2="320.0" /><line stroke="green" stroke-width="1" x1="200.0" x2="240.0" y1="260.0" y2="280.0" /><line stroke="green" stroke-width="1" x1="180.0" x2="220.0" y1="280.0" y2="320.0" /><line stroke="green" stroke-width="1" x1="240.0" x2="200.0" y1="260.0" y2="300.0" /><line stroke="green" stroke-width="1" x1="180.0" x2="220.0" y1="260.0" y2="280.0" /><line stroke="green" stroke-width="1" x1="160.0" x2="200.0" y1="280.0" y2="320.0" /><line stroke="green" stroke-width="1" x1="160.0" x2="200.0" y1="260.0" y2="260.0" /><line stroke="green" stroke-width="1" x1="240.0" x2="200.0" y1="280.0" y2="320.0" /><line stroke="green" stroke-width="1" x1="160.0" x2="180.0" y1="300.0" y2="320.0" /><line stroke="green" stroke-width="1" x1="240.0" x2="220.0" y1="300.0" y2="320.0" /><line stroke="green" stroke-width="1" x1="180.0" x2="220.0" y1="280.0" y2="300.0" /><line stroke="green" stroke-width="1" x1="160.0" x2="200.0" y1="280.0" y2="300.0" /><line stroke="green" stroke-width="1" x1="160.0" x2="240.0" y1="280.0" y2="280.0" /><line stroke="green" stroke-width="1" x1="180.0" x2="220.0" y1="300.0" y2="320.0" /><line stroke="green" stroke-width="1" x1="160.0" x2="200.0" y1="300.0" y2="320.0" /><line stroke="green" stroke-width="1" x1="200.0" x2="240.0" y1="300.0" y2="300.0" /><line stroke="green" stroke-width="1" x1="180.0" x2="240.0" y1="320.0" y2="320.0" /></g></svg>
