<svg baseProfile="full" height="600" version="1.1" viewBox="0 0 600 600" width="600" xmlns="http://www.w3.org/2000/svg" xmlns:ev="http://www.w3.org/2001/xml-events" xmlns:xlink="http://www.w3.org/1999/xlink"><defs><style type="text/css"><![CDATA[
    rect { stroke: lightgray; stroke-width: 1; fill: white; }
    polygon { stroke: magenta; stroke-width: 2; fill: white; }
    line { stroke: green; stroke-width: 1; }
    ]]></style></defs><g><rect height="200" width="200" x="200" y="200" /><polygon points="283.582089552,203.125 315.217391304,203.125 396.875,285.148514851 389.61038961,340.476190476 388.405797101,344.927536232 341.025641026,396.875 310.447761194,396.875 243.67816092,369.014084507 203.125,334.939759036 203.125,241.304347826 223.880597015,223.188405797 262.162162162,206.741573034" /><line x1="315.217391304" x2="396.875" y1="203.125" y2="285.148514851" /><line x1="389.484157846" x2="393.100097901" y1="300.702586803" y2="313.898378596" /><line x1="276.088863459" x2="277.853813619" y1="204.39016766" y2="206.25" /><line x1="273.229461305" x2="275.370180449" y1="204.872953458" y2="205.979393894" /><line x1="274.248234564" x2="277.853813619" y1="204.700942235" y2="206.25" /><line x1="341.001826298" x2="354.759929574" y1="362.564243092" y2="381.816766431" /><line x1="341.001826298" x2="343.875885811" y1="362.564243092" y2="393.75" /><line x1="337.967620375" x2="341.025641026" y1="363.693123216" y2="396.875" /><line x1="337.967620375" x2="352.606344361" y1="363.693123216" y2="384.177950924" /><line x1="389.484157846" x2="389.61038961" y1="300.702586803" y2="340.476190476" /><line x1="203.125" x2="203.125" y1="241.304347826" y2="334.939759036" /><line x1="206.25" x2="206.25" y1="244.031916626" y2="332.314013849" /><line x1="315.217391304" x2="314.838333259" y1="203.125" y2="287.906761318" /><line x1="318.328450708" x2="317.963302025" y1="206.25" y2="287.920733009" /><line x1="262.162162162" x2="271.300840789" y1="206.741573034" y2="207.393863797" /><line x1="283.582089552" x2="315.217391304" y1="203.125" y2="203.125" /><line x1="277.853813619" x2="318.328450708" y1="206.25" y2="206.25" /><line x1="205.809477154" x2="210.486574185" y1="238.961277065" y2="245.462741192" /><line x1="223.880597015" x2="210.486574185" y1="223.188405797" y2="245.462741192" /><line x1="283.582089552" x2="262.162162162" y1="203.125" y2="206.741573034" /><line x1="205.809477154" x2="224.262222892" y1="238.961277065" y2="256.472627868" /><line x1="203.125" x2="206.25" y1="241.304347826" y2="244.031916626" /><line x1="223.880597015" x2="203.125" y1="223.188405797" y2="241.304347826" /><line x1="396.875" x2="389.61038961" y1="285.148514851" y2="340.476190476" /><line x1="262.162162162" x2="223.880597015" y1="206.741573034" y2="223.188405797" /><line x1="283.582089552" x2="271.300840789" y1="203.125" y2="207.393863797" /><line x1="218.198107673" x2="243.67816092" y1="329.130256064" y2="369.014084507" /><line x1="276.088863459" x2="275.370180449" y1="204.39016766" y2="205.979393894" /><line x1="273.229461305" x2="224.262222892" y1="204.872953458" y2="256.472627868" /><line x1="274.248234564" x2="271.300840789" y1="204.700942235" y2="207.393863797" /><line x1="234.978631899" x2="314.844327373" y1="316.17255827" y2="396.875" /><line x1="203.125" x2="210.486574185" y1="244.458302469" y2="245.462741192" /><line x1="206.25" x2="203.125" y1="244.031916626" y2="244.458302469" /><line x1="218.198107673" x2="210.096075692" y1="329.130256064" y2="340.797124938" /><line x1="394.324840392" x2="389.484157846" y1="282.586928028" y2="300.702586803" /><line x1="389.61038961" x2="388.405797101" y1="340.476190476" y2="344.927536232" /><line x1="353.772876382" x2="354.759929574" y1="381.240334412" y2="381.816766431" /><line x1="352.196951713" x2="352.606344361" y1="383.93886854" y2="384.177950924" /><line x1="234.978631899" x2="210.096075692" y1="316.17255827" y2="340.797124938" /><line x1="203.125" x2="243.67816092" y1="334.939759036" y2="369.014084507" /><line x1="206.25" x2="203.125" y1="332.314013849" y2="334.939759036" /><line x1="314.838333259" x2="373.061092872" y1="287.906761318" y2="288.167074446" /><line x1="396.875" x2="373.061092872" y1="285.148514851" y2="288.167074446" /><line x1="393.100097901" x2="352.196951713" y1="313.898378596" y2="383.93886854" /><line x1="394.324840392" x2="373.061092872" y1="282.586928028" y2="288.167074446" /><line x1="203.125" x2="206.25" y1="331.767295297" y2="332.314013849" /><line x1="218.198107673" x2="203.125" y1="329.130256064" y2="331.767295297" /><line x1="243.67816092" x2="310.447761194" y1="369.014084507" y2="396.875" /><line x1="317.93692647" x2="314.844327373" y1="393.75" y2="396.875" /><line x1="388.405797101" x2="341.025641026" y1="344.927536232" y2="396.875" /><line x1="388.405797101" x2="337.967620375" y1="344.927536232" y2="363.693123216" /><line x1="317.93692647" x2="343.875885811" y1="393.75" y2="393.75" /><line x1="310.447761194" x2="341.025641026" y1="396.875" y2="396.875" /><line x1="317.93692647" x2="310.447761194" y1="393.75" y2="396.875" /></g></svg>
