<svg baseProfile="full" height="100%" version="1.1" width="100%" xmlns="http://www.w3.org/2000/svg" xmlns:ev="http://www.w3.org/2001/xml-events" xmlns:xlink="http://www.w3.org/1999/xlink"><defs /><g><polygon fill="white" points="200.0,200.0 400.0,200.0 400.0,400.0 200.0,400.0" stroke="lightgray" stroke-width="1" /><polygon fill="white" points="262.01126437,264.676498434 390.152223088,287.382361505 405.638098822,299.091249228 388.146577036,350.503742852 341.630860268,334.678198983 337.328727359,337.793620604 337.765620137,338.449506022 321.015727606,349.606800998 297.468130063,315.712677159 200.0,345.505307165 182.972950809,320.255160564" stroke="magenta" stroke-width="2" /><line stroke="green" stroke-width="1" x1="390.152223088" x2="405.638098822" y1="287.382361505" y2="299.091249228" /><line stroke="green" stroke-width="1" x1="360.16483703" x2="393.219595796" y1="282.068763975" y2="307.659276083" /><line stroke="green" stroke-width="1" x1="292.186155627" x2="337.765620137" y1="270.023320839" y2="338.449506022" /><line stroke="green" stroke-width="1" x1="262.01126437" x2="321.015727606" y1="264.676498434" y2="349.606800998" /><line stroke="green" stroke-width="1" x1="200.0" x2="200.0" y1="333.03030303" y2="345.505307165" /><line stroke="green" stroke-width="1" x1="208.191453231" x2="207.261340086" y1="302.521854243" y2="343.285767113" /><line stroke="green" stroke-width="1" x1="302.450261751" x2="301.053121283" y1="271.842063188" y2="320.872869665" /><line stroke="green" stroke-width="1" x1="279.382551748" x2="286.703159655" y1="313.377189239" y2="319.003155598" /><line stroke="green" stroke-width="1" x1="302.450261751" x2="286.703159655" y1="271.842063188" y2="319.003155598" /><line stroke="green" stroke-width="1" x1="200.0" x2="207.261340086" y1="333.03030303" y2="343.285767113" /><line stroke="green" stroke-width="1" x1="182.972950809" x2="200.0" y1="320.255160564" y2="345.505307165" /><line stroke="green" stroke-width="1" x1="182.972950809" x2="197.183133128" y1="320.255160564" y2="339.645641377" /><line stroke="green" stroke-width="1" x1="262.01126437" x2="390.152223088" y1="264.676498434" y2="287.382361505" /><line stroke="green" stroke-width="1" x1="262.01126437" x2="182.972950809" y1="264.676498434" y2="320.255160564" /><line stroke="green" stroke-width="1" x1="405.638098822" x2="388.146577036" y1="299.091249228" y2="350.503742852" /><line stroke="green" stroke-width="1" x1="398.366146776" x2="393.219595796" y1="293.592918265" y2="307.659276083" /><line stroke="green" stroke-width="1" x1="301.053121283" x2="388.146577036" y1="320.872869665" y2="350.503742852" /><line stroke="green" stroke-width="1" x1="279.382551748" x2="271.483799605" y1="313.377189239" y2="323.655186601" /><line stroke="green" stroke-width="1" x1="292.186155627" x2="197.183133128" y1="270.023320839" y2="339.645641377" /><line stroke="green" stroke-width="1" x1="208.191453231" x2="271.483799605" y1="302.521854243" y2="323.655186601" /><line stroke="green" stroke-width="1" x1="360.16483703" x2="200.0" y1="282.068763975" y2="333.03030303" /><line stroke="green" stroke-width="1" x1="390.152223088" x2="200.0" y1="287.382361505" y2="345.505307165" /><line stroke="green" stroke-width="1" x1="398.366146776" x2="321.015727606" y1="293.592918265" y2="349.606800998" /><line stroke="green" stroke-width="1" x1="337.765620137" x2="321.015727606" y1="338.449506022" y2="349.606800998" /><line stroke="green" stroke-width="1" x1="405.638098822" x2="393.219595796" y1="299.091249228" y2="307.659276083" /></g></svg>
