<svg baseProfile="full" height="600" version="1.1" viewBox="0 0 600 600" width="600" xmlns="http://www.w3.org/2000/svg" xmlns:ev="http://www.w3.org/2001/xml-events" xmlns:xlink="http://www.w3.org/1999/xlink"><defs><style type="text/css"><![CDATA[
    rect { stroke: lightgray; stroke-width: 1; fill: white; }
    polygon { stroke: magenta; stroke-width: 2; fill: white; }
    line { stroke: green; stroke-width: 1; }
    ]]></style></defs><g><rect height="200" width="200" x="200" y="200" /><polygon points="275.0,175.0 300.0,200.0 308.333333333,200.0 312.5,187.5 325.0,175.0 425.0,175.0 400.0,200.0 400.0,208.333333333 412.5,212.5 425.0,225.0 425.0,325.0 400.0,300.0 391.666666667,300.0 387.5,312.5 375.0,325.0 275.0,325.0 300.0,300.0 300.0,291.666666667 287.5,287.5 275.0,275.0" /><line x1="412.5" x2="425.0" y1="212.5" y2="225.0" /><line x1="375.0" x2="400.0" y1="200.0" y2="225.0" /><line x1="350.0" x2="400.0" y1="200.0" y2="250.0" /><line x1="312.5" x2="362.5" y1="187.5" y2="237.5" /><line x1="400.0" x2="425.0" y1="275.0" y2="300.0" /><line x1="375.0" x2="412.5" y1="200.0" y2="212.5" /><line x1="275.0" x2="337.5" y1="175.0" y2="237.5" /><line x1="362.5" x2="425.0" y1="262.5" y2="325.0" /><line x1="312.5" x2="350.0" y1="187.5" y2="200.0" /><line x1="275.0" x2="300.0" y1="200.0" y2="225.0" /><line x1="337.5" x2="387.5" y1="262.5" y2="312.5" /><line x1="325.0" x2="425.0" y1="175.0" y2="175.0" /><line x1="300.0" x2="350.0" y1="250.0" y2="300.0" /><line x1="362.5" x2="400.0" y1="237.5" y2="250.0" /><line x1="300.0" x2="325.0" y1="275.0" y2="300.0" /><line x1="300.0" x2="337.5" y1="225.0" y2="237.5" /><line x1="275.0" x2="325.0" y1="200.0" y2="200.0" /><line x1="275.0" x2="287.5" y1="275.0" y2="287.5" /><line x1="275.0" x2="275.0" y1="175.0" y2="275.0" /><line x1="300.0" x2="300.0" y1="275.0" y2="325.0" /><line x1="325.0" x2="325.0" y1="175.0" y2="200.0" /><line x1="375.0" x2="375.0" y1="300.0" y2="325.0" /><line x1="400.0" x2="400.0" y1="175.0" y2="225.0" /><line x1="425.0" x2="425.0" y1="225.0" y2="325.0" /><line x1="362.5" x2="400.0" y1="262.5" y2="275.0" /><line x1="300.0" x2="337.5" y1="250.0" y2="262.5" /><line x1="400.0" x2="425.0" y1="225.0" y2="225.0" /><line x1="312.5" x2="300.0" y1="187.5" y2="225.0" /><line x1="300.0" x2="287.5" y1="250.0" y2="287.5" /><line x1="350.0" x2="387.5" y1="300.0" y2="312.5" /><line x1="350.0" x2="337.5" y1="200.0" y2="237.5" /><line x1="337.5" x2="325.0" y1="262.5" y2="300.0" /><line x1="325.0" x2="312.5" y1="175.0" y2="187.5" /><line x1="287.5" x2="325.0" y1="287.5" y2="300.0" /><line x1="375.0" x2="362.5" y1="200.0" y2="237.5" /><line x1="362.5" x2="350.0" y1="262.5" y2="300.0" /><line x1="325.0" x2="300.0" y1="200.0" y2="225.0" /><line x1="412.5" x2="400.0" y1="212.5" y2="250.0" /><line x1="400.0" x2="387.5" y1="275.0" y2="312.5" /><line x1="275.0" x2="300.0" y1="275.0" y2="275.0" /><line x1="350.0" x2="300.0" y1="200.0" y2="250.0" /><line x1="400.0" x2="375.0" y1="175.0" y2="200.0" /><line x1="337.5" x2="287.5" y1="237.5" y2="287.5" /><line x1="375.0" x2="425.0" y1="300.0" y2="300.0" /><line x1="425.0" x2="362.5" y1="175.0" y2="237.5" /><line x1="337.5" x2="275.0" y1="262.5" y2="325.0" /><line x1="412.5" x2="362.5" y1="212.5" y2="262.5" /><line x1="325.0" x2="300.0" y1="300.0" y2="325.0" /><line x1="275.0" x2="375.0" y1="325.0" y2="325.0" /><line x1="400.0" x2="350.0" y1="250.0" y2="300.0" /><line x1="400.0" x2="375.0" y1="275.0" y2="300.0" /><line x1="387.5" x2="375.0" y1="312.5" y2="325.0" /></g></svg>
