<svg baseProfile="full" height="100%" version="1.1" width="100%" xmlns="http://www.w3.org/2000/svg" xmlns:ev="http://www.w3.org/2001/xml-events" xmlns:xlink="http://www.w3.org/1999/xlink"><defs /><g><polygon fill="white" points="200.0,200.0 400.0,200.0 400.0,400.0 200.0,400.0" stroke="lightgray" stroke-width="1" /><polygon fill="white" points="244.117647059,203.125 339.473684211,203.125 396.875,227.692307692 396.875,291.836734694 395.698924731,301.851851852 366.153846154,380.281690141 313.580246914,396.875 258.666666667,396.875 203.125,370.454545455 203.125,225.714285714" stroke="magenta" stroke-width="2" /><line stroke="green" stroke-width="1" x1="393.75" x2="396.875" y1="229.029782896" y2="232.011813911" /><line stroke="green" stroke-width="1" x1="335.154177992" x2="378.998045851" y1="203.125" y2="249.070896062" /><line stroke="green" stroke-width="1" x1="394.159910888" x2="396.582631088" y1="289.748492506" y2="294.326463865" /><line stroke="green" stroke-width="1" x1="339.473684211" x2="396.875" y1="203.125" y2="227.692307692" /><line stroke="green" stroke-width="1" x1="393.75" x2="396.875" y1="265.225137674" y2="278.347451799" /><line stroke="green" stroke-width="1" x1="351.510089306" x2="352.340095342" y1="370.283138099" y2="373.517722737" /><line stroke="green" stroke-width="1" x1="394.159910888" x2="395.698924731" y1="289.748492506" y2="301.851851852" /><line stroke="green" stroke-width="1" x1="393.75" x2="396.875" y1="265.225137674" y2="291.836734694" /><line stroke="green" stroke-width="1" x1="203.125" x2="203.125" y1="225.714285714" y2="370.454545455" /><line stroke="green" stroke-width="1" x1="206.25" x2="206.25" y1="223.992232543" y2="368.968023256" /><line stroke="green" stroke-width="1" x1="393.75" x2="393.75" y1="229.029782896" y2="265.225137674" /><line stroke="green" stroke-width="1" x1="396.875" x2="396.875" y1="227.692307692" y2="291.836734694" /><line stroke="green" stroke-width="1" x1="244.117647059" x2="339.473684211" y1="203.125" y2="203.125" /><line stroke="green" stroke-width="1" x1="238.446727505" x2="332.172146977" y1="206.25" y2="206.25" /><line stroke="green" stroke-width="1" x1="206.25" x2="223.891104364" y1="223.992232543" y2="235.138210779" /><line stroke="green" stroke-width="1" x1="203.125" x2="222.221923656" y1="225.714285714" y2="237.780077688" /><line stroke="green" stroke-width="1" x1="238.446727505" x2="219.580056747" y1="206.25" y2="236.11089698" /><line stroke="green" stroke-width="1" x1="244.117647059" x2="222.221923656" y1="203.125" y2="237.780077688" /><line stroke="green" stroke-width="1" x1="244.117647059" x2="203.125" y1="203.125" y2="225.714285714" /><line stroke="green" stroke-width="1" x1="396.875" x2="395.698924731" y1="291.836734694" y2="301.851851852" /><line stroke="green" stroke-width="1" x1="327.710161647" x2="344.17034964" y1="372.767903121" y2="387.22013405" /><line stroke="green" stroke-width="1" x1="347.631856998" x2="344.17034964" y1="373.002090023" y2="387.22013405" /><line stroke="green" stroke-width="1" x1="351.510089306" x2="366.153846154" y1="370.283138099" y2="380.281690141" /><line stroke="green" stroke-width="1" x1="224.07530508" x2="262.694649988" y1="349.388358653" y2="396.875" /><line stroke="green" stroke-width="1" x1="396.875" x2="394.159910888" y1="278.347451799" y2="289.748492506" /><line stroke="green" stroke-width="1" x1="339.473684211" x2="332.172146977" y1="203.125" y2="206.25" /><line stroke="green" stroke-width="1" x1="335.154177992" x2="332.172146977" y1="203.125" y2="206.25" /><line stroke="green" stroke-width="1" x1="395.698924731" x2="366.153846154" y1="301.851851852" y2="380.281690141" /><line stroke="green" stroke-width="1" x1="396.875" x2="393.75" y1="227.692307692" y2="229.029782896" /><line stroke="green" stroke-width="1" x1="203.125" x2="206.25" y1="366.426562133" y2="368.968023256" /><line stroke="green" stroke-width="1" x1="224.07530508" x2="203.125" y1="349.388358653" y2="366.426562133" /><line stroke="green" stroke-width="1" x1="265.236111111" x2="262.694649988" y1="393.75" y2="396.875" /><line stroke="green" stroke-width="1" x1="396.875" x2="378.998045851" y1="232.011813911" y2="249.070896062" /><line stroke="green" stroke-width="1" x1="203.125" x2="258.666666667" y1="370.454545455" y2="396.875" /><line stroke="green" stroke-width="1" x1="396.582631088" x2="327.710161647" y1="294.326463865" y2="372.767903121" /><line stroke="green" stroke-width="1" x1="206.25" x2="203.125" y1="368.968023256" y2="370.454545455" /><line stroke="green" stroke-width="1" x1="347.631856998" x2="352.340095342" y1="373.002090023" y2="373.517722737" /><line stroke="green" stroke-width="1" x1="265.236111111" x2="258.666666667" y1="393.75" y2="396.875" /><line stroke="green" stroke-width="1" x1="351.510089306" x2="313.580246914" y1="370.283138099" y2="396.875" /><line stroke="green" stroke-width="1" x1="352.340095342" x2="323.481375683" y1="373.517722737" y2="393.75" /><line stroke="green" stroke-width="1" x1="265.236111111" x2="323.481375683" y1="393.75" y2="393.75" /><line stroke="green" stroke-width="1" x1="258.666666667" x2="313.580246914" y1="396.875" y2="396.875" /><line stroke="green" stroke-width="1" x1="366.153846154" x2="313.580246914" y1="380.281690141" y2="396.875" /></g></svg>
