<svg baseProfile="full" height="100%" version="1.1" width="100%" xmlns="http://www.w3.org/2000/svg" xmlns:ev="http://www.w3.org/2001/xml-events" xmlns:xlink="http://www.w3.org/1999/xlink"><defs /><g><polygon fill="white" points="200.0,200.0 400.0,200.0 400.0,400.0 200.0,400.0" stroke="lightgray" stroke-width="1" /><polygon fill="white" points="276.363636364,225.454545455 315.151515152,254.545454545 345.454545455,254.545454545 374.545454545,276.363636364 345.454545455,315.151515152 345.454545455,345.454545455 323.636363636,374.545454545 284.848484848,345.454545455 254.545454545,345.454545455 225.454545455,323.636363636 254.545454545,284.848484848 254.545454545,254.545454545" stroke="magenta" stroke-width="2" /><line stroke="green" stroke-width="1" x1="345.454545455" x2="374.545454545" y1="254.545454545" y2="276.363636364" /><line stroke="green" stroke-width="1" x1="276.363636364" x2="363.636363636" y1="225.454545455" y2="290.909090909" /><line stroke="green" stroke-width="1" x1="254.545454545" x2="254.545454545" y1="254.545454545" y2="345.454545455" /><line stroke="green" stroke-width="1" x1="345.454545455" x2="345.454545455" y1="254.545454545" y2="345.454545455" /><line stroke="green" stroke-width="1" x1="254.545454545" x2="341.818181818" y1="254.545454545" y2="320.0" /><line stroke="green" stroke-width="1" x1="258.181818182" x2="345.454545455" y1="280.0" y2="345.454545455" /><line stroke="green" stroke-width="1" x1="276.363636364" x2="254.545454545" y1="225.454545455" y2="254.545454545" /><line stroke="green" stroke-width="1" x1="236.363636364" x2="323.636363636" y1="309.090909091" y2="374.545454545" /><line stroke="green" stroke-width="1" x1="254.545454545" x2="345.454545455" y1="254.545454545" y2="254.545454545" /><line stroke="green" stroke-width="1" x1="290.909090909" x2="225.454545455" y1="236.363636364" y2="323.636363636" /><line stroke="green" stroke-width="1" x1="225.454545455" x2="254.545454545" y1="323.636363636" y2="345.454545455" /><line stroke="green" stroke-width="1" x1="320.0" x2="254.545454545" y1="258.181818182" y2="345.454545455" /><line stroke="green" stroke-width="1" x1="345.454545455" x2="280.0" y1="254.545454545" y2="341.818181818" /><line stroke="green" stroke-width="1" x1="374.545454545" x2="309.090909091" y1="276.363636364" y2="363.636363636" /><line stroke="green" stroke-width="1" x1="345.454545455" x2="323.636363636" y1="345.454545455" y2="374.545454545" /><line stroke="green" stroke-width="1" x1="254.545454545" x2="345.454545455" y1="345.454545455" y2="345.454545455" /></g></svg>
