<svg baseProfile="full" height="100%" version="1.1" width="100%" xmlns="http://www.w3.org/2000/svg" xmlns:ev="http://www.w3.org/2001/xml-events" xmlns:xlink="http://www.w3.org/1999/xlink"><defs /><g><polygon fill="white" points="200.0,200.0 400.0,200.0 400.0,400.0 200.0,400.0" stroke="lightgray" stroke-width="1" /><polygon fill="white" points="195.238095238,200.0 204.761904762,200.0 209.803921569,210.084033613 277.777777778,257.142857143 258.666666667,322.666666667 241.514041514,317.663817664 227.619047619,336.19047619 200.0,315.476190476 172.380952381,336.19047619 158.485958486,317.663817664 141.333333333,322.666666667 122.222222222,257.142857143 190.196078431,210.084033613" stroke="magenta" stroke-width="2" /><line stroke="green" stroke-width="1" x1="195.238095238" x2="145.238095238" y1="200.0" y2="300.0" /><line stroke="green" stroke-width="1" x1="204.761904762" x2="254.761904762" y1="200.0" y2="300.0" /><line stroke="green" stroke-width="1" x1="195.238095238" x2="180.952380952" y1="200.0" y2="300.0" /><line stroke="green" stroke-width="1" x1="204.761904762" x2="219.047619048" y1="200.0" y2="300.0" /><line stroke="green" stroke-width="1" x1="195.238095238" x2="204.761904762" y1="200.0" y2="200.0" /><line stroke="green" stroke-width="1" x1="195.238095238" x2="277.777777778" y1="200.0" y2="257.142857143" /><line stroke="green" stroke-width="1" x1="204.761904762" x2="122.222222222" y1="200.0" y2="257.142857143" /><line stroke="green" stroke-width="1" x1="122.222222222" x2="141.333333333" y1="257.142857143" y2="322.666666667" /><line stroke="green" stroke-width="1" x1="277.777777778" x2="258.666666667" y1="257.142857143" y2="322.666666667" /><line stroke="green" stroke-width="1" x1="145.238095238" x2="172.380952381" y1="300.0" y2="336.19047619" /><line stroke="green" stroke-width="1" x1="254.761904762" x2="227.619047619" y1="300.0" y2="336.19047619" /><line stroke="green" stroke-width="1" x1="122.222222222" x2="227.619047619" y1="257.142857143" y2="336.19047619" /><line stroke="green" stroke-width="1" x1="277.777777778" x2="172.380952381" y1="257.142857143" y2="336.19047619" /><line stroke="green" stroke-width="1" x1="180.952380952" x2="258.666666667" y1="300.0" y2="322.666666667" /><line stroke="green" stroke-width="1" x1="219.047619048" x2="141.333333333" y1="300.0" y2="322.666666667" /><line stroke="green" stroke-width="1" x1="145.238095238" x2="254.761904762" y1="300.0" y2="300.0" /></g></svg>
