<svg baseProfile="full" height="100%" version="1.1" width="100%" xmlns="http://www.w3.org/2000/svg" xmlns:ev="http://www.w3.org/2001/xml-events" xmlns:xlink="http://www.w3.org/1999/xlink"><defs /><g><polygon fill="white" points="200.0,200.0 400.0,200.0 400.0,400.0 200.0,400.0" stroke="lightgray" stroke-width="1" /><polygon fill="white" points="212.5,287.5 362.5,287.5 387.5,312.5 387.5,337.5 325.0,400.0 287.5,362.5 275.0,375.0 200.0,300.0" stroke="magenta" stroke-width="2" /><line stroke="green" stroke-width="1" x1="362.5" x2="387.5" y1="287.5" y2="312.5" /><line stroke="green" stroke-width="1" x1="375.0" x2="387.5" y1="325.0" y2="337.5" /><line stroke="green" stroke-width="1" x1="275.0" x2="275.0" y1="287.5" y2="375.0" /><line stroke="green" stroke-width="1" x1="325.0" x2="325.0" y1="287.5" y2="400.0" /><line stroke="green" stroke-width="1" x1="387.5" x2="387.5" y1="312.5" y2="337.5" /><line stroke="green" stroke-width="1" x1="212.5" x2="325.0" y1="287.5" y2="400.0" /><line stroke="green" stroke-width="1" x1="200.0" x2="275.0" y1="300.0" y2="375.0" /><line stroke="green" stroke-width="1" x1="212.5" x2="200.0" y1="287.5" y2="300.0" /><line stroke="green" stroke-width="1" x1="212.5" x2="362.5" y1="287.5" y2="287.5" /><line stroke="green" stroke-width="1" x1="200.0" x2="325.0" y1="300.0" y2="300.0" /><line stroke="green" stroke-width="1" x1="275.0" x2="387.5" y1="325.0" y2="325.0" /><line stroke="green" stroke-width="1" x1="362.5" x2="275.0" y1="287.5" y2="375.0" /><line stroke="green" stroke-width="1" x1="387.5" x2="375.0" y1="312.5" y2="325.0" /><line stroke="green" stroke-width="1" x1="387.5" x2="325.0" y1="337.5" y2="400.0" /></g></svg>
