<svg baseProfile="full" height="100%" version="1.1" width="100%" xmlns="http://www.w3.org/2000/svg" xmlns:ev="http://www.w3.org/2001/xml-events" xmlns:xlink="http://www.w3.org/1999/xlink"><defs /><g><polygon fill="white" points="200.0,200.0 400.0,200.0 400.0,400.0 200.0,400.0" stroke="lightgray" stroke-width="1" /><polygon fill="white" points="262.577777778,188.622222222 266.85660019,200.0 308.571428571,200.0 314.658482728,210.652344775 326.388464737,205.93752655 376.185842417,276.91893608 405.9782233,279.892059148 402.006163336,319.694354806 396.565333268,327.337956434 239.735476041,240.767340445 232.323232323,200.0" stroke="magenta" stroke-width="2" /><line stroke="green" stroke-width="1" x1="326.388464737" x2="402.105704688" y1="205.93752655" y2="313.865226117" /><line stroke="green" stroke-width="1" x1="308.571428571" x2="374.318711693" y1="200.0" y2="315.057745462" /><line stroke="green" stroke-width="1" x1="387.405729139" x2="391.50938637" y1="292.911813846" y2="324.547056505" /><line stroke="green" stroke-width="1" x1="262.577777778" x2="293.30936662" y1="188.622222222" y2="270.340310735" /><line stroke="green" stroke-width="1" x1="280.768201083" x2="289.567705753" y1="256.971950244" y2="268.274901178" /><line stroke="green" stroke-width="1" x1="232.323232323" x2="239.735476041" y1="200.0" y2="240.767340445" /><line stroke="green" stroke-width="1" x1="283.838581976" x2="387.405729139" y1="239.485531743" y2="292.911813846" /><line stroke="green" stroke-width="1" x1="232.323232323" x2="308.571428571" y1="200.0" y2="200.0" /><line stroke="green" stroke-width="1" x1="280.768201083" x2="339.340240197" y1="256.971950244" y2="292.849549997" /><line stroke="green" stroke-width="1" x1="262.577777778" x2="232.323232323" y1="188.622222222" y2="200.0" /><line stroke="green" stroke-width="1" x1="239.735476041" x2="396.565333268" y1="240.767340445" y2="327.337956434" /><line stroke="green" stroke-width="1" x1="405.9782233" x2="402.006163336" y1="279.892059148" y2="319.694354806" /><line stroke="green" stroke-width="1" x1="283.838581976" x2="273.548768349" y1="239.485531743" y2="259.432393105" /><line stroke="green" stroke-width="1" x1="308.571428571" x2="273.548768349" y1="200.0" y2="259.432393105" /><line stroke="green" stroke-width="1" x1="326.388464737" x2="239.735476041" y1="205.93752655" y2="240.767340445" /><line stroke="green" stroke-width="1" x1="289.567705753" x2="405.9782233" y1="268.274901178" y2="279.892059148" /><line stroke="green" stroke-width="1" x1="326.388464737" x2="280.768201083" y1="205.93752655" y2="256.971950244" /><line stroke="green" stroke-width="1" x1="361.724635511" x2="293.30936662" y1="256.305865724" y2="270.340310735" /><line stroke="green" stroke-width="1" x1="361.724635511" x2="339.340240197" y1="256.305865724" y2="292.849549997" /><line stroke="green" stroke-width="1" x1="402.105704688" x2="396.565333268" y1="313.865226117" y2="327.337956434" /><line stroke="green" stroke-width="1" x1="402.105704688" x2="374.318711693" y1="313.865226117" y2="315.057745462" /><line stroke="green" stroke-width="1" x1="402.006163336" x2="396.565333268" y1="319.694354806" y2="327.337956434" /><line stroke="green" stroke-width="1" x1="402.006163336" x2="391.50938637" y1="319.694354806" y2="324.547056505" /></g></svg>
