<svg baseProfile="full" height="100%" version="1.1" width="100%" xmlns="http://www.w3.org/2000/svg" xmlns:ev="http://www.w3.org/2001/xml-events" xmlns:xlink="http://www.w3.org/1999/xlink"><defs /><g><polygon fill="white" points="200.0,200.0 400.0,200.0 400.0,400.0 200.0,400.0" stroke="lightgray" stroke-width="1" /><polygon fill="white" points="250.206033764,211.921421804 288.002735569,259.16729906 314.408866995,400.0 267.421746673,418.26220061 237.265168553,420.868324646 232.766508328,412.15193029 232.931213999,411.332192912 239.822873429,412.716899068 243.813104885,400.0 200.0,400.0 200.0,260.606060606 234.576495294,227.077337896 235.876702831,221.298637736" stroke="magenta" stroke-width="2" /><line stroke="green" stroke-width="1" x1="250.206033764" x2="288.002735569" y1="211.921421804" y2="259.16729906" /><line stroke="green" stroke-width="1" x1="288.002735569" x2="314.408866995" y1="259.16729906" y2="400.0" /><line stroke="green" stroke-width="1" x1="200.0" x2="200.0" y1="260.606060606" y2="400.0" /><line stroke="green" stroke-width="1" x1="261.691256275" x2="260.577378135" y1="226.277949943" y2="262.470421202" /><line stroke="green" stroke-width="1" x1="235.876702831" x2="205.693776001" y1="221.298637736" y2="355.444979199" /><line stroke="green" stroke-width="1" x1="235.876702831" x2="261.691256275" y1="221.298637736" y2="226.277949943" /><line stroke="green" stroke-width="1" x1="232.931213999" x2="232.766508328" y1="411.332192912" y2="412.15193029" /><line stroke="green" stroke-width="1" x1="288.002735569" x2="237.265168553" y1="259.16729906" y2="420.868324646" /><line stroke="green" stroke-width="1" x1="250.206033764" x2="200.0" y1="211.921421804" y2="260.606060606" /><line stroke="green" stroke-width="1" x1="232.766508328" x2="237.265168553" y1="412.15193029" y2="420.868324646" /><line stroke="green" stroke-width="1" x1="250.206033764" x2="235.876702831" y1="211.921421804" y2="221.298637736" /><line stroke="green" stroke-width="1" x1="200.0" x2="260.577378135" y1="260.606060606" y2="262.470421202" /><line stroke="green" stroke-width="1" x1="205.693776001" x2="310.475269867" y1="355.444979199" y2="379.020815319" /><line stroke="green" stroke-width="1" x1="232.766508328" x2="249.865040313" y1="412.15193029" y2="419.77944684" /><line stroke="green" stroke-width="1" x1="310.475269867" x2="249.865040313" y1="379.020815319" y2="419.77944684" /><line stroke="green" stroke-width="1" x1="232.931213999" x2="267.421746673" y1="411.332192912" y2="418.26220061" /><line stroke="green" stroke-width="1" x1="200.0" x2="314.408866995" y1="400.0" y2="400.0" /><line stroke="green" stroke-width="1" x1="314.408866995" x2="267.421746673" y1="400.0" y2="418.26220061" /><line stroke="green" stroke-width="1" x1="267.421746673" x2="237.265168553" y1="418.26220061" y2="420.868324646" /></g></svg>
