<svg baseProfile="full" height="100%" version="1.1" width="100%" xmlns="http://www.w3.org/2000/svg" xmlns:ev="http://www.w3.org/2001/xml-events" xmlns:xlink="http://www.w3.org/1999/xlink"><defs /><g><polygon fill="white" points="200.0,200.0 400.0,200.0 400.0,400.0 200.0,400.0" stroke="lightgray" stroke-width="1" /><polygon fill="white" points="200.0,200.0 400.0,200.0 400.0,207.851133043 420.315631068,207.187150484 465.416380666,262.937107177 400.0,315.857826384 200.0,220.40328093" stroke="magenta" stroke-width="2" /><line stroke="green" stroke-width="1" x1="420.315631068" x2="465.416380666" y1="207.187150484" y2="262.937107177" /><line stroke="green" stroke-width="1" x1="200.0" x2="400.0" y1="200.0" y2="200.0" /><line stroke="green" stroke-width="1" x1="200.0" x2="200.0" y1="200.0" y2="220.40328093" /><line stroke="green" stroke-width="1" x1="400.0" x2="400.0" y1="200.0" y2="315.857826384" /><line stroke="green" stroke-width="1" x1="207.748919346" x2="251.29402442" y1="214.134539359" y2="244.884519857" /><line stroke="green" stroke-width="1" x1="207.748919346" x2="200.0" y1="214.134539359" y2="220.40328093" /><line stroke="green" stroke-width="1" x1="420.315631068" x2="207.748919346" y1="207.187150484" y2="214.134539359" /><line stroke="green" stroke-width="1" x1="200.0" x2="400.0" y1="220.40328093" y2="315.857826384" /><line stroke="green" stroke-width="1" x1="251.29402442" x2="363.221179043" y1="244.884519857" y2="276.555410808" /><line stroke="green" stroke-width="1" x1="363.221179043" x2="357.799332214" y1="276.555410808" y2="295.716598577" /><line stroke="green" stroke-width="1" x1="420.315631068" x2="357.799332214" y1="207.187150484" y2="295.716598577" /><line stroke="green" stroke-width="1" x1="465.416380666" x2="400.0" y1="262.937107177" y2="315.857826384" /></g></svg>
