<svg baseProfile="full" height="100%" version="1.1" width="100%" xmlns="http://www.w3.org/2000/svg" xmlns:ev="http://www.w3.org/2001/xml-events" xmlns:xlink="http://www.w3.org/1999/xlink"><defs /><g><polygon fill="white" points="200.0,200.0 400.0,200.0 400.0,400.0 200.0,400.0" stroke="lightgray" stroke-width="1" /><polygon fill="white" points="339.655172414,124.137931034 374.137931034,160.344827586 372.413793103,231.034482759 336.206896552,265.517241379 300.574712644,276.436781609 286.896551724,257.24137931 300.985221675,259.60591133 301.724137931,229.310344828 337.931034483,194.827586207" stroke="magenta" stroke-width="2" /><line stroke="green" stroke-width="1" x1="339.655172414" x2="374.137931034" y1="124.137931034" y2="160.344827586" /><line stroke="green" stroke-width="1" x1="337.931034483" x2="372.413793103" y1="194.827586207" y2="231.034482759" /><line stroke="green" stroke-width="1" x1="286.896551724" x2="300.574712644" y1="257.24137931" y2="276.436781609" /><line stroke="green" stroke-width="1" x1="301.724137931" x2="300.574712644" y1="229.310344828" y2="276.436781609" /><line stroke="green" stroke-width="1" x1="339.655172414" x2="337.931034483" y1="124.137931034" y2="194.827586207" /><line stroke="green" stroke-width="1" x1="374.137931034" x2="372.413793103" y1="160.344827586" y2="231.034482759" /><line stroke="green" stroke-width="1" x1="301.724137931" x2="372.413793103" y1="229.310344828" y2="231.034482759" /><line stroke="green" stroke-width="1" x1="286.896551724" x2="336.206896552" y1="257.24137931" y2="265.517241379" /><line stroke="green" stroke-width="1" x1="374.137931034" x2="301.724137931" y1="160.344827586" y2="229.310344828" /><line stroke="green" stroke-width="1" x1="336.206896552" x2="300.574712644" y1="265.517241379" y2="276.436781609" /><line stroke="green" stroke-width="1" x1="372.413793103" x2="336.206896552" y1="231.034482759" y2="265.517241379" /></g></svg>
