<svg baseProfile="full" height="600" version="1.1" viewBox="0 0 600 600" width="600" xmlns="http://www.w3.org/2000/svg" xmlns:ev="http://www.w3.org/2001/xml-events" xmlns:xlink="http://www.w3.org/1999/xlink"><defs><style type="text/css"><![CDATA[
    rect { stroke: lightgray; stroke-width: 1; fill: white; }
    polygon { stroke: magenta; stroke-width: 2; fill: white; }
    line { stroke: green; stroke-width: 1; }
    ]]></style></defs><g><rect height="200" width="200" x="200" y="200" /><polygon points="300.0,250.0 375.0,250.0 375.0,275.0 387.5,287.5 387.5,312.5 362.5,337.5 337.5,337.5 325.0,325.0 312.5,337.5 250.0,275.0 275.0,275.0" /><line x1="375.0" x2="387.5" y1="275.0" y2="287.5" /><line x1="300.0" x2="312.5" y1="250.0" y2="262.5" /><line x1="275.0" x2="337.5" y1="275.0" y2="337.5" /><line x1="275.0" x2="275.0" y1="275.0" y2="300.0" /><line x1="300.0" x2="300.0" y1="300.0" y2="325.0" /><line x1="325.0" x2="325.0" y1="250.0" y2="325.0" /><line x1="350.0" x2="350.0" y1="275.0" y2="337.5" /><line x1="362.5" x2="362.5" y1="312.5" y2="337.5" /><line x1="375.0" x2="375.0" y1="250.0" y2="275.0" /><line x1="375.0" x2="375.0" y1="300.0" y2="325.0" /><line x1="387.5" x2="387.5" y1="287.5" y2="312.5" /><line x1="250.0" x2="312.5" y1="275.0" y2="337.5" /><line x1="300.0" x2="375.0" y1="250.0" y2="250.0" /><line x1="312.5" x2="375.0" y1="262.5" y2="262.5" /><line x1="250.0" x2="375.0" y1="275.0" y2="275.0" /><line x1="300.0" x2="262.5" y1="250.0" y2="287.5" /><line x1="325.0" x2="312.5" y1="250.0" y2="262.5" /><line x1="275.0" x2="387.5" y1="300.0" y2="300.0" /><line x1="362.5" x2="387.5" y1="312.5" y2="312.5" /><line x1="300.0" x2="325.0" y1="325.0" y2="325.0" /><line x1="350.0" x2="375.0" y1="325.0" y2="325.0" /><line x1="375.0" x2="312.5" y1="275.0" y2="337.5" /><line x1="337.5" x2="362.5" y1="337.5" y2="337.5" /><line x1="387.5" x2="375.0" y1="287.5" y2="300.0" /><line x1="350.0" x2="337.5" y1="325.0" y2="337.5" /><line x1="387.5" x2="362.5" y1="312.5" y2="337.5" /></g></svg>
