<svg baseProfile="full" height="600" version="1.1" viewBox="0 0 600 600" width="600" xmlns="http://www.w3.org/2000/svg" xmlns:ev="http://www.w3.org/2001/xml-events" xmlns:xlink="http://www.w3.org/1999/xlink"><defs><style type="text/css"><![CDATA[
    rect { stroke: lightgray; stroke-width: 1; fill: white; }
    polygon { stroke: magenta; stroke-width: 2; fill: white; }
    line { stroke: green; stroke-width: 1; }
    ]]></style></defs><g><rect height="200" width="200" x="200" y="200" /><polygon points="316.666666667,316.666666667 333.333333333,333.333333333 333.333333333,366.666666667 366.666666667,400.0 333.333333333,400.0 366.666666667,433.333333334 300.0,433.333333334 300.0,333.333333333" /><line x1="316.666666667" x2="333.333333333" y1="316.666666667" y2="333.333333333" /><line x1="300.0" x2="300.0" y1="333.333333333" y2="433.333333334" /><line x1="316.666666667" x2="316.666666667" y1="350.0" y2="400.0" /><line x1="333.333333333" x2="333.333333333" y1="333.333333333" y2="433.333333334" /><line x1="300.0" x2="366.666666667" y1="333.333333333" y2="400.0" /><line x1="300.0" x2="366.666666667" y1="366.666666667" y2="433.333333334" /><line x1="316.666666667" x2="300.0" y1="316.666666667" y2="333.333333333" /><line x1="333.333333333" x2="300.0" y1="333.333333333" y2="366.666666667" /><line x1="333.333333333" x2="300.0" y1="366.666666667" y2="400.0" /><line x1="300.0" x2="366.666666667" y1="400.0" y2="400.0" /><line x1="300.0" x2="366.666666667" y1="433.333333334" y2="433.333333334" /></g></svg>
