<svg baseProfile="full" height="600" version="1.1" viewBox="0 0 600 600" width="600" xmlns="http://www.w3.org/2000/svg" xmlns:ev="http://www.w3.org/2001/xml-events" xmlns:xlink="http://www.w3.org/1999/xlink"><defs><style type="text/css"><![CDATA[
    rect { stroke: lightgray; stroke-width: 1; fill: white; }
    polygon { stroke: magenta; stroke-width: 2; fill: white; }
    line { stroke: green; stroke-width: 1; }
    ]]></style></defs><g><rect height="200" width="200" x="200" y="200" /><polygon points="311.428571429,255.882352941 316.923076923,396.875 203.125,278.125 203.125,257.575757576" /><line x1="316.059062095" x2="316.923076923" y1="393.869349626" y2="396.875" /><line x1="297.486152203" x2="312.889388716" y1="316.043405123" y2="392.665785859" /><line x1="300.143162521" x2="313.320061322" y1="284.277476008" y2="393.115199183" /><line x1="311.428571429" x2="316.923076923" y1="255.882352941" y2="396.875" /><line x1="222.696010274" x2="226.203848436" y1="257.269750682" y2="302.208124477" /><line x1="231.815309012" x2="231.861989975" y1="296.58652022" y2="308.112480033" /><line x1="203.125" x2="203.125" y1="257.575757576" y2="278.125" /><line x1="206.25" x2="206.25" y1="257.62461921" y2="281.385984368" /><line x1="206.25" x2="205.53025856" y1="257.62461921" y2="280.634923381" /><line x1="240.146084697" x2="240.131105607" y1="279.702383321" y2="281.026381125" /><line x1="311.428571429" x2="310.998986802" y1="255.882352941" y2="311.805473351" /><line x1="222.696010274" x2="220.859190045" y1="257.269750682" y2="296.630893288" /><line x1="240.146084697" x2="237.601067665" y1="279.702383321" y2="314.101293677" /><line x1="203.125" x2="316.923076923" y1="278.125" y2="396.875" /><line x1="203.125" x2="206.25" y1="257.575757576" y2="257.62461921" /><line x1="311.428571429" x2="203.125" y1="255.882352941" y2="257.575757576" /><line x1="203.125" x2="312.476941973" y1="278.125" y2="282.784234888" /><line x1="205.53025856" x2="240.131105607" y1="280.634923381" y2="281.026381125" /><line x1="206.25" x2="312.599036934" y1="281.385984368" y2="285.917272375" /><line x1="312.476941973" x2="300.143162521" y1="282.784234888" y2="284.277476008" /><line x1="231.815309012" x2="220.859190045" y1="296.58652022" y2="296.630893288" /><line x1="226.203848436" x2="313.646455783" y1="302.208124477" y2="312.794733184" /><line x1="312.599036934" x2="300.518761147" y1="285.917272375" y2="287.379822003" /><line x1="231.861989975" x2="310.998986802" y1="308.112480033" y2="311.805473351" /><line x1="310.998986802" x2="237.601067665" y1="311.805473351" y2="314.101293677" /><line x1="313.646455783" x2="297.486152203" y1="312.794733184" y2="316.043405123" /><line x1="312.889388716" x2="316.796459424" y1="392.665785859" y2="393.625911189" /><line x1="313.320061322" x2="316.798861536" y1="393.115199183" y2="393.687550976" /><line x1="316.796459424" x2="316.059062095" y1="393.625911189" y2="393.869349626" /><line x1="316.798861536" x2="316.059062095" y1="393.687550976" y2="393.869349626" /></g></svg>
