<svg baseProfile="full" height="600" version="1.1" viewBox="0 0 600 600" width="600" xmlns="http://www.w3.org/2000/svg" xmlns:ev="http://www.w3.org/2001/xml-events" xmlns:xlink="http://www.w3.org/1999/xlink"><defs><style type="text/css"><![CDATA[
    rect { stroke: lightgray; stroke-width: 1; fill: white; }
    polygon { stroke: magenta; stroke-width: 2; fill: white; }
    line { stroke: green; stroke-width: 1; }
    ]]></style></defs><g><rect height="200" width="200" x="200" y="200" /><polygon points="314.285714286,285.714285714 342.857142857,285.714285714 385.714285714,314.285714286 428.571428572,314.285714286 428.571428572,342.857142857 400.0,385.714285714 400.0,428.571428572 371.428571429,428.571428572 328.571428571,400.0 285.714285714,400.0 285.714285714,371.428571429 314.285714286,328.571428571" /><line x1="342.857142857" x2="428.571428572" y1="285.714285714" y2="342.857142857" /><line x1="285.714285714" x2="285.714285714" y1="371.428571429" y2="400.0" /><line x1="314.285714286" x2="314.285714286" y1="285.714285714" y2="400.0" /><line x1="342.857142857" x2="342.857142857" y1="285.714285714" y2="400.0" /><line x1="371.428571429" x2="371.428571429" y1="314.285714286" y2="428.571428572" /><line x1="400.0" x2="400.0" y1="314.285714286" y2="428.571428572" /><line x1="428.571428572" x2="428.571428572" y1="314.285714286" y2="342.857142857" /><line x1="285.714285714" x2="371.428571429" y1="371.428571429" y2="428.571428572" /><line x1="314.285714286" x2="342.857142857" y1="285.714285714" y2="285.714285714" /><line x1="342.857142857" x2="285.714285714" y1="285.714285714" y2="371.428571429" /><line x1="314.285714286" x2="428.571428572" y1="314.285714286" y2="314.285714286" /><line x1="314.285714286" x2="428.571428572" y1="342.857142857" y2="342.857142857" /><line x1="428.571428572" x2="371.428571429" y1="342.857142857" y2="428.571428572" /><line x1="285.714285714" x2="400.0" y1="371.428571429" y2="371.428571429" /><line x1="285.714285714" x2="400.0" y1="400.0" y2="400.0" /><line x1="371.428571429" x2="400.0" y1="428.571428572" y2="428.571428572" /></g></svg>
