<svg baseProfile="full" height="100%" version="1.1" width="100%" xmlns="http://www.w3.org/2000/svg" xmlns:ev="http://www.w3.org/2001/xml-events" xmlns:xlink="http://www.w3.org/1999/xlink"><defs /><g><polygon fill="white" points="200.0,200.0 400.0,200.0 400.0,400.0 200.0,400.0" stroke="lightgray" stroke-width="1" /><polygon fill="white" points="230.23255814,203.125 360.606060606,286.315789474 396.875,341.772151899 253.93258427,396.875" stroke="magenta" stroke-width="2" /><line stroke="green" stroke-width="1" x1="385.913542382" x2="393.954803197" y1="325.011734403" y2="342.897858079" /><line stroke="green" stroke-width="1" x1="360.606060606" x2="396.875" y1="286.315789474" y2="341.772151899" /><line stroke="green" stroke-width="1" x1="393.530833268" x2="393.954803197" y1="341.589479251" y2="342.897858079" /><line stroke="green" stroke-width="1" x1="360.10695121" x2="385.913542382" y1="296.513357088" y2="325.011734403" /><line stroke="green" stroke-width="1" x1="360.606060606" x2="367.84532499" y1="286.315789474" y2="332.482333117" /><line stroke="green" stroke-width="1" x1="267.250070081" x2="304.648106115" y1="226.74572035" y2="377.324681906" /><line stroke="green" stroke-width="1" x1="230.23255814" x2="231.754606378" y1="203.125" y2="205.880923749" /><line stroke="green" stroke-width="1" x1="230.23255814" x2="360.606060606" y1="203.125" y2="286.315789474" /><line stroke="green" stroke-width="1" x1="231.464224408" x2="298.920787585" y1="213.193990563" y2="358.407571709" /><line stroke="green" stroke-width="1" x1="299.979722848" x2="304.648106115" y1="368.623446065" y2="377.324681906" /><line stroke="green" stroke-width="1" x1="230.23255814" x2="253.93258427" y1="203.125" y2="396.875" /><line stroke="green" stroke-width="1" x1="233.469278259" x2="234.924663486" y1="205.190337641" y2="233.154274784" /><line stroke="green" stroke-width="1" x1="233.065374077" x2="231.464224408" y1="204.932608063" y2="213.193990563" /><line stroke="green" stroke-width="1" x1="233.469278259" x2="231.754606378" y1="205.190337641" y2="205.880923749" /><line stroke="green" stroke-width="1" x1="233.065374077" x2="231.754606378" y1="204.932608063" y2="205.880923749" /><line stroke="green" stroke-width="1" x1="234.924663486" x2="233.912265798" y1="233.154274784" y2="233.206965099" /><line stroke="green" stroke-width="1" x1="267.250070081" x2="233.912265798" y1="226.74572035" y2="233.206965099" /><line stroke="green" stroke-width="1" x1="255.073158683" x2="253.93258427" y1="393.940577304" y2="396.875" /><line stroke="green" stroke-width="1" x1="367.84532499" x2="392.730413407" y1="332.482333117" y2="343.369847896" /><line stroke="green" stroke-width="1" x1="393.530833268" x2="392.730413407" y1="341.589479251" y2="343.369847896" /><line stroke="green" stroke-width="1" x1="253.468314128" x2="255.073158683" y1="393.079546802" y2="393.940577304" /><line stroke="green" stroke-width="1" x1="393.530833268" x2="396.875" y1="341.589479251" y2="341.772151899" /><line stroke="green" stroke-width="1" x1="360.10695121" x2="253.468314128" y1="296.513357088" y2="393.079546802" /><line stroke="green" stroke-width="1" x1="382.39461788" x2="367.84532499" y1="319.631186866" y2="332.482333117" /><line stroke="green" stroke-width="1" x1="382.39461788" x2="298.920787585" y1="319.631186866" y2="358.407571709" /><line stroke="green" stroke-width="1" x1="253.525499847" x2="255.073158683" y1="393.547045574" y2="393.940577304" /><line stroke="green" stroke-width="1" x1="299.979722848" x2="253.525499847" y1="368.623446065" y2="393.547045574" /><line stroke="green" stroke-width="1" x1="396.875" x2="253.93258427" y1="341.772151899" y2="396.875" /></g></svg>
