<svg baseProfile="full" height="100%" version="1.1" width="100%" xmlns="http://www.w3.org/2000/svg" xmlns:ev="http://www.w3.org/2001/xml-events" xmlns:xlink="http://www.w3.org/1999/xlink"><defs /><g><polygon fill="white" points="200.0,200.0 400.0,200.0 400.0,400.0 200.0,400.0" stroke="lightgray" stroke-width="1" /><polygon fill="white" points="200.0,219.047619048 417.416545718,291.519800954 440.059347182,328.783382789 400.0,353.125 364.442700157,333.124018838 348.571428571,354.285714286 318.015873016,331.369047619 272.250953794,349.715981348 242.057142857,274.4 188.571428571,234.285714286" stroke="magenta" stroke-width="2" /><line stroke="green" stroke-width="1" x1="417.416545718" x2="440.059347182" y1="291.519800954" y2="328.783382789" /><line stroke="green" stroke-width="1" x1="222.930943595" x2="272.250953794" y1="226.691266913" y2="349.715981348" /><line stroke="green" stroke-width="1" x1="200.0" x2="200.0" y1="219.047619048" y2="240.625" /><line stroke="green" stroke-width="1" x1="400.0" x2="400.0" y1="285.714285714" y2="353.125" /><line stroke="green" stroke-width="1" x1="200.0" x2="188.571428571" y1="219.047619048" y2="234.285714286" /><line stroke="green" stroke-width="1" x1="200.0" x2="417.416545718" y1="219.047619048" y2="291.519800954" /><line stroke="green" stroke-width="1" x1="188.571428571" x2="348.571428571" y1="234.285714286" y2="354.285714286" /><line stroke="green" stroke-width="1" x1="222.930943595" x2="200.0" y1="226.691266913" y2="240.625" /><line stroke="green" stroke-width="1" x1="200.0" x2="400.0" y1="240.625" y2="353.125" /><line stroke="green" stroke-width="1" x1="400.0" x2="348.571428571" y1="285.714285714" y2="354.285714286" /><line stroke="green" stroke-width="1" x1="417.416545718" x2="272.250953794" y1="291.519800954" y2="349.715981348" /><line stroke="green" stroke-width="1" x1="440.059347182" x2="400.0" y1="328.783382789" y2="353.125" /></g></svg>
