<svg baseProfile="full" height="100%" version="1.1" width="100%" xmlns="http://www.w3.org/2000/svg" xmlns:ev="http://www.w3.org/2001/xml-events" xmlns:xlink="http://www.w3.org/1999/xlink"><defs /><g><polygon fill="white" points="200.0,200.0 400.0,200.0 400.0,400.0 200.0,400.0" stroke="lightgray" stroke-width="1" /><polygon fill="white" points="233.846153846,224.444444444 336.98630137,250.746268657 396.875,273.043478261 396.875,391.780821918 368.831168831,396.875 252.054794521,396.875 203.125,344.117647059 203.125,246.464646465" stroke="magenta" stroke-width="2" /><line stroke="green" stroke-width="1" x1="336.98630137" x2="392.280878307" y1="250.746268657" y2="278.357997633" /><line stroke="green" stroke-width="1" x1="233.846153846" x2="252.078842536" y1="224.444444444" y2="262.235117173" /><line stroke="green" stroke-width="1" x1="254.953075032" x2="255.188662145" y1="393.75" y2="396.875" /><line stroke="green" stroke-width="1" x1="336.98630137" x2="396.875" y1="250.746268657" y2="273.043478261" /><line stroke="green" stroke-width="1" x1="203.125" x2="203.125" y1="246.464646465" y2="344.117647059" /><line stroke="green" stroke-width="1" x1="206.25" x2="206.25" y1="248.704573118" y2="347.487101796" /><line stroke="green" stroke-width="1" x1="393.75" x2="393.75" y1="271.880006995" y2="391.213163868" /><line stroke="green" stroke-width="1" x1="396.875" x2="396.875" y1="273.043478261" y2="391.780821918" /><line stroke="green" stroke-width="1" x1="258.849227653" x2="255.188662145" y1="348.318578229" y2="396.875" /><line stroke="green" stroke-width="1" x1="257.603528591" x2="252.078842536" y1="230.502825291" y2="262.235117173" /><line stroke="green" stroke-width="1" x1="233.846153846" x2="336.98630137" y1="224.444444444" y2="250.746268657" /><line stroke="green" stroke-width="1" x1="257.603528591" x2="246.123687647" y1="230.502825291" y2="264.3487695" /><line stroke="green" stroke-width="1" x1="252.078842536" x2="365.260094053" y1="262.235117173" y2="323.974901401" /><line stroke="green" stroke-width="1" x1="203.125" x2="206.25" y1="246.464646465" y2="248.704573118" /><line stroke="green" stroke-width="1" x1="233.846153846" x2="203.125" y1="224.444444444" y2="246.464646465" /><line stroke="green" stroke-width="1" x1="390.731015431" x2="389.395600168" y1="270.756006419" y2="276.917214063" /><line stroke="green" stroke-width="1" x1="393.689811906" x2="392.280878307" y1="271.857598317" y2="278.357997633" /><line stroke="green" stroke-width="1" x1="203.125" x2="246.123687647" y1="249.764508179" y2="264.3487695" /><line stroke="green" stroke-width="1" x1="206.25" x2="203.125" y1="248.704573118" y2="249.764508179" /><line stroke="green" stroke-width="1" x1="203.125" x2="252.054794521" y1="344.117647059" y2="396.875" /><line stroke="green" stroke-width="1" x1="396.840297356" x2="393.75" y1="382.987682031" y2="391.213163868" /><line stroke="green" stroke-width="1" x1="396.840297356" x2="396.875" y1="382.987682031" y2="383.000719746" /><line stroke="green" stroke-width="1" x1="390.731015431" x2="362.516716813" y1="270.756006419" y2="322.478403381" /><line stroke="green" stroke-width="1" x1="393.689811906" x2="365.260094053" y1="271.857598317" y2="323.974901401" /><line stroke="green" stroke-width="1" x1="254.953075032" x2="252.054794521" y1="393.75" y2="396.875" /><line stroke="green" stroke-width="1" x1="351.627810215" x2="359.945660498" y1="393.75" y2="396.875" /><line stroke="green" stroke-width="1" x1="393.75" x2="389.395600168" y1="271.880006995" y2="276.917214063" /><line stroke="green" stroke-width="1" x1="396.875" x2="392.280878307" y1="273.043478261" y2="278.357997633" /><line stroke="green" stroke-width="1" x1="203.125" x2="258.849227653" y1="344.117647059" y2="348.318578229" /><line stroke="green" stroke-width="1" x1="206.25" x2="258.61430716" y1="347.487101796" y2="351.434735696" /><line stroke="green" stroke-width="1" x1="393.75" x2="396.875" y1="391.213163868" y2="391.780821918" /><line stroke="green" stroke-width="1" x1="351.627810215" x2="368.831168831" y1="393.75" y2="396.875" /><line stroke="green" stroke-width="1" x1="254.953075032" x2="351.627810215" y1="393.75" y2="393.75" /><line stroke="green" stroke-width="1" x1="252.054794521" x2="368.831168831" y1="396.875" y2="396.875" /><line stroke="green" stroke-width="1" x1="396.875" x2="368.831168831" y1="391.780821918" y2="396.875" /><line stroke="green" stroke-width="1" x1="396.875" x2="359.945660498" y1="383.000719746" y2="396.875" /></g></svg>
