<svg baseProfile="full" height="600" version="1.1" viewBox="0 0 600 600" width="600" xmlns="http://www.w3.org/2000/svg" xmlns:ev="http://www.w3.org/2001/xml-events" xmlns:xlink="http://www.w3.org/1999/xlink"><defs><style type="text/css"><![CDATA[
    rect { stroke: lightgray; stroke-width: 1; fill: white; }
    polygon { stroke: magenta; stroke-width: 2; fill: white; }
    line { stroke: green; stroke-width: 1; }
    ]]></style></defs><g><rect height="200" width="200" x="200" y="200" /><polygon points="230.769230769,198.461538462 248.717948718,211.923076923 264.615384615,200.0 280.0,207.692307692 280.0,238.461538462 264.615384615,246.153846154 246.666666667,232.692307692 230.769230769,244.615384615 215.384615385,236.923076923 215.384615385,206.153846154" /><polygon points="230.769230769,217.692307692 230.769230769,225.384615385 235.897435897,221.538461538" /><polygon points="264.615384615,219.230769231 259.487179487,223.076923077 264.615384615,226.923076923" /><line x1="264.615384615" x2="280.0" y1="200.0" y2="207.692307692" /><line x1="230.769230769" x2="249.230769231" y1="198.461538462" y2="212.307692308" /><line x1="249.230769231" x2="280.0" y1="215.384615385" y2="238.461538462" /><line x1="215.384615385" x2="240.0" y1="206.153846154" y2="224.615384615" /><line x1="240.0" x2="264.615384615" y1="227.692307692" y2="246.153846154" /><line x1="215.384615385" x2="215.384615385" y1="206.153846154" y2="236.923076923" /><line x1="230.769230769" x2="230.769230769" y1="198.461538462" y2="244.615384615" /><line x1="264.615384615" x2="264.615384615" y1="200.0" y2="246.153846154" /><line x1="280.0" x2="280.0" y1="207.692307692" y2="238.461538462" /><line x1="230.769230769" x2="215.384615385" y1="198.461538462" y2="206.153846154" /><line x1="215.384615385" x2="230.769230769" y1="236.923076923" y2="244.615384615" /><line x1="249.230769231" x2="240.0" y1="212.307692308" y2="224.615384615" /><line x1="249.230769231" x2="240.0" y1="215.384615385" y2="227.692307692" /><line x1="264.615384615" x2="215.384615385" y1="200.0" y2="236.923076923" /><line x1="280.0" x2="230.769230769" y1="207.692307692" y2="244.615384615" /><line x1="280.0" x2="264.615384615" y1="238.461538462" y2="246.153846154" /></g></svg>
