<svg baseProfile="full" version="1.1" height="600" width="600" viewbox="0 0 600 600" xmlns="http://www.w3.org/2000/svg" xmlns:ev="http://www.w3.org/2001/xml-events" xmlns:xlink="http://www.w3.org/1999/xlink"><defs /><g><polygon fill="white" points="200.0,200.0 400.0,200.0 400.0,400.0 200.0,400.0" stroke="lightgray" stroke-width="1" /><polygon fill="white" points="319.867848278,332.806970859 375.062528189,408.598138506 327.479290849,365.44376094 329.48693401,374.05225109 303.588165349,441.232426384 303.448275862,441.379310344 303.3013919,441.239420858 274.15828505,375.401730333 275.743864311,366.705600612 250.321046373,392.128418549 243.443355611,392.128418549 230.321046373,372.128418549 246.168141023,387.975513199 281.75516439,333.736548514 301.010701546,341.438763377" stroke="magenta" stroke-width="2" /><line stroke="green" stroke-width="1" x1="319.867848278" x2="329.48693401" y1="332.806970859" y2="374.05225109" /><line stroke="green" stroke-width="1" x1="319.867848278" x2="375.062528189" y1="332.806970859" y2="408.598138506" /><line stroke="green" stroke-width="1" x1="302.622752625" x2="302.987308857" y1="340.700852672" y2="349.631293334" /><line stroke="green" stroke-width="1" x1="301.081674593" x2="303.588165349" y1="341.406275714" y2="441.232426384" /><line stroke="green" stroke-width="1" x1="301.010701546" x2="302.021403092" y1="341.438763377" y2="382.877526754" /><line stroke="green" stroke-width="1" x1="300.938229068" x2="303.3013919" y1="341.409774386" y2="441.239420858" /><line stroke="green" stroke-width="1" x1="299.36459305" x2="299.435842553" y1="340.780319979" y2="349.717914463" /><line stroke="green" stroke-width="1" x1="274.15828505" x2="303.3013919" y1="375.401730333" y2="441.239420858" /><line stroke="green" stroke-width="1" x1="281.75516439" x2="274.15828505" y1="333.736548514" y2="375.401730333" /><line stroke="green" stroke-width="1" x1="302.622752625" x2="375.062528189" y1="340.700852672" y2="408.598138506" /><line stroke="green" stroke-width="1" x1="301.081674593" x2="375.062528189" y1="341.406275714" y2="408.598138506" /><line stroke="green" stroke-width="1" x1="301.010701546" x2="375.062528189" y1="341.438763377" y2="408.598138506" /><line stroke="green" stroke-width="1" x1="302.987308857" x2="329.48693401" y1="349.631293334" y2="374.05225109" /><line stroke="green" stroke-width="1" x1="230.321046373" x2="243.443355611" y1="372.128418549" y2="392.128418549" /><line stroke="green" stroke-width="1" x1="277.119419297" x2="302.021403092" y1="359.161351712" y2="382.877526754" /><line stroke="green" stroke-width="1" x1="329.48693401" x2="303.588165349" y1="374.05225109" y2="441.232426384" /><line stroke="green" stroke-width="1" x1="230.321046373" x2="249.675044044" y1="372.128418549" y2="392.128418549" /><line stroke="green" stroke-width="1" x1="230.321046373" x2="250.292351969" y1="372.128418549" y2="392.128418549" /><line stroke="green" stroke-width="1" x1="230.321046373" x2="250.321046373" y1="372.128418549" y2="392.128418549" /><line stroke="green" stroke-width="1" x1="303.3013919" x2="303.448275862" y1="441.239420858" y2="441.379310344" /><line stroke="green" stroke-width="1" x1="281.75516439" x2="243.443355611" y1="333.736548514" y2="392.128418549" /><line stroke="green" stroke-width="1" x1="281.75516439" x2="301.010701546" y1="333.736548514" y2="341.438763377" /><line stroke="green" stroke-width="1" x1="280.258519936" x2="299.435842553" y1="341.944914148" y2="349.717914463" /><line stroke="green" stroke-width="1" x1="302.987308857" x2="325.737578134" y1="349.631293334" y2="357.97554296" /><line stroke="green" stroke-width="1" x1="299.36459305" x2="249.675044044" y1="340.780319979" y2="392.128418549" /><line stroke="green" stroke-width="1" x1="300.938229068" x2="250.292351969" y1="341.409774386" y2="392.128418549" /><line stroke="green" stroke-width="1" x1="301.010701546" x2="250.321046373" y1="341.438763377" y2="392.128418549" /><line stroke="green" stroke-width="1" x1="299.435842553" x2="274.15828505" y1="349.717914463" y2="375.401730333" /><line stroke="green" stroke-width="1" x1="325.737578134" x2="302.021403092" y1="357.97554296" y2="382.877526754" /><line stroke="green" stroke-width="1" x1="321.762883156" x2="280.258519936" y1="340.932612606" y2="341.944914148" /><line stroke="green" stroke-width="1" x1="319.867848278" x2="301.010701546" y1="332.806970859" y2="341.438763377" /><line stroke="green" stroke-width="1" x1="321.762883156" x2="302.987308857" y1="340.932612606" y2="349.631293334" /><line stroke="green" stroke-width="1" x1="299.435842553" x2="277.119419297" y1="349.717914463" y2="359.161351712" /><line stroke="green" stroke-width="1" x1="303.588165349" x2="303.448275862" y1="441.232426384" y2="441.379310344" /><line stroke="green" stroke-width="1" x1="243.443355611" x2="250.321046373" y1="392.128418549" y2="392.128418549" /></g></svg>
